<mxfile host="app.diagrams.net" modified="2024-02-27T21:15:16.377Z" agent="Mozilla/5.0 (Windows NT 10.0; Win64; x64) AppleWebKit/537.36 (KHTML, like Gecko) Chrome/121.0.0.0 Safari/537.36 Edg/121.0.0.0" etag="n-EwdMti6I1uUs31CIEU" version="23.1.6" type="github" pages="6">
  <diagram id="-05cvkWqFzXMk5El1_Sb" name="A0">
    <mxGraphModel dx="1042" dy="577" grid="1" gridSize="10" guides="1" tooltips="1" connect="1" arrows="1" fold="1" page="1" pageScale="1" pageWidth="827" pageHeight="1169" math="0" shadow="0">
      <root>
        <mxCell id="0" />
        <mxCell id="1" parent="0" />
        <mxCell id="DSAM6mwGoHwUWHJ2GlnA-1" value="" style="shape=image;verticalLabelPosition=bottom;labelBackgroundColor=default;verticalAlign=top;aspect=fixed;imageAspect=0;image=data:image/png,iVBORw0KGgoAAAANSUhEUgAAAvIAAAIgCAYAAADnbY1oAAAAAXNSR0IArs4c6QAAAARnQU1BAACxjwv8YQUAAAAJcEhZcwAADsMAAA7DAcdvqGQAAO8JSURBVHhe7L0FgCVXmf79to7FJhN3d3c3YgSSEBKSEBYIsBA08C1/YMOyLLvL4rDAAktggQCBECfu7u7u7jaR6Zm2r36n+uk+c+e2zEzLvd3Pb+Z0VR2vU1WnnvPWqboNM2fO7A5jjDHGjBu6u2vz1l6r9RoI13nkcRsvOI09S2OMMcaMA2pVFNWjWKtH3M4TCwt5Y4wxxpgqWBSbatTSeWEhb4wxxhhjTB1iIW+MMcaMEzytxtQbPjcWDgt5Y4wxxpgK6lFgWhRPPCzkjTHGGGOMqUMs5I0xxphxgKfVGDPy1Nr5bCFvjDHGGJPhaTWjgwd5C4+FvDHGGGOMMXWIhbwxxhhT59SqZdMWVzOeqMXz2ULeGGOMMaYHDz5MPWEhb4wxxtQxFp6mHs8Bn7fDg4W8McYYY4YdCzVjRh4LeWOMMcaYAg8+TH/U6rlhIW+MMcbUKRaeph7PAZ+3w4eFvDHGGGOGFQs1Y0YHC3ljjDHGGGPqEAt5Y4wxpg6x1Xt4cXua/qjlc8NC3hhjjDHDhgXx6FGPbe3zY3ixkDfGGGPqDIshYwxYyBtjjDFmWKjXAYYHRqZesZA3xhhjjKkzPK1mdKj1OlvIG2OMMXWErcfGGGEhb4wxxpiFpl4HGB4YmXrGQt4YY4ypEyw6Dfg8GB3qoZ0t5I0xxhhjzIjiwcfIYCFvjDHGmIWiXkWaxaWpdyzkjTHGmDrAotOAzwOTYyFvjDHGmAmHBfHoUY9tXS91tpA3xhhjapxaFhUWxMaMHRbyxhhjjDF1gAdNphILeWOMMcYsEPUqLC2IR496bOt6qrOFvDHGGFPDWHQaY/rDQt4YY4wxpsbxgM5Uw0LeGGOMqVFqWbzVq7C0IB493NYjj4W8McYYY4wxBfU2+LCQN8YYY8x8YUvr6OL2Nv1hIW+MMcbUIBZvw4/b1Iw3LOSNMcYYY8ywUo+Dpnqss4W8McYYU2PUsqCwVXt0cXubgbCQN8YYY8y4x4LYjEcs5I0xxpgawtZ4U+/4PBk9LOSNMcYYM66pV2FpQTx61GNbU2cLeWOMMcYYY+oQC3ljjDGmRqhlq6Ctw2Yo+DwZXSzkjTHGGDNuqVdhaUE8etRjW6vOFvLGGGNMDVDLYsKi0pjaxELeGGOMMcYsNB7wjT4W8sYYY8wYYwE0MtRru/p8GD3qva0t5I0xxhjTLxaVxtQW+TVpIW+MMcaMIRbKI0O9tqvrbeYHC3ljjDHGVMXizIxnxsP5bSFvjDHGjBEWysaY+aGyz7CQN8YYY8w81PMgo17r7nqb+cVC3hhjjDHGTCjGy+DDQt4YY4wZA2zFHBncrma8Uu3ctpA3xhhjzFxYDI8+9drmPlfGFgt5Y4wxZpSx+DFm7BhP15+FvDHGGGN6qWeR4wHS6OL2Hj36a2sLeWOMMWYUsfgxlficMAuKhbwxxhhjEvUsKC2GzVAYb+eJhbwxxhgzSlhsmkrq9ZzwuVwbWMgbY4wxxsLMmBploGvTQt4YY4wZBSyURw63rRkK4/E8sZA3xhhjjBkD6lVYeuBUO1jIG2OMMSNMrQufehZmFpVmPDPY+W0hb4wxxhgzyngAMrqM1/a2kDfGGGNGkFoXEPUscCyGRx+3eW1hIW+MMcYYY0yNMZRBk4W8McYYM0LYGm+q4XYfXcZze1vIG2OMMabusBgefdzmtYeFvDHGGDMC1LrosSgbG9zuZigM9TyxkDfGGGNMXWExPPrUa5uP93PFQt4YY4wZZmpdPFgIGzM+sJA3xhhjTN1Qz4MQD6DMUJif86Rh5syZPquMMaaumBPxxMPR+NzMiNbFo3uNtaN7ieaeMDPW2Bo/sljIjz6u9+gyP/W2kDe1zdN/j0lf/N9onNkVDT1e1eiesVvM+dUx0bmkHzKZcUznC9H0m/+M1v89PZoef7P3muhuLsT8LofH7H/7enRsPr3H14wVtS4e6lXcCIvK0cdtPrrMT70t5E1t86dDY5HPnz+giE80rRFzzrkxZu/Q2uNhzDij47FoPup9Mfnkx9L10N04KWKJaRFvvR4xpxzodi+6ecz5299jzs4W82NFrQuHehaTUM/1d91Hn3qs9/zW2eZLU8N0RONTz5SrzRtF+w9+Hm0/r3Af3yLKU774W5/9jDFDoDMa//dzMfkURPyk6Dr4RzHr/qfjrccfj7eevjdm/ejQ6Jwc0fDmbdH6xe9G01s9yYwxZiGxiK9tLORNDdMRDU8/l9a6l9w82o88cl6340op3JhxzRvnR+svro0Gxqs7fiNm/fZT0bncpDJs8grR+alfRds/lYPahkdOiJYzXizDzKgyUYTDWFHP7etzw4wUnlpjapeu56LlgI1i8pXt0b3pMfHOZcdEV+X7fCf/QyzyiTOjoWn1mHP2TTF7xwGm1rxyfzRdcGk0Pfp8NMxpje5VNoyOvfeJrlWm9kSopCvirbcLobRoRNX3CDsiXn8rYpElqod3vREN11wUzTc9EA2vvlO+lLjmptG51+7RtcxAU4DmRLz6ZnF1To6YPq3Hrz+KOrz2RrEcIO7br0XM6hx4elJDQ3RPKfZjalOPRxXeeCiaLro8mh54Khre6Y7uxZePrk13js7dN47ugXbnpfui6Ypro/GRZ6PhraK+01eMrq12j44d146oVlxnW8SbRbzFFhnA1NAZ8eJz0dCydHRP7xG0IqVvL9IXx62/9LOL9p3TErFo0W7zUOT9RhE+ebGISQPYOt56sehAW6J7hSFMY5ldnCfvFPs0pajT5AHauD9O/1hMO/LUYneWjfa/3hZt7ynappIXjospmx0dzcUp233A/8Vbxx/aE9Af7OfMoj6LD7yf6Too4jUX7TE5i9dWtFEU55z83nw0ms4+L5oefL4415eNrh3eHR27rlmGDcSCnFedL0bjOedH0+MvR8ObRT1mzY6GrsbonjY9ulffMDp32y26Vqh2bAvaiuulvQhbtOK8yZlTHK9ZxX4t3l/fkJEd2+4B23HsqXcxaSE/+rjNR5cFqbOFvKld5lwXk7bbL1of7ozu9/w63jrhiJ6AjKEI+Y6no+n7X4rJ/3NhNBZ6Oqe7dYXo/OxPou2b+0X3XGK8Kxr+d/+Y9rWrIpb4QLQ9+LvoyHVB17PRfMQOMfncVyO2/3a8fe7R0d2rz4q0V/88Jn35x9F8XyHme3xF95RVijJ/EG3/UllmQdcr0XxUke+JhUgt/nVv8OmYde53q7/E++ZV0br/h6L11teLmM3R9aE/xttFnefixeNj8pafi5Y3Br/Mu5cs9vPuYj8rNWLXi9H086/EpB+fEY1vzPvScfcq74o5P/hZzNlvlR6fHt6+O5q/9qWY9Lcbo7EYm8xNUzE4+1C0/e7H0bFOJqi6nioGb1vFpCsLMX7Y8fHWbyv2J9EWjT95X0z992uLQcFh0Xb/b/uODekPLNJfMUD6N06KyRv+Y7TMnBYdP789Zh25bE8AFPt37AEx7StXRixZkXfObT+JKQf+ezS9MT06jr8/2vaviFQcx8aTfx2tJ1wQTbffXwzk2nrbrbu1aOAZK0bHV/4cbf+4Xo/vQMyOpi9vFVN++0QxODkg2u47PjqK8cA8dD4UrftsG5Nu7IjutT4fs67/TnT2O8AqBnY/e3dM+9frCwG6Tcy57PyYs0G10WgR7xdFe3y9uA4W2z/a7vlLdBS6P578dUzZ+qvR1Pjeoj7HRtc5/xqTv/GnaHylIzs/WqJr1/8Xbb//WnQuXeX8XdDzqqDhL4fHtM+cO08a0d2yTHQd+b2Y9d1D5h4MPHVsTNnqK9HctmS0VztuMPuCmLTxYdHyfEt0/uf1MeuLFYORoRzb//enmDWkYzu6WJSNDa776DOR6l3b5gMzsZn1eDQ811msFKJvtdVLv/ml6/lo/tIBMeX7F0bDrMWjc79Px+wf/He0ffeYmLP32hHthSD/6ZEx5V8u60kgioupbXa5OnsW+m5uHj4xWi95tbiBT4rOd+87t4i/8Gsx5eBvRksh4qN58ejafr9o/+AR0f7ubaNrseKSm/VkNP/4IzH1S2dHQ2W+HQ9E080vJmHQzZ97/xitp/S8JzAXRTl//2US8cmazjSkW2+Jxo6eYPHmS9H49tA6hoY3XynaqKJCXS9F09f2jynfPL0QrUXY4mtFx34HR/sRh0THtqtHd7E7DU9eEq0feV9MOvuFnkQ9XPqzmPznG6Nh6trRccQXi3b/abT94N9j9hFFOzQXAvGOP8XkT/107jp3z4mGtvZi/4s6v10x6hJXfzsmf7ecZhLtxQghrzLpZw2SvuOdogxWirRvV44winTvpMDiOL0973GHN66OSZ/9bjS93l3Uob2oQ0WkOfdHy4d3jamf/H60XHp7NLw9JX0esnPttaJrpaWLPN8qzusHovmyO3sSDELXa9H44LPl+qrrR9eUcnUemlaOrjUXZw8inn8iGuYZPOUU19TOO6YnXA2zbo3mU/qpS+fD0XJqIfZho22jU4O89lnRUOx6w5zi/PjBITH1s78vxPhi0bXz/tF+8Lujc8XJRT3ao/GK78WUo34fDVzGOQtzXqWnMS+nte7Fto45//H9aPv5Lwr342g75jPRvsUyRf2KQcJvPxdTfnZPitfLnOLYF/WO7uKafqfawS3oLPatuA4aGMToXBBDPbaXD/HYjiL1LCaNMf1jIW9qlycejcakpZuia401ktf8Udyoz/m3mHT8w9HQuGx0/ujCeOdvP4g5n/5EtH/umJh9yuXxzle3LgRHWzT+379G6x2VKrg/OqLxhBNT3bqXeFch0tfq8S945byY9MXfRmOhE7qX2yvmnHtbvH3B36Lt2F9H24kXxdvXnxTtWyG25kTj8V+N1guZFpNRDCwaXkD1TIuuLdYplu9E0xlnVRFCL0bzGVcWK5Oja7tNS78XnplXyPcyOTp+8VC8+eSTFe6JePs/dyzF3zwU7XfeN2Pyb+8rRE1xDPb6j3jntptj1t/+EG2//n3MuuiWePukL0bn4g2FoCsE31f/oxBlPUlhmY2i/Yu/iXfuuClm/fo/i3b/eLR/+v+LOb8+J2b985apzIY7z4nmB4ba7gUvF+37hV/1nBdjQNfL0fSNL0TLPbPTYGteCvH3+6/EpLOeLHrXZaPjX06Ntx8v2vj2W+KdW26Nt+86L+ZsXs3yPQAdT0XD8z0W6xnLJJFbneboWr4QsQUNbcVg8KXKk6aCTQ6Njk1aiuNQnM9nnF7lqUnBg2dE8x0MjKZE50HvywasPbTfEK2/uC5ilffG7Atvi3fO+Uu0/eHEeOfG82P2rksWeReDnUt/GJMuyE+MhTyvcqatHx2fKcT7kR8p3Cej/ZhC1F94bszecWpR8qxovPCiea+dBab/Y/v2zbfEW3eeF7M3m89ja4aEByFjg63xo8uC1ttC3tQuDz9UCtPiptm19hKl3/zQ+WS0/PrvyerdvfOXo+3j6/cEiEWj60tfi/YVG6Oh/d5oPv2OHv9BeOvKaDnl/kKENEb3/kdGx7K6jIob/d9+Gc3PFKKrcfno+NFvYs52S/WE9bDS3jH72K9GJ9PZu56OluPOnNsq/8LT0YgRsKkYeBy6V3QhnG48M5qfqFAjz58dzde8VejzraP9A+sm633Dm8Ug4LU8s5yG6J60aMQSRTvO5YpBRX/zejufiJZfnla23/IfiNm/OTq6lsrjNkf33t+KWV/doRTlT58RrWe+VAbBtl+M2f9xeHRNr8y/Nbo2Wq984sAc/6Hq+KK9mr/8pWh5pEgwqTWVOboUx/WUL8fkPz9S7MKk6uV3vRrNF/RYsLf+XLT9v72ie7DXHAaj+/Vo0AzIqYsMIOSLY7y45twUA413Bmmh5nWi/f1bpdWGR8+OlpsrlTwC/+x0DXYvslN0HFD9xfLu5QsRf9qfigFq9q7AoltE+w8/H11Ma+l6PppOu7z0h4U9rwajdbXo2rhnutTstvLJzXDQz7GtB9FgITx2uO3NSNPvLcGYsaUQEfc9lNa6m9eIrvVa0vp88crl0XzzrELetEbnew+Y15oI07aJzk0RZUV5d9wx71SXeZgTjX/4cbQ80RXdkwux8rk9e/wLsJJfcFNa7V7toGjfd0Zan4c1D4uOZDEsuOHqaMqf3j/zdFmHhqWje4/3RufqTdEw++ZoOfPRMjxRCMoz/x5Nbxer2+wfHRsuU17JXS9E41NDVcVD4EVe1KX9mqL7oGLAMqNad1GEHXZ4dKZ3At+MxqtvTL4D0vFkNJ98efkFljXfFR3rDcWK2RENvz86Jv39uYhFisHLhzbv8R9FHvx9TP7q36Oxa5Ho+viHorPqKTmr+N9jPV98evVzbn5hulB7jxhoHqitilJ7w2fzKsEgFMfu/R8oB5Wdj0XzqdeV3qLj/mg+5+5ipch31/dnA9acSdH59f+J9rWr1GvtA6JjY/y7o+HOW/ueFo3UeSVeuz6aL3+qWCkGBDvtOu8L8gvMCBxbMygWwmOD271+sJA3NUpx8777sXJ1pQ2ia0F+sfXBe3umC7REwx3HR+uPf1zF/Saan0235ohXX6puvUNIPfNUNDxQCITvHxlT/uOq4mZeiLnP/9fcLwi23x2NDzANoWDjrfp/0bBxyejceLW02vDGo9HwfGZtf+bZ0lLZunR0rbhVtO+3RiGDisHDmWdEo6J1FkL4TIRNIaL23Se6l1smuii084VoeHbQkcjQufuuaGQ+cUyLzq02SV5VWXLj6FytR7A9+lDFVIbOaLjsd9H6k6Ktf/idaP3Kp2LKdjvH5FOfiVjtPTH72K9F1wAfD+nljp/F5G9dUnRYSxTC8WfRvvIw7udQaLsjWj//rWh6tdjLXb4ebUeuXP1c4enRxiv2DNL+Fq23vZW8F4qG1uhu6TlHO9IB6Yei1A6p5UJlDkXArnBAtO/KVK9CoJ57SjTlrxXce0Y031MMoBqmR8fB7+7nSUBjMaDtZ9J+0yrRtU7PnP1nHu+bujMs51UPb98XzT/ruZZ/+N1o/XJxfe74gWi5vxgI7PWNaPvK9j0RKyn297Gboum66+Z1NxfXZLWyqhxbW+PNQLjtR596bfOFqbeFvKlNZt8VTXe9U4riDTYf4OsbA/DKyz0W9rej6fhvx6R///cq7tvRcntPOQ3VL4eGtgtj8pYbxiJb7x1T/uvsaJi8cbT/8LSY9Y0KkdBRlJemthTiZplyrnJ1ivCll+xZf7MQ87qAO6PxmefL1aWWL8Rba3QdsF85veb2s/rmkj9RCKyb2iImbxMd+68ascwKhZgioNiPZ4bx++Ev97Rf4/RifwZ4ItK4dHQv2SM035xZIXDfiOb/+VpM+lbR1v/5vZh07N+i+cHXIhbfKDr+8ZPRsUGVzyhW8ua10frZ70fTzIbo2u+/ou0z6xdNNYxPHgblzWj6zmej9fqZRVvvF22/+Ex09Y6qKikGV1/41+hYvThh37gmWvfdKqYe/pmYdMy/Rus3vxmt3/plND0zn4OQhkIoT+5p37a+L6TMSyF4Z+nlgWnRvWj/MXtpXCY6Dn1XOTXruQui5XINPLJpNUvtFR176XydH4rzfMlyuk3D7LcKl1aH6bwqaZh5U7R+u+da/s/vxqTfnhbNT8+KmLF+dG699txfrJmL2dH8nf1j6j77zOve+61orjr+mvfYTiuO7eTi2E76t38r6vDLaB7OgbQxxgwBC3lTmzx0dTSlm2JLdG67bek3vzDC5ebfsGh0fvgbMbu42fbrvlUIxB8cWYrmeWiN7hkzCmFUzstueOO+aPrLn6Ppfua2ZHR19gwcoIrqyOkdfTdnllN+AKtHyC+/cjklYLMDomPNpmjouCuaz2KqUVHGmWdHE6Jo+/dFx8rFJdyycnQvR8W7ioFAz9dNhoNO7UxPO/ZLFt5c2YCLR8dnv1u0b9HG3/jnmP3ZD0f7lisUQujuaPnG+2PqwT+d55Ogc5FeLv18tN5VDFxWOTxm//RDozyloSsazv9GTP7FXcW+rRIdP/lpdKw2SAVW+UC0XXx+tP3Te4vz6bloOvcv0frLn8Wkn/40Jv3sD/Mv9pqWiu4legTtqy8U50K5Oi/FufFKMUgq4IlO99JDbKi9D43O5YrzqOuFaDrtktKv485oPvuBYtBQiPF9319+cnJB6D3Pi3w0rhiW86okfbXmGz3X8DeOidmfK86vrVcsBvG3R8t3PhxT/uHYfl8A715sRnQV1/W8brG+ulZSeWzP+2u0/urnC35sR5h6twjXc/1ddzNaWMibGqQQJBdeUt6Am9ePznetXHrPL4svUU4HKO7KXXt8LuZ8+cv9u3/6QnRss3SZroLuKXtH2z2PxVuFSH778l/FnE0mR8Ptf47Jh/1TND+f3bhbivIWQQEU4u+l8vN41SkE+ws9n89rLERa79zjtmh4rifdciuVgrV10+jYb61Cz3RE44XnRuOcJ6L5vNuKgGJw8v79y/1rXim6lmelaLenq32qcgHhRdi0O69Hw8sDWMA7CnH5ck87LLVcxRSMpuje85NF+xZt/NWvx5zv/TLaLrsl3vnhPtFVjHoar/p+TDquZwpVJc2N0XD612Lynx4u2mHdaP+f7/YzT3uEaCpGUs+fHpP+vz8V4rk1uv7xf6LtgPyb8wPQOCsar78+Gt/qLgT15tH+hW9E2w9/Em0//pdoX30+RyJNyxfHl6/LFDyVTVGppOuNaHy051ONK605tClLsMge0b5fcb4V/xouPi2aGQvcfkY0P1gc88YVo+OQXct4801733m+aDEQ1ifbh+W86oGv1nyx5xr+6jEx57vF+XXJTfHOMdsUe1OcX5f9PFqurvaJoynR8eN74u3HHpvX3fOL6FisJ1o1Ko/t5/8l2n7w45j1o6/P/7E1xgwb9ToAWdh6j+Jd0ZghMufOaDkFsVqc4BvvP8SXIauw1to9L7q9E4335y+LLiit0b3FP8Ts//tqegmv4YmTY9J/X9sTVtCyVnTJWnvPbQMIruej6ZYnyvXVNo7OJXouw45no/HZQuQjflfWF0IKAXnge8r9uOPCaLr1wmi+rch48Z0L8dUzfYfBwIqLlkLv+aeH73N7axUDiLQ7b0fTbbz02A/P3xxN6as6TdG18cbVBddcTIuuj34iOpdBzRV5X1XxkmWiCHvn8ph0zKnR2FnE//9+FbN3H8IvqA4nre9E8zeOieZnin3b4v+Ltn/bvSdgELpeiOav/GO0XluI2Bm7x+wzL4y2//pqtB/1j9H+8YOiayn2e34o9n+D8ncUGl4vzqt7+zmx3rw2mm6fU7RcQ3GeblN+MWZITI7Oww5Mx7rhtUuj+fzno/GMc9I7Gd2rvTc6dhjo102LQevsft6qnXNXNN35FkcyYo11okuzaEbsvBKLRNfB+5XXTHGtNT7c37crF4DKY3vGBTGrOLZz0rF9f3TOmN9jO3LUu1XVVuGxwe1ef1jImxqjEAan/iha0kt2S0bHUR9d8K9OLL9rdG7QXAhc5vueNPAUjvlhvY/FnIOXT/k2nPCLPqt80xrRsdPqSVA3PHJ6tFxaTnOYh1uPi5YbmOtcCPa9C5EuwdVZiPAXyKsxulZcsfSDTQ+IjnWao2HObdHyX6dGU1shFnY9KDp6fy2zObpWXr5c5VvywyXk1yjaL1kYO6Ph9D9FU9XdaYvG444vv7zTtHp0vmez0nsw2mfxAaCSqu8mFK146V+Ltu2O7p2/Hm1f2brHfxR5oxC1Zz8fscTOMftXX4muoX5G8uZfROvf+WXeydH12e9G+4ZDNY33R3F899i5FL+dD0XLX7PBYy/FMTr5j9H8atFuDctE5/679PgPka0Ojfb1i2ul+41oPvmH0XrOI+n87Nr/4OgcsPqzo+k7R0cznwSt5MoTCv8eIb5jT/1hJM8r8dwzPdPcpkb39IEGIvNJfmw/852Ys9DHdmSwGBtb3P6jT722+XDU20Le1A4vPxUNd/w5Jn3rnPLThFt9Itq3nhUNjz3Wr2t8teexeXchJF58PBoefyIa3uoR1s3rRfuRuxfCpvh//7Ex+f/9LRorprUn3ngomv5yQjQlET0UFo/Ojx2eBhgNr18crX+8r8e/Nbo+8tGeb8Q/FS1f+nS03PRqGSTuOi4mf+rnyVrfPX2PmPOpTKC+/WyxP0UdGhaJ7pWzaT7Nm0THe9YtpG1bNF1xQ/kVkffv0xMICPkVytUXCwHT35OA+aV1q2j/6LblwOSpv8bkT/+yrF8vbxRi67Mx5ed3FU3cEN17fD7mbK1RSTF4OvazMfl7Z0fjm5Xt+no0/s+vovl1cp4cndtVF+kNHYUIXObd0fbLz86HdTmj7dVorHLONDxTKMfUd3ZHwxvPFudMcd7oPMpo6CwGarwM+u1fRvsGQ63Aa9H8mxN6XhJ9d8z52DD9TP92H4n2jXlHoxC/f/pyTD41f8JU+F35vZj87UvL62bTYqC5z3xOam/eqDinesTypb+L5oeLti+un45Dtij9BqDh2TNj8kFHRsvNr/T4FDx+ekz62l+SmO6eslV0fCjLZ6HOqwq4CaZj2UPnm9Fw6S9i8j8dX5Y9Y7fo2Hm4hPzcx3b2cB1bMw8WwsYMHQt5UxvMviwm7bJxLLLzF6LluS60dzTc9MOYuuWmscim/btpX7kgxUU4t350q1hkk01i2hfPxqegKbo/8t2Y/e7lint9IYKP/1RM3WKXmPKPX4hJX/1KTPrcJ2LKvtvGtHW2jimf/ddoYcrKUNn8o9G+3ZQi3znR+OffRJO+crHOUTH7mF3SHOCGZ8+LSftsFtP2PCgmH3FYTHnXZrHIrkdHy8NFOa2rR8ePfhLt+YuTfEMeAyafuVshfwxRCHVNrynoXmrv6Nir4geyVlwhTT1omP1CND43XCb5pug66ocxexd+obMzGs87JqZutmVMPeiDMfmwA4v1jWLq0aeUg5LVD422n3y0z+rKk5VHr43m7xwRU9ffLKYe9smY9P++GpOO/mRM2WWbmPq9YkCCBlv/EzHnI2v2pJmb7qaVo+PHQ3i5tB8aLv5aTKtyziyy079Fc/r8YUc0fW+v8pw54EdVXoos9v+wH8fsfyg/FTokHjshWs55sTgni3Pv8E9Hx1w/dLQQNG8cc773hfRUoGHOQ9HyseK83WG/mHL44TFl9+IcO+D7yRrfveROMednX1qAgU+xrwcfHJ2Ti/y7yuuve+P3RceGgz0OK87NDdeNeOLMmLT3FjFt7/fHlIN2j2nbF8L+oTnFoHPR6Dr6v2LOuvkxXJjzCora9bz82vD8n2PKSivEImuuE9PWXSsWWWGVmPa+rxdlz4pYZP1o/+/vRMcyw3QMsmPbddhRw3dshxmL4LGlntvf5059YiFvaoPu2YVAGY5OpMhjVnETF/x65e/PjrYv7BZdUwsB8Nzt0XzSH6P118dG659PjuZr74uG9sWie4+PRPvmufop4i6xZCkYlpg+7/zcptWi46hDontqEf7sxdF8vSy6kwrhckK88z8fi87livw6Xo/GGy+JlrPPi+abHo2GjkLgrbt/zPnbOdH2gVV70vTwVlHvxoboXmzt6FqtosANDon2HQvh0zStEBEfig79gKdYc720f90thYhvy9pxCi/gNhf+xXKxapd74bfEjOhuLtIuXuTfUhFn0sbRfsJZ0VYIR8Rhw+uPRNMl50TLeZdF06NvFO2weHTu/42Ydc7/Rsequdpqjc5Pfyvad1k54s3Ho+m8E6P1N7+O1uNOjObbny/TvfdfYtap/xmd+ZikYVJ0T59W7Ofi0fX5X0bbgcv1BMxNdzo2xTGaTpv0eEJDkW6Fnm+Xzw/t+j47x316Ub/iOG32+Wj73oHV52ZPLtpzWtGurcW5sagqUAjgC86LpneKtlxm75jzyW16/DMaisHf4lOLgV5LIboHeqOyCjv8a8w64RvRsWbRPjE7Gu++OprPPTeab3miEN+FoN7yIzH7zBNjzuYLaIFe9f3RvifiGlqj66CDhjCtrSU6v3hazPr39xTnzmvReH1xLVxySzS+XeQyZdXo+PpfYtYxVdphgc8raIzuvYprYOu1omupxYuTobhuXnq+EPWvFOdEUf+Nd472z30/Zl11acx+X8WL8oNeDwVF2d1LFudhca31TcvJj+1e/RzbycV5qWO7oJ/5MRaTZn6p13NmuOrdMHOmfvvbmDGk7fyYvNFh0fLy8jHnlDti9p7zO/e0Ixr/c+eY+sN7It7723jrr4f1+Ge8+mA0XXV9ND5a3PRnF4JtsaWia40NonPrzaN7xnybMAcH6/hVV0bTfU9Gw9tdhUBcPro22yk6tlmtPofQL9wdTVfeGI1PvlQIx0LoLL9WdPLLmatVjipyioHFQzcUA507ovG5mYXuK4QO6bbfObpWHcI35Eeai4+OaYccFw3r/lO8c823Fvx9jNGk45VovObyaLrz8Wh4p6sQjysUIn7X6NxKL0gvKMU19P13xdT/uq0Q2jvG7BvP7v8rLI/8d0zd+t+iqWNKtP/2sWg7rBC8zxbH+bwbovH14ga1wnrRudcehdAeQoMu0Hk1+tSDWBgPIrie98F1Hxvqte7DVW8LeVMbjIaQN6aSehTyI0XHzdG6w14x6f7O6N75+/H2WZ/p/0sx1YT8OKcexEI9izFw/ceOeq2729xTa4wxxsB1J0bLQ7xfMSU6D3zvfHzucfxTD2KhngXNeMDtb+aH4Txf3FUbY8yE561o+tuZ6WXr7mk7RMd7s8+fGjMKWAiPHW77+sZC3tQGDY3R3dRQrDRFLOj0hsae+byNPq3NEFllu+jYb7/o2GeLiW2Bfu2CaDnn+fS1mtjxwOhYzteQqAeRYyFmJiI+70s8R97UCF0Rzz0cjW8tFl1rLrdgQ8y2l6LhsVcjll8zupeYyJOdjZlPXrosWv/9r9HYvUx0fuyr0b7VIF9defP6aPnmH6Kpbeno+OK3FvzXl2ucehEK9S5oXP+xw3UffYa73hbyxhhjTBXqQSjUsxAT9b4P9Vx/1330Ge56+/mpMcYYU0G9i8t6od7b2UJ4bKjXuo9EvS3kjTHGmDqk3kWwMWbhsZA3xhhjMiyQR4d6b2efJ2OD231uLOSNMcaYOsNixiwMPn9Gn5Fqcwt5Y4wxpod6EDjjQYTV+z5YCJtawULeGGOMKbA4MxOBej7PfY3Oi4W8McYYUyeMByFT7/tgMWnml5E8ZyzkjTHGTHgszsxEoJ7Pc1+j1bGQN8YYY+qA8SBk6n0fLCbN/DLS54yFvDHGmAmNxZkxtY2v0f6xkDfGGDNhqReBMB6EjMXY2OL2H59YyBtjjDHGDIKFsJlfRuOcsZA3xhgzIakXYTYeBKRF8NhSz+3vc2dgLOSNMcZMOCzizfzg42Dml9E6ZyzkjTHGGDNiWASPLfXc/j53BsdC3hhjzISiXsSBRUxt4ONgahkLeWOMMcaMCBbBY4vbf2wYzXa3kDfGGDNhqBdhYwFWG/g4jB1u+6FhIW+MMWZCYBE/uliIjS1u/7FhtNvdQt4YY4wxpgIL4bHDbT90GmbOnFkzrbXooov2rBlj6p2Ojo5oaGiIxsbGtISurq7k39TUNJe/qT+40XI8geMoZ4wx44FXXnmlZ23+sEXeGDMukFiX4FPnhn9nZ2e0t7f3CkFTn+TCXYM0jq0xxkxExuJJgoW8MWZEyC20EvNsI+4l8k19USnWdTy1lDPGGDM6uMc1xowICD6Jd2AdB4g9xLzCTH2hgRnoGOaWqLGwShljzFgyVv2ehbwxZkRQp4bQqxTzuag39QPHURZ4wXHGQi/HccUvd8YYY0YGC3ljzIiAxR0Qd4i5fNqFRV59okGZHOgYVh7L/BhXhhljjBkeLOSNMSMCoh3rrKy0ufBj3fPk6xOOX/40RQO0/HhawBtjJhJj2df5LmqMGXEQ7gj6t99+O1577bW01BQMU3/kx43jOGfOnHjrrbeSa2trm+e4su1jbYwxw4+/I2+MGRFy4cZ60dfEM888k4T8EkssEWuuuWa0trYmKy5CP49fOW1D9Oe/oCi/Soaa/1DrU1lOtfjzU5f+yu0vD+gvbu4/UHpBfKUh/uzZs+PVV19Nx5X1xRZbLFZbbbUURjyWuatWXu4HlfGgmt9QUBlCefSX3/yUUxm3sixjTP0y1O/IL0i/NJzYIm+MGRHUuWnZ0tKSpl+888476RvyCHgsuVjq+4Nw0mPlZV3gp23yYjv/LCJWYvy1Tng11x/kgyhVHsC28qr2NIE64lQHlqpbJXn5yq8/CGffqrUV6fR1oMEgH+qT7xPkdZkfJFonTZqUlgzUZs2a1Ts4A9qM+uVof/M6ax/Zv7wulfVim3bAKT1p8jLYVv6VZQP+ypd1tUdeFulwyof96A/SKb4xxow2FvLGmFEB4ZdbMFmX6JMQwiHSEE7EQ/wDAwAcoguxTNo8TCJK4pIl/lrH5eUCAo28SIv4o1zyZ5s41K25ubk3LuVRV9YFccmD+hIfp3KJq/Tki8hlSXrypzzSAtvkRT6qgxyQp8pXXoSRjjAJZ/wIVx6Ule839cnrVE1oDwXyyh1QDk5+1Gny5Mmp3pSjsqiTymT/1QbsB45w2kaDFsVXu5Gf2gJYSrxTPtsKA+WndoC8rjpeIH/Sq11xHNdK8gGE4rKPeTnGGDPSWMgbY8YUCTaJJkQRAksiiXCFIZIk2AgnTGJM6QgHrRMH0co6aSQoCUfUki/rlWWwDqQFthGEhBFfaSSOWcdPojXPQ/G0TZ7ERZAqLyBcLoc6SSASJiGrOlRLjwPtt+qjuHl+eR2GA/LWwIj2r3ZsaCOtE0/inW3FF1rXknyIq/hyQNkKU3nso9owj6d0Oh8gz1NpQPui7bwt83VjzMRB/cFYMvfdwhhjRhGEljpClhJKCDmWElgKA0SsyNMCcUjDtsSYRBZLOW3nAlyDAcUhDznCQemAsqg/frhcNCrPXHBKnGo/KJtt6osD4oD2B/IycMTJ6w2qp9pTDirj4JQn+QAiFTccsH+IcrUDU6mAsngZ9oknnojHHnssnnvuubStNlLdSAPy0z5rPyqh7dSWeRyVjx9LyoE8HkvK0DHRdo62taSdyCuvp85TtacxxowWftnVGDMiSCxKADGF4qmnnorHH388lllmmdhwww2TGCIc4cfLksyzXmSRRWLFFVfsTYP/Sy+9lATUkksuGSussELvvGxBHhJrOAlyCS7qIXFJGPEVVyKQdUQZcfDTNmHaD+Wl9PITeTiwlCBVnjilYZ34kKfFyZ91wnI/YDtf5uUC23KVdVVeCpOQrTaFpJK8PPHss8+m40peK620Uiy33HJpf2nrN998M6XhON52221x1113xRtvvJGOIcdynXXWiTXWWCOlmTJlSqoj9SEvHRvSq85C/sRV2+bhajMccP4QT/mDzgWEOANE1smHODjW8VNZLPN8CFdeerpijBkfDPayq/qWsabvDmSMMaOMLK1YZh944IG47rrr0lLi6PXXX4+rrroqzjzzzLjsssvikUceSRZewkkrISbRRl6ILCAOQgskuJQvcbWdd8Z5GqG8EXt5GspWWUA8UB6Kiz8CWfmwpJ7EYYkAlBAlPn5qFxzxCcsd+eDybaVT/qB4ID/lib/2hfLzJx0LA3Ugr3z+/3333RcXX3xxXHPNNfHwww8na/xDDz0U119/fVx00UVx0003pS8aaboN9aNOlfvBvuInf1DbMVAjDmEsOV5Kl6N8dHyIn4t4xVE6+attdczVdvipPfN0xhgzGljIG2PGDAkfBNwLL7wQjz76aLz44ovJj2/NIwAR9/jxxG6ppZZKL1AirJQWB/ncdESWplwQznYumAFxjVVYohAxRt4INtKC0ks8khaLbC7qWZdoVLjCqA9Lwogj0Uc88mNdcRGiEqOqs+JRJwlJnOqT+xM3r5fSg9IoX2BJXVVfwoYLtQNLptJccMEFce+998YGG2wQX//61+OPf/xjcl/5yleSNZ4BGtb6559/PtWF/WBwh+WepzQM3vADtSXhWPmJw4CPJS8BK73Kx+FP25IPS9qM9sCfdDieHJAP+bJkmzw4htSBPMmLtlQd1GbkqbKNMeOf4ewvFxZPrTHGjAiIHolHqDa1BojD1Jkrrrgi7rzzzthoo43i4IMPThbbk046KaXffffdY4sttkjTbsgHEbX44ounpcrgW+YIb/wRVQixadOmJTFGOPEQ7oh11hFf1JE0OAQaQkwCjrSIfQYUQP+kskiLwCMN5Uks4vBj0MCSfCmTfNnHqVOn9lqrVS/isV9MK2Fb5cmKr3bUEsd+UweJS/xULvkgVMmLMohH+RKlxKHOyl/7BKwPRrW4+dSaVVZZJVZeeeUUD1H8l7/8JYXttttusf3226c2oB6Es9+kvfbaa5PIXnfddWPttddOdWZQx/kCHAumW/F9euqO0H7wwQfTIAG0v5TNwIApWOwb5TBAJB7HlXhM52H6D+s8BaBuCuP4aaDIoFFTvChvrbXWSt/Ip91oT+0/592TTz6ZyuecJj1lG2Pqm4Gm1qgfrAUs5I0xI4IEpjq8akIeoQuI3Msvvzxuv/32JOTf+973pmkYv/71r2OTTTaJI444Iomq+++/P7lll102dt5555QWYXXDDTekKRvLL798EnE33nhjmsqBeEUgIv4QgzvttFMSlJR7zz33JAG35ZZbph+nor533313GkAgNhFuCDLyooxddtkl1Zt9oA6IVATrZpttlgTgGWeckeqsef7kueuuuybxStxLLrkkWZBpE8Ql4g8hjnBloEI9EIVXXnllqjPWa8JoN+r69NNPp/3efPPNk1jEgk2e1Jk8abcdd9wxtt5669SXkj/1QSQjlikLRxtRL9oCQauBBiBmB0PHcyAhTxmI8VtvvTXOP//85Peud70r+QPticjmmJAfdSW/6dOnJ9HMuXDuueemaVYvv/xy2l/a6AMf+EA6b2iLU089NeUt8c2xpg0OPPDAFHfGjBkp/d///ve49NJL002Z40k777HHHimcJz6UxblDPgyi+LEyBjsMKhg8MjDiuG2zzTaxzz77pHOHOpMXx4Z9JA/q8MEPfjANFCzkjal/6kXINx1zzDHf6lkfc7ihGGPGB3R0udhDRCJyEWoIOEQxcRCRCCgEMgIXIYUowkKPiEN4I95Ig6BCRCP8EPZYTfG7+uqr0/QbRBRlIuyJs91228Wqq66ahDnxEFiISoQk87P5egrCF3/iIw4vvPDCJEIR0Qg6xCIDDeIh0NkHxBtpEfLU63e/+11KR/lYhBGFTCVhf/BDoCKoEafUHwGIdRcxy8CBqR287El7MJUICzLWZ+qqKUaUySAF8U1Z55xzThqIEI+8EPs333xz2l9AXNKGDCJkqZbAZ2Cz8cYbpyXiHQEO8yNA82NLPTiu1J882V+OK4MNjuHqq6+eBjYqj7SURTqONWKZtiU97caxId5HP/rRNP2GdsYfEa32pf05Rp/73Ofi4x//eBLatCWDIdoSYc/+Y9lnEHH00UenwQttzXGhLRmcHXDAAbHvvvumNmSgRJmf/exn04CAc4xjz5QfBnaUR746t6kP4RpMbbrppul8yMnbiXQi9zfG1B70M9XIr+NawGYDY8yYgZijU0T0IeqYWvOHP/whfvCDH8Qdd9yRBBgCDeFNp8pgH8GHOMVaIosoIn7ppZdOTvkiug466KD48Ic/HPvtt18Srgh6yiIfHAIWsU7ZCGEss+QtkcXgg3XKR7QhLhHf+KvOEsqHHXZYHHnkkUkAss4TA0QfU0CoO3UiDZZ2wj/5yU/GP/zDPyRxSX4ITlnEyVPzuUlDWsJY1xMGBilMQcK9733vS4IUAc1+IDx5oZT9fc973hOf+tSnkrWYdQZQ5MF+a39UxnCg46k25DghrtkX7YfCqB8DFfaf9qXetAPHGOs3lnUGQnvttVfsueeeqb1vueWWNDggDseQwRzHmv1iUMCxov1oB4Q9wp/BIO2+ww47pHajHpRDPAYJxKFNGUSy5MkB/uRJGdSfQdJJJ53UOwWMulJvHPvGvrBujDGjiYW8MWbMkLDDISwRQwg0LMeIKiy1OEQeAg2hjsBCOGGlRthp/jPiCwuqRDoWV+JioUYMkicik7Q4BCwDAYQkL1siEBGY5EOZEmXkhRjF6spUDQQcApA8gCkaDBLWW2+9tD9YinlCwEAE6y+ilrqzf8TFaouoRDwydWOrrbZK9SI++RKfeiEembKCBZ0yEd8SvFi4mUaCBZk0fNKRr/toeossRuw/gwzisY41H8sz9aQ+7K/i4jccSKRrvzmmOOpN/RncKA7hOOrM/tHOWPbZJg1hpOOYcAzJU8Kf/WYq1u9///v493//97Rk/9kPjhltSNvxVODkk09Og8Of/OQncdpppyU/LOnUhTwpm3ZgIKCBBvlQD84t8uFJCS/t/vWvf43jjjsuLfHjSQ9pSCtrvTFmfFKL17eFvDFmzEBM0zEihBBfCE2sp1isEbnMhcb6iZiS0MfqjGhiqgVWZwQZ0xmYTsEgAPElhwiUQEWwUQ7ikDLZJg4vPGK9xWqu6SzUhTAEHWUj2PjKyv/8z/8kwcg2gpK8yB8xxycymdPPVBwGBkzBoQzyoFzi5fUnf8phcEIY0z2IRxoEKXO7f/WrX6Xy+EQjYpJw9pGysRAff/zxyUqMkEcAsw+ISYQ732cnfwYIzN+nfky3oU0pA6GrNqKO+A0HtC35UlfEN/tMG+IknFUW8TiuDJCYDsXABT/aA0e92Ca+BjLkC2wj5ml7nAZXtANOAzUGUzyxof04X8iT48xUHwY11JeyKIcw6sM2ZeJHG9KeDL54QsQce/aLY8wUINqTeJSluhljzGhhIW+MGTMk6GTlQOAisrbddtv0kivCCoHHFAnEK/ERhkx5QPhikUW0YbFFIAN54WQxJw354BCtCDUc64g/BDFWdF5uRKxhydcAgDQSj1jp2UaMItzwowymaGCBp56IVazlzL1mTj15UT4iD0jPNnmTnnXyYlt+QPmUo4EOYUBcRCv7zUu4CF8GMbwAyzxv2o40WP4pHwHKEwteij377LOTkOddBPaJeJQ/3EJe0MY8DWGqCgKauqodKF9LBjw87aAdJZyBtmC/8ePY54M5wohHW++9997xkY98JE1T4sVi9gVxTXwGSZxHxDnkkEPiQx/6UJpi9O53vzu9d8FTGuKTH0sGB5TJuo4LcSiHqT1M1frEJz4Rhx9+eMqbAQIDBeJzLlAn1o0x4w/dp2oNC3ljzJiB8EFIIpoQdXIINsQTU1YQ6ghXLOcILoQhQh6hizBFQCFYEdogoS5BT94SasTFsU45DBAQ4IClVZ8lJFyCDKstQvBb3/pW/PSnP41vf/vbaT46/ohqBCgWZb5ec8wxx8RnPvOZlBcCkLwQg5RFXRCKiFrEq7YRuIhq7RP+pP/iF78YP/rRj1J5CFVetkScMo8fx9QjXvL82te+luqn9wMYDAEDG6Ya8aSCaTVM/cEKrYEK8agf7QPDJUDZX/Jnn6kj89cph3cFeHLAQIIpNIhgBhk83WAaEVONGEgx5532YeoUadTGtBvHmGPNOYCgZ8DCPrJ/TFnSexC0J/tPm3GO8RSDfWegQzjnAAMXzhP2m3anPVjizzGQoMcPsc6gj/qypH4cO/aL/CiDvGhL0hpjzGhhIW+MGTMQSyDxJOswAgkrO8IOkca0CKzmxMECjUBEKDPXmTQIcKa5IA6xxiK2iIe4Ii8hkUUZiD0GB8ThJUimoiDKEGMSt8RnugqiDT/qy5K0CDzyph6IesQc5SI6sZbza6XUBUFLXYjLFB6s4wweEKo8DdBAgpd6EaXE02CDfVMbAWUgxCmT8plWhDBm+hHTb5hGQ51pT31aEdGMpZqXaw899NAkrIlDXpRB/VjSDsMF5TPooP4MIBDevJR8wgknxCmnnJLqyld32P7Tn/6UBmtMV0F4c8xpT+b8M7edOe2nn356EvXUmQEP+bEPHD/ebWA6E9OHeBEVsY3A55jylIXwE088MZXHNCTiMRDS8QTK49gzUOCpAceccI4F5fByLceKqTTkwzQrpj8x6OBcpA2Jy3lhjBl/0A/UKv78pDFmRKDjQyAKxA6WTEQbwhZBhuDDIZSZKkMYIpUpGYgqrKQITKzWTK9AcCHiEFlYcbHwYonVt9p5GfGss85K1lumTmDZJi5CDOGF2GJggOhH6CK0+boMX0UhX+rHYIA0WH7pkxDmLHkpVfPTEZDEQXQiQBGLTK9B7DG3HUs/wpD59liB2SeeKiC0EbiIfMQngp96r7/++mk6EcIXUY6Q5IkE1nSEJeXRPgxYaBvWGRRgzeYb6UxNYd8Y/JCOJX44xCbvG5CWAQL5I2B5WZY60v4cJ9Lnx2sw8rjsE8eOY047Yg0nb2Dgwf4xgOAcYODCMaIeiGC+TsOXd6gfdZEVn+NPXMQ55wvfkOf797Q3x4A2pv1oc5YMWjhf+EKRvlmvue2URXvR7tRv//33T0Kf9sbaTntwbKg3ZVMX6k85zIVnEKLpTMRjcMT5Rd2pD+cNZXFsOEdpm9xVoz9/Y0xtQD9cD/gHoYwxIwJCF7EiSwaCFOsxghoRjxBCSGFZRswivplGgfDDOk4YafFHiCGqmB6BhZd4zPlGxGJpRqiSPxZ6rK1MM0GoUQ55YClF+CFkEVuINAYBiDvqwbQY+h99/hBhp2kZ/KgSSz5bSJ0YFBCP8rD8ItYRcvyQE/tHPohBwtgvxCuDB74jT30pi33kJoHoo3zEPiKUelInhCL7Sd6UwxMJBCUinTZgYIOFmrYkf4QnYQhh/Kg79cRijz9iFjGM2L7ssstSHdkfBiaQi/nB0PHMhSj1oVyOOfvKAITBkm6EmnaiJxnkgSMP2han483+EBdkGQfqT57AcSRM8ak3+0A4jjT4US7l4Th/8NPgkGNM+SqX/PAjLdv440hLeaoH+0B65UVcBjLsg+5h5Js7QVyR+xtjag/6YZFfu7WGhbwxZkRA+CBW1AFWE/IIIsKJiyDDIZ4QRQJrPUIKoYZ4wmFJx/KNoOblQ+ZX408ZCC/EHCIVYQbkTx6URRj+xMUhxrD+4kf5CDXqTR1YIsYJQ/yzrXqSJ3UlP/JFzJFWAk8iEEdcpokw0OA78zxFoEzisiQP1ZM8yF+Ck7ypO/4SveTJNk77pDZDkLJOe5EP6+Sl/WN/KJf9YQnkAezfYFSLmwt5Bh9YqQknLkv8KZ916oWjfViyj3le1fJXPjjWq8XJoTygzLwOeR6iMo88f9JDHkf5KF+W+f5VkvsNVK4xpraQkM+v21rEQt4YMyLkggf6E/KDCRrEHpAP02mwzjONBSs1X2bhSyJMx0BI5U5ptKSc0RJPCGZAKNMOWIOZG461na/L8ASBOktI1xNq07wtcyHPEw+eEORwDInPcSG9jgewzP107IwxZiypFyHvHtMYU9Mg7LBAI44l0rEy88lFPvOItbnWQJBKqALWZ6bEUGfmrNejgB8qiHmOlwZguTjHD0ccDXZ0k1SbEc6TBp5CGGPMWFLrIh4s5I0xdQEij+kyvDjJd8Df+973pq+SIOolAvtjoLCRQAMO3QQQ7sx533HHHXtf5B3tOo0m+b7J0l65v2wTJic/Y4wxQ8dC3hhT0yDymIKDYy4403L4kR9eqiRM89GricWxROIUEPLUmxdP+WqK5umPRzgG+RMHLOz5VCOcBjo6XhLzWOpBx9sYY8aKvA+vZSzkjTE1DeJOgg9BqCkbrDMFg2kcIGGIUwes7dGGOlMH1SkX7dqHerlJLAi5eOfdCD7xyEu4+MnpJWDagXVeataLzXkbDeaMMWYiYyFvjKlpcmGO5V0vyDKlhk8SIhQRfZWiPRd5lWEjjcqT2NTgQ8h/PMJ+c5z0NR++y8+nPvmsJy/9MqhRONZ5xDwvLuvToYh5/Mdr+xhjzHBiIW+MqWkQwZpygUhkG+uu4GtXtTYNQ4MGfTZS24CAhfEsVNk3jhHf++drPf/xH/8RP//5z9PXhvBTexCHH1r63//93/jmN78Zf/jDH+KBBx7oPd7GGGMGxkLeGFPTINKx4CLuNI1GX6pBCCIaEYZyOYSNhWBWXag7Tw40Z5z6sh/sTz7dZjzCMeJ9AI7ZE088kSzy/EgVgxsGYyxpH9oBqz0/eEU4jPe2McaY4cK9pTFmTEHU4ZgXjbjDIXY1ZYZ1zZlG4EkUY+lWuMQh0zL4wSPEO2mEwuXYJj1x+LVTlUk65cO8bsUnrspBmOKn+JVo8CAxT521rpdctT1eYd9oA+0rv3QLTKHJLfK04Q033JDalG/P84u3hOHPoAeBf8cdd8SNN96YpueQnh/e0jFE+OPHkl+65Tv9d999d/rBMKbx6Hg988wzKZ6OO37kjz+DDB3bxx57LH0TX+cejnV+eIy4nFv46TzBCR13nDHGjBZNxxxzzLd61sccLFfGmPEBgiYXq4jmmTNnJuHM3Ha+4oIfcRBX/KAQYgwRTbxrrrkm+TF15qWXXop77703CTZ+kRSLNnGYhoHI4rOUbN9///1JKGIJBsQZAo58EYAIS8JvuummuOCCC5JAvO+++5I/IBxvvfXWuPbaa5MgxIqMoNf0HQYR1LfSVaNauITteCDfD9qW48ox54euFltssSSO2V+OI+G0Hcdl+eWXj2WXXTZtI4wvu+yytCQ/Ps3J50X5PCftf+aZZ8bll18eV1xxRRL8CG2OA4KfPDlO1113XTqGlHPhhRem+M8991w6TzhunBf4I+55SsC5x3nHccafc4zzh3Pq/PPPjxdeeCGtk17n4bnnnpt+jIzBBv7sF/tHnXXugM758XKMjZnIcC+qByzkjTEjwlCEPHEQdIgyhBu/2oqoQ3yfc845qU9A+CHCeBkSS+paa62V8kVwXXrppUm08SlKBD3CHOG94oorJsFHGOLskksuSeUgIPm1PtIh0GS1RfBRLumxAJMOx0CBFzAJpx4S4pWuGv35jxfy/asU8rQX1moEMfPiadvp06cnEYxI59hzfBDgDLKIz7Hlx7JWWGGFZC3nOGAdp90R+IQjujmPll566VTuzTffnI4vZSOyyZfjyYCMweGMGTPSOXTxxRenwSB5Uw/Or7POOisNImCdddZJcZnPz82beNSFgcPJJ58cF110URqEbLTRRqmuOg9yES8GOieMMfVDvQh5T60xxowZCD1AdCEGEVsIZwQ9wnyNNdZIwonpDQh3RDppEIwINsQ2Ig6RRx5Y28kDgY5jcHDllVcmwYcoJB7+5INVd4899oiddtopiTYsrjgE3VZbbZUcAwJEHwI/n+pjBodjBIhajuFqq62WRDzHlScrtCeDM9qT7+sjsIE2Jg3HYffdd4+DDjooPvKRj6QfAcNyzqCOc4F0nAsM0JZbbrn0A2FHHXVUfOITn0g/vsW5wRMVbsbE47gj6imbJzI84WHAgBjHn4EF5xD1ZsDBgI/BBHP3OdeAcE2nkWAnvvbVGGNGGwt5Y8yYgYhCkEkcI+4Q3FhwN9xww9hyyy2TdRQBiAhHaCPUEe+IK4QU884RYYg81iXWmfuMAGeAoKkcWHMRYsQn/wMPPDCJeaZzYNFF1O+1116x3XbbxWabbZYGEohAykXEUd9qVljTP7QXwpj2xarNscNizjFGJHNcsLoTR6J/zTXXjI033jgNsIjD1BqmTZGOY8v5omOPaN9+++2T1Z6pM8zHJy35EB9BT1wdN54CkBdxscRz3nBsyZO64M85wtd0mHPPgILzA7GfC/ZcxOv8xc8YY0YT35GMMWOGhBECCJGNFfSpp55KU28Q1Yg7iSSWiDLmRTNVBnHHVAssrIg7rKsIMgQ+fsyBxrqPVR1rMEIMMaenABJuiHrEGgKQqRlYe8mb+dmnnnpqEnSkUT3M4HA8aVsdX9aZcoPVnePMlBWm1DDVCrHOQAsBTTramWOJNZ32/81vfhO/+tWv0nQono4QBhLmHHuOMduskwfinDI5F1gyQOT4I8yxxsMGG2yQzgvCGfxRV51HxOOpEAOFrbfeundqD3FxEuwS8jj85IwxZrSwkDfGjCmIZJyEFNNeEEtMl1AYIgrLLHOY/+3f/i3++Z//OX17nDnsCHGJK4Q/61j1schjdd93332TP/kQlyVQFlZhYEleP/vZz3rzZuoFYm+bbbZJQhBRiFiUgDQDQztj2ea4smSbARPHggEW89Npy1VWWSUJb44f8RiEXXXVVXHCCSekqVE77LBDOubf+9734kMf+lCy1jMY4DzhmPC0huPH8QTyxJ8nMQzssMzrHOFFWKbmcFw33XTTJO4pl2lW1IHzjCc+vEDLIIOnMlj3Sc/gkn0gf4t1Y0yt4DuSMWbMQBBJFCG0EHpMd0B8PfTQQ2nOu6ysTKH47Gc/GyeeeGKyyB977LGx55579gp0BBbii3nNvNzIFI4dd9wxTemQ1RSBhygHrK1YgUmP6OelSfjCF74Qf/zjH+NHP/pRfOADH0jTPiQYZfU3QwNhDnqaQVviOK5Y5HkCwourCHNZ2hHXnAuI6yOOOCI+9rGPpQEZc915IsP5QBy+jMMxxErPwIAyENucAzzZ4ZzgCQDHmzQ8WWGAx/m17bbbpnpQP44noh8RTxrqRTkMJHUuUj/KqkTnr85hY4wZbSzkjTFjBuIJASahzTQLRBZz02+55ZY0xQXRh5AinOkZWGSZ6kBcBBSiDxGPIMOaiwgDpuaQFyINEY5gpzzykYBH4CEgqQNxGEhQBlZj0vFlGwQg1lpEHnFYmv6hfSXgWXJ8gCXCnXceaG8GWhxDBDOinLbleOoYIdx5x4H2Z+DGQIvpUryvwPmAwxLP991PO+20NA2Hz0mefvrp6QVnwpkuhcWfY8p0GcrZZJNN0iBBwh+xz0CNc4F4PPlBvGOx1wu6DByoL/uD0zkrEc/5x7b8jTFmtLCQN8aMGYg7RBQCCHGNYEJEr7vuuumTknxthrnSiDsEFVZR4pJOlniW8kNQEQehz9xmiTCJLolwygTFR9BRHmKN78sfd9xxcdJJJyXrPnkj5BGGiDgLtYGhfdRODK44nrQfx4F2RkRrsMS6PiXJNuG8EMvUFwZhDMp++tOfpmk2CG2+JMRAjnwZ4HHsGQyQB9+Z/93vfpcGX1jb+eINL6nKks48ekQ84l7lc35w3iDcORdY8gUdzj8GAKTluFNPzk/S5GJdol5wjhljzGhBX+TvyBtjRgQ6mFzYIIgqvyOfW8kJJz5TYZhGI9GOiKJvQISThnAJcuZJ86Ik35YnDtZ1rK587WaLLbZIIo18KQOxhzijTIQ8lmHKkXWePKkHUzEQivpuOMKROiAOqTfxEH2gZQ77MBEEXb6PPL3guNJ+iGTaTuGIeAZJDK4Io6158oGo5rhhkadNScOTGIQ04pw4pEOAM09dXxJCiOPP+cGnLBH4u+22W7Kgk57jTlzicWw5/uTFsWa+PfXQ+UR9OA8ok7icO6RnEMi5onicY8Th/COeBo2CdR33wY49bTRUBsvLGDNy1Mt35BuKG2vNmJewhhhjxgeIcISIhAsCmS/S8KUZBBHznhF1CC3iIgRx9AOIO9Y1rQbRhrhGWCGqEFdYQ7HW40d8yiF/xD3iDLFHWjpj8iEcgUg6XmgkHfGoI0KMaRrMrearNYhDxDuDBsqlLmwj9EiHkBuKaBuP6Hjm+87cc44rxxGhjPimnTm+LHHEp920zTHknKA9CSNf5Uk+bHNcWAfi60kK+XKsmW7DuxSHHHJIEvLEIQ+l4/hTFpZ3nT8qnzyAQR7x82NKWpzywlEfyudcZJuwam0xGEozFOYnX2PM8MJUzVon9ZsW8saYkUBCSMKlmpDPxRPiCuElUcUSsLIj0CSmCAPWCUOcURbhEmkShwgvBBvruTBLnV+xzpIyyVN1Ib3i4gTpEH345fWuRPtbLWw8UG3/BhLytC9xlU7HlXCOKyCyJazz40RahLOOF8cTf9Z5yZUv3yDk+TGozTffPE19IS55g8oC1YE8WVKeysBhaScO5bPNEvJzA7QE7ZP8VM88TiVKM1wMVJYxZsGpdSGvvmTe58LGGDNK5KIGsSRrt6bbANZUiTyQwCKcuBJ2gDBEkFUKOJwEPekIV/74Sdzh2JZwk6jHSXgqn2ooz4kO7Us70R4cS9qXNtNxYRvxLtT2hKuNlQfo+Oj84Hhg+GHKDVN0mCJD/vjnx0/pyEvhhOVWdcrjHCOMuPgRznnEkm3544Bt4ufghxsM5TOYM8aYoWAhb4wZMyR8EEUI5VwISczgRxiiDCcBJVFGPASfBJ6ssfjL4it/llonL4k6IX/FlZikDliDJQyhP7GV78NEhP2n7dQOeuFYxwrHNu8bKJ7mnUPefsRVfoJjwLEgDUL+8MMPTy/HUg4Ql3Q6thxD0gD+HFvSM8BQ+YSzrTigMjWoyOugdEB8OeINF+Q/mDPGTEzy699C3hgzZkjcgcQJYgihJyTMEGX4y0rLUutCgkqQFw4/BBwoTTUhRDzqRBzWJd5ktVUdTf/QPljbc+ELldvE4/0F+ZOG9xRkqcdf+UjkgwQ65wJL4uAQ55Aff8rQ4AzytBxTxSWeptZI6OOX56XzRxCWhxtjzFhgIW+MGTMkhiS45ZcjAaW4bEsA5mJPwguxxjriTWnIG3FOWL6NYMMh7shD+TOfnyX54EBfMFCepjq0DUJZbU37IdAltGln2pdjwJx2YJv4WOlJSxricVzw1+CLY6L2Jw7bOncQ5iwrjw1+5KljrXOFtJwjbJN/bpXXkxzOLeqOv/xIqzrk9SAfgV9/jnhDccYYUw36kRwLeWPMmIJIygWZQHTRYeWiiri5aMvXJYAqhRzgpzjkoXjqECvTKF9EpKy5uTjtj8oOdiKiduVFZI4rSJATRnsijvW5SlAajjnpONYcA/wkkgnTsSMvOT09UV7kL4EOLLVOfOVJGspgnfiqH9sKp96y1Ot8VF4qk+28TBz+AznFG8gRzxhjBsNC3hgzpiCmcAgjnJBAUxjb+briS4ApH5B/Th5HjnwUj23i4KfBAWEKZ6k4/UHYQOETAUQoolZtKFGM1Z3Pe957771xxhlnxCmnnBJPPPFEEueIVoQy0M7Exw/BzzfqWUfc48hbYhjRD6SVkNa28pMwJk+t48hDx1N1YF0OP/IE1gVpVVaeRgMC1lWGYJ1w6sQ6S9IK/DRIUdmQ10PxWerpEG2qOuKfl6ntvBxjTH1T7Xr25yeNMSOCRIk6HkRH5ecnEXvEMfWDjmd+3PLPT/L9fr7Pj0gGxDfC8+GHH477778//VrunXfemQZM22yzTXphlR+G4pOV06dPT/4IXYl+iW389ANSxJFoZR2xi/WcuhFX5x5hEsEMECT89bQFNNBQPqSlTNIRh7iUjZ/qQhyJbZ3DqgPrlMOSpziKT1rKohyWqpP8cdrWgAAUj6XWqQ9PCiiTePgpPkviqX1UZ2PM/FGLn5/k2q7Ev+xqjBkR6HByAYE4qfxl11yAmPoiP275L7sixvnhLMQsIheRf9NNN8Utt9wSjz32WBrM8YusCEyOPz/A9eKLL6Zzgl+BlUjH7/bbb0+ilRsqgwF+DIz8KQd/lvx4Fz8ChqjVD4iRhwSthDHxqKMs/JRNOYSxTf4MNqk3cdkmjPTcmySMKYfyXn311RSftIRRJvEQ5NSDpwnkRZms54Iawc/+sQ8aVJAP8blG9GI15ZA38UGDB8oinLJoGw0iKAN/yiGMpZwxZv7Qk69agWu7GhbyxpgRQYJCWMiPL/Ljlgv5xRdfPAlyRC6C86qrroqLLrooCUus76usskpKi+V+v/32S+fAfffdl26avPyqJ7MI3UceeSSJagQu9wd+XZf8Eb/4E37jjTemgQI/DIWln3LJQ/cTxDIDCOLcfffd6akAgwvEL+ch5VMW4TwFIOyuu+6Ke+65J55++ukkpBk8SCg/8MADceutt6ayeMpAfOpHvdhfRDzhpKc8nkBoP6gTZVLH6667LrUZdaW9EPvsA08hKA+LOwMZ6sb+Iu5pN9qRcqgXgyDKIj/Kl+DP4/n6MmbBqDUh3x8W8saYEcFCfnyTH7dKIY9FHiGKCD3rrLOS/x577BG77rprEqTPPfdcirf33nun6TIS5ZwPnBfkd+211yYhjKhG3JIX5xBifqmllkrC9/LLL48//vGPcdttt8WDDz4YV199dRKwa6+9dhowIHb5BdgzzzwzzjnnnCS+iUueWLuXXnrp5Jir/4tf/CIJfupx8803J4GM6OecpU6Ia0T66aefngYnCP/rr78+CXXyYsoP+4a4P+644+Kaa65J9aZeOMrgh6vYX55InHbaaSm/lVZaKdWBQQT7zD4wNYn2oSzqgNBX/rQ7jkEFg4Urr7wytS9pGBQonHbw9WXMglNLQp5rvD/8sqsxxphhBQGNJRzRjKDcfPPNY6ONNkpiGOsxQh1rMUJz1VVXjXe9611p2sxLL72UBPTFF1+clojen/zkJ/GrX/0qtt1222QNxwKPqCd/rOr4f//734//+7//i/e9731J7CKssZIjlBHaiGsGEv/93/+d8vrgBz+YboxM90HoA/k988wz6UnBN77xjfjtb38bhxxySBLdiHLqfOmllyYrOQMFyjz55JPjqKOOSmmvuOKKNM0FAY6g3n///VPdTzjhhPjSl76U9pcBAvVhIEvdqSNpaSMcbYMfwp08qCPvGOCPQ1gwYGLJoIY8tA20J84YM3GwkDfGGDPsILaxMiNIEZcIUgQ+QpupIppDLhGqaS6kYf45gnrrrbdOT2qXX3752HnnnZPVGbGNMEcAk4Z8mFLCtBzyJT5lEoalH4s2Fvwdd9wx1lhjjTSg2H333dM602LIi3qRdq+99ooPfOADKQ5l8YuxiHb2helBWMvXW2+9NPBYffXV0wu61HH99ddPIp5BARZ8RDkWc/JlnbypHw6RTr0IA+rPPpMO4Y4/4pyBA2KduLxIrCcATL9hwENb8dSDfWeQQHk5+Bljxj8W8sYYY4YNpnIgIhHPWNkRqFiTEZpYkBGurDPNBH+EN36IZcQ+Ypa530wzOfXUU5Pl+3vf+16ainLDDTck8U0cxDEiWfPJEbYS8+QnSzWCmLIYDEhcI6ZZx3JPmdQBQTxjxowURhwGCgwIEOvkSTh5EU5+EsqUz9QbxDiiW/XiycH//u//xne/+93429/+lupN2xCXQQb5Y53/61//Gj/72c/SdByEOnVmP4iDkOepwe9+97v49re/ndwvf/nLFJc59pRJW2gqDU6DgUphb4ypT7imB8JXujHGmGFDQhJxzZQaRC9z05kqgyUZCMcazxKBi2hH2K622mpJ6CJMceTB/HHCyJepNrwwy/QVRCyCHWs41nviaroJaRHUgLhG1JKegQMgwnGk4QkBcUiDqMcRH3/CScPAAsiDMiT8JZ7Ji/T4EY6fRD11RZhTL6YG6WkC+05cllqXP05TbDbbbLP4+Mc/nkT817/+9dhzzz3TdJ9LLrkk1YuyKFtQRxxQJnkZY8YvFvLGGGOGFYQwjpdeN9100yR8mS9/2WWXpRdAEaBMQ0HUMs8cS/uaa66ZhD9WccQvU1i22267eM973hMHH3xwErC77LJLEvIIYwYFzIEnbwQ3FnkJYwQ1DoGtT2Ei/FUv0iK09VKuxC91Ik+JX6b44HjBlngMMkjLUwbiIKJZZ0CB6KYuEvabbLJJ+irP+9///jTXnqlB1INpMgwWEN9Mz2GaDnP7mdbDvvEUAAEOLHnJlTbkXQBeFt5yyy3T/vM0gf3VAID6kydL1d8i3pj6RoPygbCQN8YYM2wgJnGyFCNCmZ+O0GV+Ny98IuaZu87LowhsRC+WZ77gwtdmELhYsxHJiGKm6CBeQRZyvjDDElGMVZ+vwiBuceSpaTDMcWf+OnPMKZc68NUapvLwtACRTlnkw1dgGHCwpH76Wg7TcphTv8UWW6QBAFNgyE+fmEScMyggngYQlE3eiH+mGTFVhvZAXOMYUPC0gScKiHPNy2c/uXlTJ0Q6+0v9+f4+Aw2++INwJx7htLOW5A9aUoYxZnzjz08aY0YEWQgFYgNhxtxlRA0CBytqHsfUD/lxQzRzXDnm+moL6whajjXzyBG69PHExcqNiEbgYpHebbfdkuWZuDiELuL80UcfTUsENZ+FRNQy5YX0zB3ns47EReQSB1Gt6TtY9skTwUseiH7EOfnwwix14WVWLP9Y1PmUJUvOU4Q5ZZMX5WEpZ7CBOMdiTxjTZBgUkBeCmbwYjDDHnalEDCwQ3cRlm7qSnn1lH6kv7bTuuuumduDaoFzaB3HP3HwGC6Sn7oQxAGEfGazw9IJ9oDwGAAw0aFOOC/Vhma8bY+YPvYg/VgzFGg8W8saYEcFCfnyTH7dKIY9oR0ByzBHaTEvB2s4cdz43idWdr71oOonmkWteO+cH1mqEO0IWwUw4Ypp59AhkPgPJjZbpJ7LAUyZiHH/ypDzmz5MXdcOKTz0R+Ntss00Sw4hpBDsvpyKesf6TH9NgqOf222+fBLrmzGN1xyKOuKZMRDhTgHjqQB3xw5EHAwiEPuc9ddhpp52Soy7EoSzagzpQHvVG7CPKGYiQXl//0ZJ25ynDPvvskwZItBV5IOapI+E4XX9yxpj5Y6yF/FBpKDqYoUn+UYDOzBgzPkDASVAAogzLKZZFRPyGG26YhJtFRn2h45kfNwQnx5VjjvhFtLPONBTErwQ64K+pIBKenBuIcAZ2LCVCiYN4ZZtpKkxbQdSfd955SZTzGUks+uRJHKbHXHDBBWnKC2KXH5yiLoh98kUsUzb5UCfSIKiJzw9CMbA48MADkyBXGtVf57IGpPgRhh/11JMEnhbgz9MIwuTYxgH5MnggD9KxJF/qR14MQlgyKAHyo87ko33A+k4cyiOMAQDtB9SVulBOfpyMMUOHKW1jBdf6UPEEOmOMMcMGNyCEJqIVQYrIREwisrFwYc0GwrWNkM0hD+IjprFaY0EnPtsssW5jhSYMSM8TXYxBlIk1G6GLn26IiGIEOlZsBC/+1I3BBPE0TQWHcCYe4pi6q87UibR6IZc0xCVfRDWOMNLhn+8XYUoPDGapI2Ibf8IR9ZQL1I9wHCDg8WMfiUO91BbUhXXQ/lrAGzMxsJA3xhgzYmBtRxwjYBG8Es6IaLZZYj0mHPGJWGcgIJEMiFPENOFY2JkWwwuimgNPPMXn6zeE8/IoYeSNoNZ0H9CSssiXsrH4MzhAOFMelnrqjkAmX8qm7ohuPQEQrJOXRDppNZghjeqocEGe+Kk9JL5VP0FaWe5BgwLKBMqnTsaY+ifvW4aCp9YYY0YEhAXCRJ2Sp9aMD3Q88+NWObWGeeRYkBGniFniEoZDuCJUEaMIUYQueeKUJ/HYZkkexCONhDBTdsgfyzdxSEc84mB5xw/xy/mFn/LlHES4ExdHPAQ3jsfo1IU8lUbnJ3WhDghu0hBOGqBOxFE9QHHy/WIbf7a1HwrTOhCHcKXFkVb5CdZpQ8UF1aPST2UYY4bOWE2tya/zoWCLvDHGmGFDohUxiYhnKZErUc+NCn+EMmIUJ5RWS1CeiGfyQnAznYT0OPJVOGEYhdjGag34I+LJT9Z1CXHSkwZLP9b4ysEHsMSPepMv26ofdWdwoJuv4qiurOPHNuvaf6H9xx9UJnEBfxxxVGelp3yFkS6Po3TGmPoh7xuGioW8McaYYQURivVaQpNtHNsSsywlwCU6JTwVTnzI89FSYltCXv5ybCu91oknoV4ZlyX+OOLi8jDVQfkpbe7wl6sWBvl6Hl/bqjOwrfhal3/uVFec6pk7Y8z4xULeGGPMsIJ4lLgGCU3Ar3JdwjoXnazLKUz5yA+nuJCXQ56IdsAfwZ/Hy8tUXvhrW4KebS3llE55kXeeF0ulB+Wn9LkjTp6/1pUuX8/jyYHywFEXY0z9sSDWeLCQN8YYY4wxpg6xkDfGGGOMMWaMWFBrPFjIG2OMqUsqp5n054wxZrxiIW+MMcYYY8wYsDDWeLCQN8YYY4wxpg6xkDfGGGOMMWaUWVhrPFjIG2OMMcYYU4dYyBtjjDHGGDOKDIc1HizkjTHGGGOMqUMs5I0xxhhjjBklhssaDxbyxhhjjDHG1CEW8sYYY4wxxowCw2mNBwt5Y4wxxhhj6hALeWOMMcYYY0aY4bbGg4W8McYYY4wxdYiFvDHGGGOMMSPISFjjwULeGGOMMcaYOsRC3hhjjDHGmBFipKzxYCFvjDHGGGNMHWIhb4wxxhhjzAgwktZ4sJA3xhhjjDGmDrGQN8YYY4wxZpgZaWs8WMgbY4wxxhhTh1jIG2OMMcYYM4yMhjUeLOSNMcYYY4wZJkZLxIOFvDFmRKFDyx00NDT0rudhXV1d0dnZmfyBdcUzY09+rISO20B+Wpdj2xhjzMJjIW+MGREk4iTechobG3v983gIvFz05WLQ1AY6NrmrBL9crOfx+ktjjDHjgdHu3yzkjTEjwpw5c5KYQ7TjhKzxlU7x8vCmpqa0bWoHHUsNsjg+LS0t0dzc3Hv8QMcQpzSKz3E1xhiz8FjIG2NGBIk3ljhEnMSfps+wLiTyiEs4cdmWMDRjD8cIxzHi+HR0dKRtrWtbaL1S3BtjzHhkLPo3C3ljzIjQ2traK+Zz6Oja29tTGJZZxansABGHprbgGGkQllvV8UPE65jZ6m6MMaODhbwxZkRAzCHuEO0IPbaZfoFTuEAgIgJxEoFjYdkwg8PxkdMgjGPKwC0/tjjIn67oOBtjzHhjrO5ZFvLGmBFDwq2trS3eeOONeP311+Ptt99O62+++WZyiH0gngS/RKCpLRDuOFngZ8+e3Xsc33nnnZg5c2a88soraRs4jsTVujHGmOGloeh4a8bsteiii/asGWPGA4g9Xnp99tln4957741HHnkkifkpU6bExhtvHKuvvnqstNJKMW3atCT4EP6TJk1KS9Jh5bUArC0YcHFcOS4vvfRSPPbYY/Hwww/HM888k47haqutFttuu22suuqq6fhxHHkZlgGABm2y3BtjTK3y8ssv96wNzlhZ46HpmGOO+VbP+pjDDdwYM35A7GGdvf322+O8886Lyy67LO677754/PHHk+V2mWWWiaWWWioJe+LSGUrkIfqYYmMhXzvoZoWY59g89dRTcemll8ZFF10UN910UzquiPmVV145ll566dSnExcRr+MLmpJjjDG1Ck8Z6wH3psaMAxBIctXIw+UQWDhgyVz2avEWxiHeEG2yyt99991J1N9zzz1J9Clc9dA6aSX2KvO0Gzun4wEcHwZdTKd58MEH484774yHHnooXnvttXRcZX3PjyP+OB3j8eoE6+yrzu/KeGoHlgyA9FRK/saY2mesr1ULeWMmIHQ8iAYJDJYI+eGGfBdffPFYf/31Y7PNNovll18+CbvFFlsstthii9hwww1TOKgz1BKRiOgztYfOHaZFcRzXWGONNDVyySWXjLXXXjtZ5PVkJZ9Gw7GXkB+vcP6yf7nLb/SsazsPZ+CjaxA/Y4wZChbyxkwQcgEBiAUJMqZJTJ48ea7w4QBLPOJk+vTpScwj+CgHobfddtslQU/ZCDw5WW0t4msTzhHOG819X3PNNdO7DhxjptNwbBH1etchF6s6vzjO4xG1DaIcJ0GuwYvaQahNCGfAo0FPHscYU7vUwrXql12NGQfknUk1ASzBgLhARPG1EU2lQUgjyCQ0hssSTh6UR/6Udcstt8Sxxx4b55xzTuy4447xz//8z7HRRhul+fGKL4ajfDP8cFxwiFW+PsR5wzsQJ5xwQpxxxhmxxBJLxEc/+tHYZ599kpAnbn6e4XQujld4wRfYR66nXNTTHlxfXIO0He0IGsQCcfyitzFjz2Avu9ZKP2Yhb8w4IO9Qqt38JZ6Yz8xc9aeffjqJCOIiMBARbM+aNatXgC0sfHIS6zvChTKefPLJuPzyy9Nc6s033zyJPabVIO5MfcA5wnnEcX3rrbeSSOf43XzzzXHttdemY7377rvHlltumc4p4hIHJGDxk6gdb7BvnPe0iYS4hDz7PnXq1FhkkUVilVVWSS9540ccljhg20LemLHHQn4BsJA3ZsHIO5RqN3+JJ74Uc+6558aFF16YrPIIDoQWIktTaxAdwyEgEH0MChAllE2+vAiJBXfZZZdNn5ykfIuV+kHnWX6usM7vAjBA5FhybDnuoPMOf4lVtnESruMJ9pd95bzGaR9pJ64zXQtf+cpX0vshXAO5gCc921w7vjaMGVsGEvLqC2sBC3ljxgF5p1Lt5i9Bxbe+Tz/99DTNBSGBQzDI0oq4R5gNh4AgPwYIiBcJE/xYx9qI5RLBh7/im9qGY4QgxXEMEZ0cY507HEvOH455DvF0TnEeEl8CdrwhIY54Zz91fTGI5us+fHP/05/+dGy11VbpiZTahaUGOKRjeziuQ2PMgmEhvwBYyBuzYOSdSrWbP+GIhBdffDFOPfXUeOCBB+Ld73537LbbbkmQSXTokf5wQJ7UJRdxGjAIRI7FSn3BMdR5wrHT8cSf48ncb02nqTz+xFX88XrcJeRpI/aVgQ5w7V111VVx5ZVXxiGHHBLbb799EvJqj1zAi/HaRsbUA/0JeV2ztYKFvDHjgLxjqXbzJxwh/+qrr8Ypp5yShPwBBxwQO++8c6/w0AuvMBwCQmIOIUN+EvGsUw7lVesQLV5qF44XTuKcYyo0cON4c3xZl4PKYy3/8YT2kX3T+a4nToiCiy++OE1rO+yww2KHHXZIX23SdZJfD0o3HtvImHqhXoR8XT3bpPHoHLlJVDYk27kT/fkbMxFBbAEiAYsq4qESRNpwOKbNaPqFrj3KReixxI8w1nOX52FXWw7of7VOf4zY5LjpuBLGer6du/F+nEV+nuMk7HH4047yq1zXEzI5Y0xtUIvXY91NUpSQh7yjc2dnJjKIKblqVIbn1xGiQoKe9f7yWBBUpspQ/hI5w1mWGXk4Zpp6xbHTOw46pjjWqx3X/vzHE+wf7cG1ld+TEPj4S+yzrncN1H5MxcnTV+ZhjBlbavV6rDshLzFAgyJGsFzIepHDdqXfeL+JGGOMqS3y+w73LDlE/DvvvJO+xy+nl4Q1IDLGmMGoOyGPlSK3JsqCkT/SNMYYY2oNGaCeeOKJ9PUa3EMPPRSPPvpo+nwnn/HU9DdjTO1QaRiuJepO/SLc88eTeiwp64VEfqVFXuHyr+WDYowxpv7J703AvQmhzm8p8ONsOH5YC8s8Fnruazx1rvbuijHGVKMuhTyODlFzDHE8ksRJyEvMKw1YvBtjjBlt8nsQ9yiWupcBSxmoCOP+ZYypDWpdO9adkFcnp45PHSHISg+13vDGGGPGJ4Pdf7DK50YnGZ50f9M36I0xZjDqdmI5nSC/DKlHlDyexDKvzlCukv78jTHGmOEkv9/kRidQmEQ8yDglg5QxZmzRtVnL1JWQlxUeawW/kseP2vBT8zfccEPcfvvt8cgjj8Tzzz+fBL0xxhgzlkisC+5hOP2GQzmVppw3j6AvUhThCPq559YbY0afehDxUFNCXp0eTlYKLO8Ic80rnD17djz11FNx4403pp+7xl1xxRXJXX311WmJyCdN5eNK5QG5FQTycJzW8ddjUG3LKW6lP/HlTzrFZcl2nlcebowxpn5Rv99ff14ao/jmPh9pwIe43BPKzyiz7Opinc9Qep68MWZg6GtqTsgDwlYOQZ5Pm0HEX3fddUnAv/LKKzF9+vSYMWNGsmzwSa9TTz01Lr300njhhRd6BwAs9b1eBgJY9PGTFQTHul6YZcqOvulLPNIovtZJQ33IX3kSjqO++BGGf15mZdxZs2alZX8dvzHGmPpEFvgSrO38qmtjcf/gN1Dak5hH1Le0NsakyS3JdRcCvqm5bme9GmNGmZoU8ohyYJsfxpg2bVp6FIkIvuiii+Kxxx6LzTffPD784Q/HZz7zmfjSl74UX/va1+JDH/pQLLHEEnHiiSfG9ddfnwQ1Ipnv8z744IPx0ksvpek49913X/pe76uvvppEu8Q15T355JNxxx13JKs+6RDfU6dOTXMWX3vttTSQYF1TfEj7+OOPx8svv5w9Ku2Ou+++Owl5fvmQefzkxeBgypQpqWNnEELdNODwY1RjjKlvJNyr9efc3rg34GQIauBWV0Qt/fqm1xhjzGDQb0BNCXkJ+GogdhHjCPlll102dt5551hjjTV60yCY11577Tj66KNjiy22iGuuuSb9yAZC+5577onjjjsufvvb38ZZZ50Vf/nLX+Kvf/1rEtMS5Qh7rPy/+93v4rTTTos//OEP8cc//jHlI9GNYKd88gUJcqbzMDiQsEec/+1vf0viHr8777wzTQV67rnnep8QMMg4/vjj4+9//3t6WdcYY8z4R2K+klLMezqNMWb+qCkhjzDOOzg6NXVsCF/EMkJ5o402imWWWSaJYhzgz/p6660X+++/fxLd999/f7K6kw4LPaJ98cUXT1ZxBPmFF16YflmP6S38ut4pp5wSTz/9dCy55JIpT/wQ9wh38ka0kw9PBKgX+SHCb7311vSiLaIdCz8v3F5yySVpcEDeDEAYTOCPVR6Bf9ttt6XBAnV4/fXXq3bsxhhj6o9Ki7zEuxz3j8o+vz9/Y4ypJO8nakrIUzEs33RmWMkRykytYR0rNtNdmL7CnHjiIK6ZcqM4SrPccsslUY1olvWb6TlHHHFE7LPPPnHAAQfE0ksvnaa/IKo1PQZBfeCBB8bBBx+c4u64445pOs29996blpTJwIA8KUuDB/yYg89TAeqCeEe0UxcgPoJf8+6ZvnPuuef21o2lO29jjBkf9De9ppL+4iW/wZMbYyYglXqxpoQ8qIJ0ZIhllvhJuCOe1fkRDghhwoiHH6Idwcy65q0rHmId0S1Hvoh4rPYrrLBC7LbbbrHqqqvGOuusE3vttVcS57xEizVedUOsq17kzZJtykK8s41jkKE6EK458TfffHOaM7/99tvHIossksKMMcaMD3QP6A/1+ZXxcn9PlTfGDIWam1qTi1o6M8QvDkHMF2rwQ4CzTVwEvNKwjsMiTjyENCDgmZ9++umnxwUXXJCm1TzzzDNJpJMPL7BicWfOPdZ+4jMQWGmllVIeWNJx1ENWdgYAEu4qHz91yrnYxxHGYID58ky12WSTTdILu3l6Y4wx9Y/uA4I+vprLYVv3NWOMqUZl3wI1N7VGHZnEL+IZcc689jXXXDN9lQYLOcKaeMRhqek1TFXB4o0IX3755VNaRDlgzSdfxDOinTCm6+BP/ghzylNDyfqPmMePMNbxY11iHQgnP+pDPXCs4/CnvkzR4YerFl100dhvv/3S13AYdIDyMcYYU59wH5CrhC6efl73B9YVL/cvtpKfMcYMhZoS8hLluaNjQ3gjevkqzWqrrZZeHOUFVCzzCGGs6XziEeGNpf3yyy9PX7XZYIMNktjG8r7uuuvGxz72sTj00EPTZypZMj+eF2InT56cpriwTnpEOnXBUo8Ix0rPdB38EPt0vpTHoIGXW9kmHnXRNnVnnSX1Zx49Qp50O+ywQ2y88cZJ3JMOiGfMgsI5J1e5nftzDufkYcaYkaTP6FMN3QN8KzDGVKO/vqOmhHyfRaIkF/KAoH7Xu96VrOJ88hHBzldnENxMWWGbaTPE23bbbdNUHE1dYW48L5xK+COgCUPEM0DA2s9LqHyekmk4WM7PPPPMNB1m9dVXTxZ+RBD58ESAcvkmPV+24es0WPaZMoNjzj35E49pOsAAgYEGn8ZkbjwDDIQ+AxT20WLKLCwaFEqc65zSOucvcXRN4cd2pbg3xiwY3Gtw+dPaSrjmMBZV3uvw536R+xszkujeMJgztU3TMccc862e9TFHU1hAHaJEh9YR1UyVwSrPL7zyGUcENQKaF1b5fOThhx+ePkPJdBnEM2KbOAjnm266KVner7zyyjRNZ88990zz1el4EeSIcPJE1PMDUnyzfuutt45VVlkliXWm7eDP5yYZPPBkAMcggRdZsbpTD15mpa4MEKgbAwJeoN1pp52SH/vJAIQy80GHMQuKrhlND+N6YRu4ZvS0iPOfrypxPvKEK4+npTFmweE641rK72c8QX744YfS/WDFFVeMpZZaKppbSsGP4/7HfWDq1Ck96bkuy2sTZ8xYMVHPP67ZWkF9STVqTshD3vlVdmJYLfi6DCKZz0zyXXhNjUGQH3nkkUkok0YDANIQh7np+NGBYmHnqzQIfqziWPHXWmutNIWG+Pjtscce6QmAfngKaz6OMom/2GKLpY4XMcSXbvAnPVN5EE6UzSCAQQJlbrbZZrHhhhumdIQjuBhMMAWIdMC+29nNrwNdJxLm+HMus+QcZFoYFj8Gmkwr41zkOlI64pLWGLNwcM3pGgTWLeRNvTJRz79aEvID0TBz5sz+Zf4ogxhXx5d3gIgLtnFY2OnwENRMc9GjSIQxYgXLOVMFsD4iqAGrN468EM+kJw3CW3E01YA8yZt4dKqIf1k4EToIIOJK8FAf1vEjnG0s9ieeeGKq0ze+8Y2UB/PpKQvhTj2Jx0nCkg5dgxhjFgRdL6BOl/ORc5dtzi/iYInn14R5SnXQQQfFLrvskuJxzRDu89CYhYfrietO09a4R3BfOP/8c9P0zW222SYZkSZP4ctppVDn/sfAesaMJYtrsisaGxD5pTFK17Qxw0l+3xiIiXr+cc3WAoMdp5qyyCNw6fA4aah4PndXJxL+iGbiYjXHui2HVZswBDT5EAcQJ/xaKyIaca64hKtMBA8Of+LQqZK/BD5xZNUnnGk7Kp9tiX62yZM59KRDKCHUyZf0hOmgkJ5yNI+eMoxZGDj3QTd/zikc65zfvGCNRZ4OCiHBkyRdW4pvjFk46OO5ntTXs26LvKk1dG4N5iYqtWCRVx8yEDV115Zw14mTL+U0PQBRIoHCjiKQ6QjxR3yzrvQSM0A48dnOrSWkkQOslKSXMKJc4uMPyhNHftSJcLYpm+ky66+/frLC409ehIHWWVIeSzu74XA6rzjnEO08QeL9DH3VKT/H1UEQHz/Scn4PpeMwxhhjzNhTs+a3XJgAApzpMggNxHV/gkPWbYlrluTBkjwk0OWvdZYIcCAd25ALf/mB8hMaFBAHaz1z47fccsteIY8jDU7bpGepQYf87ezm13Fe41jnHGMqF5a/q666Kn3N6ZZbbknTafgiE2E6p3XOCtIbY4wZ/0iTDObM2DDUtq+pOfJMNZG4kKDAUojg5REH89xlGWdJGDvKNo60xJUwQdhgqScu8bBIso3T9BscaSXwcaxLgCsPxcMRB7FPHkyZISxvcNbx40s2/YXLkRf5s07exiwonD+c/5xPfEHpmmuuiWuvvTa998HXl5ZZZpk09QtBz/n20Y9+NHbddde5zjv8ua50DRlj5h/dJ3RtcQ/wHHlTawxVd+gp7kRjrOfIc3yGQs297Ao6uei8OIEQ4EwPwJqIoCccwcJSHRzrdJbMQ8+t8kAc8iMfvdwK+CHUSYf4kR9lkgfrxCe9ngJIlGN1Z504vBzLusrRYIN4rMtf9cVRBvmxP8RRemMWBq4Lzlk+lXrppZfGBRdckH7PQF92Yk481wEvhR999NHpHQ7SAE+GOA+NMQsH/b36feC6qirkJ7dGQybk+UKahbwZLdAk6BBpE/mxzhJ0/kmj5P6s4whjyfmex8OxPhAKJ64YSjox1HgLwlgK+bw9BqOmhLxeBuXAcHIBgpcpNYh4vt2OlXt+dtCYiQIdKNcKgpynV9dff32aVsNvK+ilbD7dyqB05ZVXjqOOOir9yjDXGtddbnUZyc7RmPHOYEKe3w5ByE+a1JKEPPCxBAn5rq5CyAQi3kLejBxoKQw5OIlxHOv4cW/AMISxknuItBnhOAyexEO7kY53sRiQyhiquDKU5hBGfsTVtaJ7EfcoGUR1/mtd9QSFjRRjJeS1f0OlpoQ8Vm4dVFkJOajsFCcFUwR0Mhlj+gcr/Pnnnx+XXHJJeurDi9c4pnrxY2p0zIceemgS8sA1xXVGB6qnUMaYBWMwId83taZ8CkZcT60xow19PsYfpmGivRDSnLOckxL4+g0cwrg/cJ7K4JoLTtKxTVqczn3FQ8PpPUQgnA8yEM4gNs9rMBR3pK8NC/kFgBMEODCcQDqhJObxG8mDZkw9o0EwvPrqq3H33Xenz6AizBENTKfhRVem2zBPfv/994+dd965V0hwvVnIG7PwcC3pmgKusVzIb7XVVmlgPXXq5GhsKoUPg2x+XHDJJacX97rOaG7iIwgW8mbkQFPxC/Nf//rX0ztU3ENyzYXjvvHhD3846TNZzBH/nNu6V3DfwB9HnuRDOOl1/uo+o3ClAwQ+8fEHRD8oneqCow6asiw3UoyFkGcf55eamhCrA8KOcEDzg8rB5yThoNrZ2c3ruG70OJNOl0+g8uvFOEQDv6XAI1DgeiKeOkfg+qODNMaMPiMpSIypBvcNuPPOO5PeYsrlOuusk9zaa6+dfu2e3zzg3CSuzlG0mKzrEtYK5x7Ee1iCcFBZbBOudOTFuhz3I+5PGgwD6zjd58zc1JSQ14HkgAEHTSeHDqjW7ezs5nag64UOkh9AW3755WPppZdO09bUQXKNKS4OdN3JUmKMGTl0nSJJJFJ038Nf16UxIwn3BPp+pi0j3nffffdk+Nljjz1it912S1814zPaiG2e5gIinPeu7r333rj99tvTk19+r0TnL3li5eeDC3ykhKfCDBRuvPHGePLJJ9P5TZlM+WT7mWeeSduc8yx5H5L0+rAJ02+effbZ9Kvk4/3aWNBBSs22CDukg4a4cMdmzMDQkXLNaB3Ylh/oqRZ++XXF9aY0xpiRpfe6LK47XXu4dN8r/qXr0uNpM8JwDup+wFx4LPIrrbRSssKz5CtnrGMYwtJOPN6/uvjii9MUMd7BYp33sRDlnMPcYxDt+PM7JrjLLrsszjnnnBTvtddeS/kg0K+++uoUl3TUg6k2/ObJrbfemgYBbPMpZbYZNDCISNeNmYuaUscSFhwodW6yFAJ+OGPM3OjayB3oWtK2HoGyLeHANtcezhhTI/hWZ0YY+n7uCYAFHes5lvb7778/rT/++OPJn/sEU2kQ19ddd10S1fgjtLHGI+ivvPLK3q8K3nzzzUm433TTTSkeoh2LPqIePz62wNNhBPodd9zRe09CqPMxBiz4+uFCve+FIw1xxyPs64JSUy2CsEB46EAh4nHsoJ2dXf8OsIRoMCxhzvWUD4hZgqwaSguVot8YMzJwLeKKiy5dr3K6BlOYMSOMzjWENaL63HPPjdNOOy3OOOOMJMTPPPPMZFlHrHM/QcAj0pmuue+++8Z73vOe9MGEGTNmpN8tYcoNefGSKNN18N9uu+1izz33jH322Sd9Avnss89OVnbK5jPJxBPUhcEB6QnXPHwGCAh6tnXvGk8s7D23poQ8j260QxIiiBMJFLm847OzsytdtQ6OjpHriiXXERYNwAqja0ksbGdSDfJUvlqv5vLwfF3bkPtV88/X83Co9Mvj9ecqqQzLt3OXUy0cl4fl65VO9BfWnz9U86/0kz9U8xN5WKUDzi+ti8p4uesvvD//objKtDm5v8Iqt4eTynwry1J7ccXm12+KU/wjvEg1TzrRn78x8wPnD8IZAw+CmnnozFHX7/Yg2hHoTIEhHlZ6vljD51OZQ7/xxhunJZ8yRsQj0LG+c3/hazc77rhjEvH8bsL2228fBx54YBoMMDDgXoQw132J85+v4OAoQ0YnYJ37GPcs3cNMHzUl5CtHW6xXEyfGmKGBQKBjlGWDbYn70RABGkSIgQQInXXeSfcXpzLPyvyJk98EoDINEBe/aq5a2ZCH5elZHygN+4VjvT+0/zjWK/MjbeW+qQ6V/sB2tbwUt7IuxKmMm4O/wpS34MbLjb4S4gx0rlEHwomXx8Ff+VOWxAZxCMNVy1PpWFZC/DyN8qqWz8JSLc+8/P7qV9KQxI0xowHiePHFF48jjjgiPvOZz8Q3v/nN+K//+q/0ScrDDz88fRb117/+dZpWw/QWvn7Gpyp1jiLamV9PH4Alnfy4prG+Y5HXuc75jSWf6TNco0ydYSndRxqWXOsS9NJ/5Ek5hBFfA9/xQLW+Yn6pKSHPgckPTuW2MWZwdN1UOoX1R2Xc4UICJu+wqgmZyrLp5OnccYqvDp2OPEfClPQKk0DEn5sOYXldcpenA9WDMPLAgeLkaXCsKw3lVaahfJzSq1457JvikRfh7AP7BqQlDg4kpqlL7i+UH0vikFceV3UR2h8gbznSgPaP7Xw/2Oamy3FhHT+JesrHP28bwjRHlnwI1z4L7avWicO26pjHJU/KVb3IiyXb1J/9BtLk6aCa30hDedRPqO6C6iS/nm1jRgrOM65DvhDDl814uRWxjVhGrPPVGr5ig4jnZVbi6JqR03VPH4A45zplYMCnjrnWEfhAXPJG7PMLsMSnbIQ9abhOicP1S/9AndRH5uWJyu2JzNw9uTHGDCMSXRIq6nzZlqjLBWPeMUuQKRwUTlw55Qlar1Yu6+SjmwMovpzSEU8DAfkLhVXmBaqTIJx4ucvTEJcy5BROmdzcJGar5QMK1zbxuDFKtJOP6qN9yx3xVbbi44ir+ELxdcMlnHJJx7r2hSX10jpo30jHjR9XCeHUXedEXpYc+SlPlsSRP+uguDlqH/y1z6o7aDkaUAfObdpI9Vb5qnfal9GrkpmgcN5xLQCCm+tY5yPnJ35Ml+E6xK2xxhpJrD/22GNpfjvnMdv8wCDr/H4JAp08EP58RlKDepa33XZb+jIOFnwNCiiLtAweWCceZeOn6xVH3ar1G/WMrvuFxULeGDMi6AahzhgLCy8tcXNgHiXbWF5kfcEPSw2fJ2OddOq8JVjp+Co7P8XDPxeM+OnGhJMfyzwcBxJ2lWE4/ED5UB/5K39gO0+v7UpXGQ7atzweTvGUpj8HxMvrJj/FkR9U7qvAL3dAXPZRaYBlflyAfPCjLbG84TiWOG74CHXlo7R5+3HzxqlOxFE9FAfkJwfKB0f5OCAfxQHW87ypi+KOFqoTrUb5aj9VU9vGjCScg/SvTJ/hSzV8UYbPP/LVGObH8zUaPg/Jt+T51WF+kRjBzZdmrrjiijR3njn0fI1m3XXXjQ033DBZ4unP+frMNddcE9dee236/CRxedEVC/9yyy2XBDvl00fwJRxetiUuAwDuA8zRp2zy4cs3+NGPjPa1OlIM5zXedMwxx3yrZ33MYSRnjBkZ6DjoCOmweVTKr73yKDWHjnW4oMOVIEPAP/DAA8kiw3eIWceqQ2etJe7RRx9Nji8UcHOhT8jFooQa67kDytN6r1AqthUflD73UxwGASyBtOQB5JvnTZgcfnkYsK48lZ/qI788vvJSWynPvD74KY7yIQ5LpVe+EqiV9VYaOVBaIFx5yFVCXOqQp8/XGZTxohyfsMNxrLkx8xk7XqZDpE+dOjXVkfxVJuCH0z4Cyzwe64RDXkctFZ86sWS72vkDhOXxqdtwQRnkLVjn2nv44YfSC4O8CMj84aYm9rUMRwAxrxhLJekbGziOZVvIVaM/f2MGg3MfgXzRRRel64p+mh9oUn/Mdcu5yNdptthii3R+ch3jENdc28Qnn5122ikJfvrsv//97+kewxQbBvDq07Hif+ADH0jfpqevoAyJdH70iXsB+ZGGPClffQjxyX+xxRZLg4/ROO8ZkNQDFvLGTBDoGEdTyFMeNweWdM5Yd/is2X333RcPPvhgWmJtyZeIv7vuuitZafhVWsSOHqeSD0jUcIORn8QZ5UnoKZy4ufjDX65yf/NtxYE8H0RfLl61zMvQUmUoLBeYoLhs535ygL+2lY9EPn4KV956JE0ched5C/KSv/YnJ49LPOLn5bNOHJXBzZ1zi+9JY6VjnUfuWO84ttyI+bVhjilWPcpUHbQkL+0X5H7alh/p5a/0CpMfTuCft5v8gHQS/MMBZZCnYD0X8ggZphfkQp42mT59CQt5M6owZYb7AdclxhP6D12bzJPffPPN0ycmOS9xiHOWQDzE/dZbbx2bbLJJygPo53kplrTkSR9OXptuumn6gg2DVq69dJ73XKfEwS277LIpH/KlLkzX4Sku/QtfyeHJgPq4kWakhLz6neHCQt6YCQKdx2gLefJjiUWF7xEj8Oi0saoANwLi0KEjsuisscBQTx7T0mlLyBOPtMozvwmwLmuu8tLNCCeUB451UD1zazB54IDyFUZciUHFVXptywmFAXFBeZGP4rMtR3ncrHCKh5PYxA+Ur+qqbfYdlI/KyPdRZZGWJX5Kz3qOthUfyBcI40bLAAzLHo/HGYhRFg4BT74MzDie3KRVJ+1Pnj9O4E95iks+bGv/lE51wZ/0xM39QPUmjfLlWLKOiB5OVGfBei7kaQuEfHNzIdYby3anDkssMT2mTp3Sczw4TtXPqZz+/I0ZDF0rPCHaYIMNYq211oo111wzuXXWWSc22mij5I8o5xonPtcvopxzmF9/JR6CHf3GNUec008/PVZfffXYe++905Qb8sVtttlmqT8lHvEZFDBnXuWSBrFO348j7XrrrZcGG3zeUn7qw0aaerHIN8ycOXN4hwYLwaKLLtqzZowZbhAXPMakk2Vqy/vf//7YZZddUhidLwxn50jny02CcrHK/u53v0tWeR7T0sFLNBIHsYXQwYLL3EtuGp/97Gd745GH4iO+mGtNnfVyFes4ykQ4ssRqxIABf/LGn5sI1iCWlEk5OPZb4lI3GZbE0cujQB0IIz35EkZnT/3wIz31A9bZN8rDAXEpj/iEkYb8EHHkl5fHNuCn/NkftQdzTFWW8iEuj6kJU76qE2Gsky/blKH9kRWYNmK/SUf91CZ5XVjHX36E84icn2zHGk9+WN0QqtyoqRtL5sXy1QrKUlragv0lD9LRTuQN1Ic65m2vOrIkH6bpkBZHPhxn1gnD5e1JevyoD+UTl/LZV/LBf7igfSkvbyOuvfPPPzf96A7TFBhIT5s2JRqTVb4hWS4Z6Cy1FJ/sI13hH+U0KTmhfCH3N2Z+4LrgGqAf5ZrCcd7qWuM8xnFd0nfhz3UqiEMehOsaw33uc59LRiI+X8nTJ90HuLaZNkMe8gP1M0B9CMPhR/n8ONWpp54aBx98cLzrXe9KWnE0znsMEsNNfu0OF7bIGzNBkHgZLYs8HbFAxPACFeXut99+aRCBFQZLEF9CYB3rDmmw3vPCK9Yg6sePlDA1hx8RYZ1w5lKyjkij30CMcSMhDnGZ68nNhQ6fOMy/ZNoO87e5MSDwKIN8NF+ffBlIkBZhR3rmdWJp5kdMSIuIpDxuPAhmrESkR8jyJAHHfFC2CSMONzZEGvXjKw6UwTHgJoEfUBb7zvEhDuHUlylI5En76YbJvlJH8tfTC+pLnfAnDftD2cxJpT1UpuqHIw77xI2T4057MCeVdGxrP1nXjZ11/IB0tCX1ZuoML6xRF6xzHDulQbxjaWNJWvxIx/Gjrkyr4vhwnNg3HOWQF3VnP9l/nI496xLhiHPyoz3JB6FAOSqLY8gxIj/82C/K4msc5E0bUZ4MSaxXMlThrHgsK+NR/iOPPJz2mUENVs1Jk8pvYgMDiXKOfM/gpPy5qHJ9gDKNWVA497iGgPOTbc41nb84XccyFrCOoQAUH0c/QDr86Eew4tN/M0jAXwNoIA/iqy/h+lVa/MgPuE5Zp08iDQYCngiQdn4gD5Wdr/eHyh9ui/xg5S4oFvLGTBDoROisR0vIgzouRBtfJWDJPEleWqIsOm5gnZsDwo0fHaF+zMtE8GDNP/nkk+OGG25Idddce7bJDxHLTYPOnbhYPBGqDBIQ0Ihbvpbw17/+NQly4q+wwgpJ9PNz5H/84x/T1xqY9sMSQYs1Ges300ROOumklB6hirimDbEwc2PBAv2b3/wmTSnJfwWRrzjwxQWEMuKMx8GUh1Xp/PPPTxam66+/Pgl+bhbsJ3lSV/I8/vjj47zzzktffSAeeSHwmT9K3cjr8ssvT3VC4DMIov9EJP7pT3+KE044IeXLwIOvUPAU5sILL0zrlI145skH9SU9VjP2mzIJY3DFDZN95BjhdAPnpsvNVjdTwjhmtDnHkZsv7Uh5HCuEMseB+fEsOScQ0NSfep5yyinpuJCe/acdKJv64//nP/85tTv1ou04vhx7RDsinjbhmPJljL/85S/pnJBQRtRzXCiHMjnu5E/dyZt2YaoLA0niw2DXwGDh7B9xFE9L6vLYY4+mQQ/nJsextbUlOrvKH7xikFZ+w7ulaOPOaGos58gXOfTmYcxIgdDmutC5K8f1jT9L+SmuwgTb9A9cTzgGxwwUiA+kpe+QWJfL8wddQ6Sj3+GaXXvttVMfwnWSxxWkyR3hXFcsVS/1XYpPGEYdPWnEAfFhuIX8SFHW1hhjRoi8w9V6vszDc+TPvHms4ohqRBcdOUKTGwRfweELCVicEdhYbhDPiDYEJSCCEa0MAhgoYKFF4BIXMYiARUBhSWYOJ3M+uXkgQhGA5I1QxqpMngjUE088MYlXRDqDEuZ1cjPSd5O56eDPzYw4lIuARmxiOWZeKMKR8jUwoc7sG5Zi8mH/EXzkxY0MIYvQxipN3bGuI9wR9YhxyuA9BMQ9YhFhDAzW2C8GbtQRoUt88mWKB2VQ5/xJB9vc8BgcUA/d7IA8aB/8icM6+SHY2R/SE5dymUdLu7PvDLI4RrQ/gxMGP9woqQftQbvgR1twvDlG7BODD9qNQQ/WPebSIhAQ9zoO1Jd60Bbkw7bEBjdvLPiy6uEoV+1MfbRvwwHtIpfT2Di3iJFoAOqJIwwBX8bpE07GjDQ61wZy/cVD+Mpx3dFfaeDOtsIq01XmlyM/0pMPxhquf7Yr44LiywHXWN53AU/yJNDpG4ir6xLoH0aC/HofbizkjTE1DR0rHTGdOIL0gx/8YHzhC1+Iww47LFlYEaCIOUQccRFxWHZxiDWs2ohAhCFCXI9rJfQQ1HvssUd89KMfTY51BCx5kn677bZLP11+1FFHxb777ptuUJrugqX9Qx/6UAonDOGK30EHHRSf/OQn05xO5j0jTC+44IJ0s2DeP/P///Ef/zG9o0CdscIjWBG61A9LM8L7ve99b8qDQQH1pUxuPppiw5I8Eak8zuapBzcp/MkXyzSPow855JD4yEc+kr4ugfWddqTe7BNTnRhwUCY3OQYU5MPgBwHNAAoxns9t5XhwY2adtuQmRThtjqX5fe97X9r/T3/602lgxAABKz3imylWCHkGaNTn4x//eHK77bZbypO2wpGXysDiTp1pi0984hNpfxD0CHHyk0in/UjHfugGznGnLJZQiuTyyQF1pr0YiAwH5CsHtAuO7cZCoLMvcilORVz2ATeSN31jhhudu8A1yzWm/pVtUPhA5NcA1y5Lrg/yIT+J7RxdP0J56JrmfkD/wPWuOuXXV3ltloMMlqrvcDLS17OFvDGmpkGA0YFjOUbQIkz5YRIEN5ZwwhGaWFbphCWSEG/MjcaKj0UHqy/Wcd1cFA/rLhZ+vojAJ9SwziOYEZ9M8UB4UyZlI7yJh2CkTG4SCErSIYYR0OSHWGYbEY/4pQ6If/zIA1HKPuy4446pbOqO5Z990Y0GCzf1wCrNUwbqilUKwU17EAfBqnnwiGSmJPH0gOkm3LSoC/vNoADLNyIbf9oBP9qPdkUo0ybcPKkrlv/f//738X//939pqg5Ti3giwH7nbYdTe2qAwVcmtt9++7SPfFuadfJHdFNHjgn7xaCH/d9hhx1im222ST8UQ50Q17Qt+8zNmAEL7ciAiuOA+Ccd+RPG0wcGcdyouYFTH9WPJe1P/WgvHOu0gR75a39GnrJ8iRMc5OuEp6nxxtQxOqd1Xg+V/tKxzXU6WH55eq4z0tAnYpjgySxGH/oUwoBwwI/+C/DjOqQvrBcs5I0xNQ0dK0Ic6zIWeNYRXqwjoum0mU6BZZXOWEIJP6y1+CEuicsjX8Lwo6NWfHXoiD78SItoRQRjYScNZSKSEd6AeMb6iyAkPXG4ASAOyUciEXGO0ER0Y/1nP9gHxC2CG0dapvhwQ2EdcY5AZR45U294OkB68k1irwfqirWJQQfil3x50RShTj7sI/VA/EusUgZ5SMgqHn60BeXIuk6dmKKDBZ2nBpRBOHkRl/JJj2Ob9wryF1t5ilJ+iWWp1J7cSHHkj5AnjHZgAMBUHNqXfGh/4gBtSFzy5WmI5sWzzf4i+KmnnrSwX7LcsV/4aT+pL/uvmzR569iNNHyJhrKpJ22du0pGoTrGDDuV5/NA53h/cC3Sv+iaJG2+Xpmf1iv9dW1jQGDK3t/+9rdkkODJIEYT+mT6AyB/pc3LGg6GK5+BsJA3xtQ0iFd17JWdO2EIP7ZZSigh6plOwxQNrNhYnlmShnhKkzv5IfJw3AQQgKyTp/wQiaoH6zjK1bxstokHyhfYB24cbLOufPJyyUNxEKQIXMQxQpi4iGqm0CCmgTgIXvYV8YvFHyGPwKUOyg8oA1Sm9gF/6oMjP8Q1TzuYusQ0Jqzg1I1BEfPcedJBGoli8qIsucr9pxwdP+KSl8qkPO0/KB2QD+GUoXxYap24rBNOnkJxcPjr2IHyYBtH2arTcJCXDZSHg+7ucuBDfThmDNZoSxxPZLAcMpWLdwyef15LO7vad5y3PGXDsV7pFFYtbaWrlh6nvAeKix8De5Z6X4Y+E2s8L8nzwYPjjjsufTyBDxJgVJBhguuU6zPvK+oFf0femAkCgoXOcLS+Iw+UCXwhhKkaPOI88sgj0/xpQdmUi7jhCyNYTrCYfPGLX0zTT+iAmd6BJZu0TNfAKovw4YsnxOdLOOwPHThfosFajvWdTnrPPfdM+WCVYdoIUzn4lj0C6re//W16QfPLX/5y8kcAkwdxeUETIU2ZvAiLoCYuL9fytResxx/72MdSGOXQrscee2yy/jP/nCkgpKfNeWmWmwdl/MM//EOa5oIQZaoJ6bjR7L777nHggQem+lM+TxCYN86TB6blYE2iXSgTcU270K60Hzci+s93v/vdqV6/+tWvkjWcueRMQ8GSzdx36sBXeoh39NFHJ8s29aDtmQ9PW7JNGG3KwARLvL76wvnCT6zzVIJ95rgRh/n0fF2GY8K8fvaDMjn+fGmG40Rb8HItQharGFZ75saznwh22pZ952VdBiRMteEm/POf/zz9KA3nDHViv7hB89Ix+WKt57vVPC3gaz/sP+3PlB6eKvBE4xe/+EUazDG/Xj8wQ3tSHtOneFeA6T1Q7RrQ9QEDXSN5PGD/Ff+FF56P8847N7Uxx596TprMQKYz1YdzmidAU6ZMLtI0RlMjTxEY2NSPoDAGql0vLCuvj2oQZyjp2VYYKF3uMPTwNJGX4jHq0FfRj9M30Zftv//+qU+mD+AaRMgTh3RAP7MwUIfRwBZ5Y0xNg4WEThaLC8KXL7XwuJSXQ5m3zXQVpr8g3OmE6TwR8liumWKCeCQOYhFHJ41YpdPGYi0LvoQp+WCVZqoHApfBBxZvhKzKZDoIgpAbAvmQJ2Ja+bKteeeUidjkZkG9mSajpwXcZBDpCGrEKpZ31Y901Js57Cx5ooA/dVYc2kQv5VJf8kAwy9qsm5NuKLQP9WSb9HJs40jHPjOYoa4ssRbTPqRFRJNeYDUnHfWjPagX9cFyz3QfpgexTh7cQBmU8P4Agw6OEYME2oFjyku1DFQ0HYclaDBE25MfbcfXiiiHMAQ6x4H64ZjKhFUOaxs3Yqb00AYs8ade7BsDOfzVTsOBxAVObYoDtTXtR3mcd7OLc46lzsPZs/u229vnpKWdXa278tztc/hxjudh9K95mv4c8ZQHTulzP65b5V/p8MfRD7AN6o/pJ7gn0P/QV9B/cf3T7+XXKev4LwzKbzSwRd6YCQId02ha5MlT+VZa5PliSy526DyrWeR5wRTLKY9DJVax4CJqEXRYbLG8HnrooUnwkp64WJfZ/vCHP5zK4jErlmjF59cB8cOCS5t8/vOfT5ZrxCP1wTqMVfzMM89M9UJYIlZpN8QhFn7KxBpP3bkhkBf7yIuv7CMCkxsK7Y6QJZx9oe7M78YfMcuNi8EG01iw1P7617+OP/zhD6k/ZP+x1FJvBD+CGms3Dos0302nrliV2E+mxCBwv/Od76QBCXXkGHPzQryqLYmH1Z0BBscBUct8fJ58UJaeTlAH8me/sRZj4eeJCAMObpLcDLkJYvlmUEJ7YRlHrLOfiGfyoy5Y8vfZZ5/kxycmebJBu7HPlMMAiXpQNtN6eAKDxVzHiEEA04aIyyCN9mDwwBeMGMhh+ecJC/mTJ3WgbpTP+cex5UkGAwrqzaCA6UKcT3xFiDaFXIhrW+vA9mDovOYYK7+XX34pLrigfDrBk5b0fsA03l0o5+hTL86LRRddpGiXlmhIdjZb5E3tk18fQJ8ockE8lGsH8ni6lnQdVZYl5K8ldeD6p5+kP8VYwBe06AN4okifS79IP0ca6skgW+KefoTBw4LSXz1HAv8glDETBDoWOieEFlMg+EIIwjhnqB3tUEDEqkNHiGEhBUQXlmM6TcQgcXCsUy+EI9ZoBDHiGSs8Ygyhg1UbUUynzL7w5RIEGIKaNIh9rK7kTUd9wAEHpCkM1AUhS8eOIEVEsa/kS7/DlA3KIg/8EXp08jjKYWCB6CYuQpZPNtJ+bJOGtiUv6kYaBCbCk3yoCw5hiwBG9LJPWLsR0og6HO1CPEQzVmNELW3BOi+0kh9TghiEUC4DEcpD8OLH1BzKYPoQ7cj+IAxJh/hlPxj8kC+DDOqopwa0D/tHuzJwIR7txT4xl5u6IcK5CbIP1JN9pj1Zl3VLN0VEOfvBcaedqDcDKI4fAxOWCGuOOWKacphqw37gmFpDPrQ7bcV+sJ+0GflSR/aBgQXnAO1B/TnHaBP2n/rTFgy8CGcQRNvTpuRLXrQJ+875QD3ZD9qDc4CbOXXQOSyGco3QLsQjPUvcW29xHpW/ust1x7Hil10FTxdol8mTuQ+SRiJ++K5JY0YCneO5y6nmNxDV0udLrqvBIC7XLn0F1z9THfksMP0LA32uNfos4uHox7SOo1/Hqr8gDKV+w0ldWeTnp3E4EMaYPhAmo2mR5/GnRBHiGksx4hMRjwiT2MlFIfVjqgVik44XYYj1FksyApl5zPQTCDI6WgQmeeGHKGT6C8IP8YZFFusuAwC2EankyzQWLDLUjycEdNYMBIiPmALqgzWG+iIGEYi0H3mRFuFHmdQfR3ymeyDSEKSIQsoR7BuWd+pHHEQnNxEGFYhURJ36P/KhXghPHQ/2lXwRuIhA6k692FfK5pOYWKu5YSHCsTazL9SVMhDsCHIENgM56ke7Iao5RuwrVm6OEceAmx/+HBvyIQ+OG4Mi/Ahjn2gTxC/1RBSTlnxwfEkGf+pAWgYU1IM0tDliGwGPY38Y1GAd19QbBDlWe55Q8ASEgQD7Sruwn7QFAzDqxzbnNO1GvkBcnYPUFaebNesIeQYRnEv8fgBPRDi+urkTB0gzv6hc6gDkR9ucf/656dOenJcc92mLTC1CS4sjZbNPWOQR8Y0N1MMWeWNyuFZ0XQ0E1y/XMtc3fQLXsYw16re4ToHrE5ev47hvzC9DqdtwYyFvzARhtIU8HSllImiweiIOEdsIFgQ64lEWUHWopEFwIvTodOmEEfJnnXVWEj5YYLGmIIpJh7hHyNFJsw/4Y70mP8pgTiTxEJmUR33o3BGw7Cv5UzfqhB8QRx059aEu5KvOn3gIRwk14hGmz0ciVgmnHFBeOOpAXiyBvHCqP3nSTuRF2aTBj7zIk7jsL+URj30lDlNXKBfYV8QueeJHfOLQ9uwLeWONor8lH/JnSb0Ip27sB5BO7YUFnTroXCGN9l9tQTryyfeROpCWG6j2k7Q46kl98aOexKWNgUEU02V+8IMfpG/584NWDGY4tuRDnhw38iGN2o28qA/xaEPqTBxgSX2BAQ1Tdxi88HLsEUcckfJkf4mjNNo3ofQDQdl5OtLkQp5v4jPAyYU8x1BCvkjhl12NqUJ+LfYHceh/uPZBfSn9Bv0g1yd9WuV1LaftehHycz8zNMaYYYIOTQ4Rh3jESk0HSsdKpyrUgdLxYp1WPEAcIqoQRgg9wrAQY7lFyJE/aSVcGQAQRj6EkZa82EYIIpgQfsRnmghTNhCR5K9OXOkQdcSnTOKxD7oBcDMA0pCWQQPxEIPkr33KHWkZfJAXZVNfypDoo0wENpZv5vhrP4mvQQv5qF6E4SiTtNSJddqgnKZRxidv0lBH8iRtLjTVtrQPZfPEAcs/dVBbkp7jpnai/XQM8Scv9pu8lQ9lsZ86loqn9mBf2Tes9ZTB8Sd/wf4QD9gX9on6YL3XQER1YOBGPpSpsqm/2jJfZ//Ihzalzgw82D+VNdJQb9pB7d9H3zVjjJkX9R0DOfoQrmtdS/QRXN+67tiuTDMcjNV1W1dCvrLhB3LGmLGHDlPCTJ0q4gxBR8cqiIOjo8WBRBriE1GJSKZz1iCA65z8cuGHH9uEgzpu/Fgqb/UR5KU0hLOed/KAPw7kB1onT9JTN9VF+bCPLPHHT3nl+WmdOOSl/PK0UC2t0isdkAYHik8e8lN+QHottQ6sK03uD5RDnoqjcPmDytX2QJAel8cnX/Yfsc60HMS+9pE6EaayVX6eD6j+oLQqg8EheSDmeQEOQV9tX0eSVM+eui4M2m87O7s+R38M6g9A/hiWKv3ltF1P9PXoxhgzjKhjRFDRaSKkcn91pCyJo3WcwrHCMv+bqRXMkcbSq3QMCHAIMuKDyhOV+SLcqQf+OE0hYR1/WYzZlrCrFIFAmG4U1EGQXmXm6SrXWZIHcZWn1jXQYV37U+kgzwtoB25QgB9O8ckHpzSQt1W+rvyE4lNfnPKWk7/2B8gP8rwUR2Gql8jzBI49L+QyBUxfm1F6xWGfVT9gXW2ifcrzVXk8XufJBV8F4sVlXpjN6was52UNJ5V5qixjzMLD9UUfCvQRXNu65ugTcArXtbew199I9BNDpex16wQaaqjOGDO26DrMr0c6VQSwBJhEV37dEq4pFqwzJ54vxeh78PgDaRHiSqeOmG3lq05b63lYJXTsmj9JeN6x5/FZzx35CU0DwpEfTttyIk/PErjhaDsPh2r7R/zcEUfp2FZbyQ80ABHklZep8kB+ckCeeTk4tuWvONXi4chfbcO2yOMTxqBEX8vhZVcGcfgRj2PEsaokb4e8bLWFljim8iDg+WIQLwoTlqN9GVF66jmv6wk3xsyFrumBHMhIA/jR76h/BvoY4HoTuv7mF5U5VtSVkAcOwmDOGFNbqINUh8d6bsnmulWYBBUdLYIfxxxrLLRAOtKzzbxuCUAgD8LpsPNOmziQxwPyhnwboUt8+bEuAQiVfU2lMAbyQXQSRlrtBy6vLxCubdbZL+LhRxuwH+wT6zitU7/cUR/FUd1B/rkfVNsmnuJr/4AwOdA+EKeyPvjhFDdPl69XQ22dtxPTa/L3DkivOFpXvmpHbYPqVnlOqK2VN9tKn5PnNdxQnvazdH3rxpgFB2MQ1zRw/XJNsc31Blz7c1979XvN1Z2QV6c6kDPGjD25MNIyF1J0tBJs6lBzEGD4EU/iFtQRKz4vKipPIJ5EdJ4ncUgrf5zyJAz/PA19iUSgUB44+etmAdQz366G8gXtN9t8ZUF5Ug6OMOqkfSZv6owf68QnntIRD3/FB6XBT/4S32oD7bPyrkyPUz1zSzjx8JcD6oJTeXleoPrk5YL2WftCPOoi2Baky/PlvFI6UB2IRzmQ58Vx4rwijo6FMWZ8wfVNf0X/AOoLuObpa4aDvN8ZK+buYWsMGojGptG58eD4XBmfBNLNBD8dJD0W5xNkfDeUGzx5yJGXbvpsc+MkDdukYx3//KagPEE3McXjU20SJqoH/sTTTZk4Sm/MRELiTg7hJZFYGabwXKxpGgVh+LNOR4x/nk7TcCD3xyk9sK7tSlfpDywpV9ugPHCEVYYrfe5XCWFKJ8e29gvycvBTeXma3D+PO5gD2rFafrkjP8j9SJcLYvxUvuKwXS1vxa/moL990M1X21pXXMgHH3lYpcvPKRz1xE/p5HKq+fUHfT4ur1sO+8L9gfBUbs/9QvcWfbKzq0v3rbRpjFkAuAbpGyrvO+qzFhau0VqgpoV8JQhmvit80kkn9f5oDH4cJJYcHDrCSy65JP1UOt8Jllino0RUE1cdLMtqB1MHhzSC/ImrGyBh5MW68gcNKshbcYbjhDGm3lEnquuvkjyMpTpebecuR/Eqw3K/3FWjMiyPn4f15z8/VKbVeuV+DOTEQGH9US1+vg6V4aBt9Wd5HFylX05//jnV4lT65du566/t+ksjWM/Ps0ryNHJDob80Wu/171nm9W/smV6To7BqzpiJRLVrYCDHtZVf45Xh44G6E/L8wiM/4nHllVemn2PXgcDqjQDnFxP5wZsTTjgh/Qw3aRRH1hgENg4RjhOE5UvSIdzJA4Eusc42jrTEJQ6O+NSBJWFY/1lXfsYYYwz3j/Je0ScsuE9oHWeMqV1qxRoPdacw+flxptbccccd6Se26fwk1rG48xPdTz31VDzxxBNpeg0CnzBEOOEIfX5JEGs+v+rIVB0NAoiD+CaMtPzCJGES4sRhm6k7pOUnxPn1QfxA4h7yTtkYY4wRMiZJ0OewXUsiwRgzN7V2fdadkEcg89PWiHlEOdNa6AzxR1xfe+216cdj+JoFHSUiG7H+5JNPJis+025uvPHGuP766+PSSy9NP1WPwOfAkP7OO++M6667Lq666qq44YYb4umnn055yDJPufiTB/HI5/HHH08/lU4eCHkdZJ4AqLM2xhhjgHtE7vootnt+3dUYY4ZC3Ql5BDo/EINIxvKOsEbEI5ixot93332x+eab9/4EOf7EQ7SfccYZcdNNN8XFF18cV199dfz5z39Oohyhz9QZBPlZZ50Vl19+eRL9OIl55tqTPwKe6T0MGMjjiiuuSKKfOHS+Eu2sI+qrWVyMMcYYY0x9UYt6ru6EPNZxfshj5ZVXjhdffDFNtWH6yltvvRWPPfZYauTVV189fRuYdU23ueCCC9IvA/KjMiuttFKsssoq8eyzz6bpOUynee655+Lmm2+OBx98MMVbc801Y9q0aXHLLbek9JTFy7PnnHNOmnpDOHnwRACrvF6sZUDAAIKyEfEMODTdxhhjjOGeIMf9oo/yZde5/YwxtUCtGmXrrrdAmNP5bbrppknUI7yxqDNvHSHOLwEi8rHIY41HdPPSK/PZP/jBD8aRRx4Zn/vc59ISUY+Fn0EAc+6xsuP34Q9/OI466qh497vfncQ8c+UR+lj7WSf8Ix/5SHzqU5+K97znPUmsI+SxyjMFh4MtZ4wxxuRIwHOLyO8XuTPGmKFQl8N+Pum4wQYbJJGNwEZc8wIrYpyf2l5iiSWS4Ccegh5hv84666SO8+GHH07z5XkZFgHPvHg6TazpiP299947VlxxxZSeKTz77rtvKosBAXPyyWuPPfZIL7nCrrvumsok7N57701++bfqjTHGmKr0iHbuF3qfqqvb9w5jao1avibrQsgzdQYRjsOCzvayyy4bSy21VBLUt99+e5rfjpjfeuute63iwDSZHXbYIbbddts0T5757ccee2wcf/zx6Vv0CHbi04myzo/LMF1GP9+LSN94443Tz4TrpVfi8JPx1IOOV788iZWFOAwKiIezoDejAecY07o4//LzjfXBnMjXjTELDtei+n5dV42N5f2C+wJwrRY3kd77G4Ynnu4CcY0xtUGt3xtrWsjTwVU6xDaiG+G89tprp87vmmuuSV+fWW211ZI1nc4QcS1RgxWdOe1YzZlHTxqJbKz6bNORMq8e6z5p1dkydYcpNYhzxLx+WRYhj+BnmwGEOmLlSV2pJ0tjRoO+x/Wlha/WOx9jJgq6D3BNzrVeLLXN0gLeGDO/1N3UGgQ2AhmRjnBnGs3dd9+dvkyD5R2LPYJajynpHBHcWO6ZHsOLsLvttlvstddesfzyyyfRTzxE/DLLLJO+SsMLtIj+Rx99NL3IipBHJBHOZyaJwxdseAGW6TzExfJPOOVJ0CP+847bmJGEcw0nEa+lzz9jRgeuNblKikux97rUtTmQM8aMPfVwLdadkEdwq5NEOC+99NJJoGMl33LLLZOlHJEvCznwEirTbzggO++8c3qhlbhMzxEMCpgTjzA/99xz0/fmsfQj2LGwY9XnCcD06dPTV2z0iUo+T8ljVObgkweCn3LwM2Y0UYeTCwn8EA39iQtjzPBTea1xHc6f60lojBkzuBbrgboS8nSO/BjUcsstlyzvWOOxsDNthk9SIqQR8ljjeUEVizsiBqGPuF9//fWTw3qO0CcvBgPkRR7bb799Ghgw354XV1944YUUhznyfLKSL+LsuOOOaYDAUwAcB3qTTTaJzTbbLKUlX8rHnyk61LleTgZT33Du4RhMSkhw/nPuc07ijDEjD9dfpZg3xpiRoOmYY475Vs/6mIPwHQgEMSIFy/mMGTNSfIQ7AhqRjaAmDo4XYbGSY01nG/FPOMIdscPcds2zR/ATjy/ckI4lfmuttVbvd+cpl/JWWGGFNGjgyQAWfX58ijjEJ45A7Ms6707djAacYzr/EfA58uOLSnwqlSdNDGr5FeT83PR5aszCo6dggnXepXr44YfS55B5l4v7SGtrS2887kelHy+88j15BuSNKdzXpTGjD9dsPdAwc+bMmjEX8zJpJQgQoXU6NT4dyXx5Oj9BOFNa9OY/5IKGdISTLu8csVgST/6IfKz06oyVLzBwyOskmIePP/UhHetKy8BBZRkzknAu61xlIInj3NO5yFOm008/Pb0c/v73vz922WWX3jCdq8aYhYNrUIYc4Lrinarzzz83Td3cZptt0lPgRRaZGg2N5fWHAWmttfBbpEzTgMjvu36NMaML12w9UHd3bXWMiPX8xVf8JWAE/pXIaq40ODpZzaeHyk6TcAR6PmigLP2Sq6Ys5OlUL2NGE85vzlPOWazv/FAaX2LiXDXGjD0W5saY4aTuhDwdIKIEoYKQZ4kfojkX4yJ/xEkchI7Sgiz2xFFeCCENCtiWIz2fvwTKYjDBUoMB8iSd6oLD35iRhvOYx4Aa6PJeCO9w8NL2eeedF1dccUXa9jx5Y0YOGYd0HeYUt5C57ieDOWOMGQo1NbWGR4q52GadDhGBjHjnm+50cPjlnZ06TtIgaCSeKztTxclRnMqOUwOA3J+4+MuqL4ZSjjEjCeecRDrn57PPPpu+qHTbbbclgc/cW17yZk48n1cl7sc+9rH0y8Sk5TxnyRQxvaRtjJk/dC/QfYglcD3xmP7iiy+MM844I7bbbrv0XtekSS1pag0wtTR9uGH69CjuaIVPUzTgKu5DxpjRoV6m1tSckJeAphPUvHOECd9v55dYPUXAmHnhOuEJEINfBr7PP/98XHXVVckSj6jnKRMCnRfDeWq0yiqrxBe/+MX0mwqIeq43rjPWWVo4GDP/SMgD15CEPCAKLrnkovSOCr80vt5668XkKa29Rh+EPF9hmzFjyeI6LAYCDbyzZSFvzFhhIb8A0JEhROjYcAgOWcB5AZVfZWXdGDM3CAgcQhwh/9xzz8Wll14aF1xwQTz55JPpU618ZYnfQcBCz1eWPv3pT6ffVcgHz+Rh4WDMgjFUIb/11lunr0ZNnTo5GpvK+x1fTuMTyksuOb24DxbXcVNrkYeFvDFjhYX8AoCQx+KOWMfRCdIx0skh8Jn3y9dk3KkZMzdcJ1wjwPXCrw1jjcfxsiufUuW3FRALPNliYHzooYem30UgPteUBgK2yBuzYCyMkOeJNFPfLOSNqQ0s5BcAhDxf2pCQh7xjlOXQGDMvuSDnl475UTOeYmGh5/cSEPNMUePlV9432X///ZNFnnCuN9JxjSkfY8z8MVQhz+cnmVozBSHfWD4NQ8hjkWdqDUK+qdGfnzRmLLGQXwAQ8kynodOiYwOsjHSGEvfu1IyZF4lwYInFnSk0WNj57QNEAtfP008/Heecc04S8gceeGDstNNOvddWjq8xY+afoQp5XnZFyPOyaxSXGnG5Rvkl8aWXWiq6Uj7FgNovuxozZtSLkK+pT6vQCWIdxCHkcRLvYEuhMf3D9cM1wkuvDIr5NWN+lZhfQcaPQTIvvHJ9seTzqfo9BshFhzFmjKkZE5sxppapKSGP9bAShEkuNowxQwNhjnjn60882ULMA++hzJw5M01jy8U715oxZuRh0C3rvSzuuZEqt+wbY8xA1NSdG1GhDox1iQyWCBF1fnZ2dnM7kBBHvDMoRhhUPuGSHxZ5/WAZcRH3CP5KQWGMGX5673XFtaZrU9dnV3dXVaOWMcZUo6aEPAJDIiIXFHRwlXN4jTFzo2tGc95zgaApanLy1zrXnq8xY4aHagNtrjUJdPzYBhmttA26FivzEP35G2MmHjUl5CUsgGXuFGZnZ9e/g1ykA0u2hfwF2xL/xpgFh2up8vqC3L9yiRhXOK5PnFukG2MGp6aEvDHGGDNRQMrnIh7x3mdtT1GMMaZf6Css5I0xxphRZG7xXiIB37PVszTGmOqov7CQN8YYY0YRTX/jNszNWPPku7ok4AuB36fxjTGmXyzkjTHGmFEkt8ZLyMu6hn96Od1K3hjTD31P7yzkjTHGmFGFm7BcTu9Mm+Q9d5gxxkBlv2Ehb4wxxowimkoj+r40Vd6SC4mflsYYMxgW8saYBQQhguBgma9XW1b6maFTrT3z5UBhLIebgcoaKGyocQYKG844Wh8N+srCmsYPHHZ2diR/BLw+/8q0Goxt5VSbFN0YY3qptMaDhbwxEwj9QnJ/EIbjh2v0C7GAsCBtH4iS4XBWKwND+1RrtwVxw8Fw1qfW3MDo2qi8ftiWhb0U4F0xZ87sYr0jTZVJ02UKvyIgOoprirIa0xSarjQLvhHxXlxnHe1zoquzvUxDsDHGZFT2PcJC3pgJRPn4vpQJEiBCQkTiPX8hD38NAkqXvAvyjkXr1ZaVfpSrdTM0Ktswb7/+wljm8YaTgcoaaDlYHBiNOFofXMQPBV0b5FsKdSj8ujp7rrMyrClZ4MtXWeXKa5Hrrkyb/Huuv/w6FP35G2MmHhbyxkwgmpub+735lyKkXEokIOrntsQrnkSQMUYkQV5cM1xn6fOSxbauJ2gsVLquLVxfOOIcx0C771o0xhgYqE+wkDdmAiHhIEu8xPqcOXNi9uzZaakOgyXbCHnN41X6ErqPhXHVBxSmEtqpWvsN1Q13Oy9sfWrRDR/piZauq+KaYopaF9dNEabrrfLJGOv44WjfvmvMGDPRGaw/GN4ezBhT08wtxMspM7NmzYpXX301nn/++eRmzpyZxAbCvRQWJaxLdPR1HblI1Hq1ZaUf6UvRYgaiWttVLmGgOGrr4YD8BiproDAtB4sDoxFH68PZPuU1xnX1ZnEdcT298MIL8fprrxWifk66diTaJeRFKeTn9jPGmMEYvt7LGFPzSDxISGCFR8Q/8cQT8eCDD8YDDzwQjzzySLzzzjvJYZFH1CcrY4GWJXQf5CchpPVqy0o/M3SqtWe+HCiM5XAzUFkDhQ01zkBhwxlH68MH11TrpEnRXlw3jz/+eLqe7rrrrrR8/fXXksifNKk1xc0H1MB2pZ8xZmIzlD5heHsxY0xNgxDXtBpgva2tLd58883ksM4j6hEfl19+eVx99dVx5513xjPPPJPEP3N/jTEDwwD5lVdeibfffjveeuuttN7WNrvn+qsu2Esh37NhjJnwDHVgbyFvzAQC4Z4LeYFAX2SRRWKppZZKwoPpAA899FA89thjybL43HPPJWuj3PBCfezmdcOt6sivWjnz48YzC98+3d2dyRqvLzxNnz49Fltssd4bMvPlEfkKB64n1strs/xyzfBfY8aY8YqFvDETCAS7fngGEA+aLjNp0qQk5plOM3ny5FhmmWVipZVWikUXXTRNs0GAKK6FxmggYVlL1Fp9ao9yrnt5a506dWq0tLSka6cU6X3CHcd62uZfj5hH3/v6MmZio4H+ULCQN2YCIYs8Yl4gOhDvL7/8cppCgwWR7ddffz29+IoVkfgssdYz/aa9vSM6OsgL8UG+ONb7tumHKl01qA8WSgYJEjisl9MQEDZ9Iqea6y9M6SrT95c3dZCf4lY6wkibx62ML7/c5eHVXP/x2a5sX7myTbXNumCb49PZqTyI07fveRtUcwPFK/PsKaiAddWB9bJOXYV4Lb+AhF95rpTpStcXH0caOYVTjuqPIwzKOH3h86ad1w0UPnd7l67avuvYyEEeBghwbXPN8GSLd1AYJBeh6VpD2CteDvFbW8v586WOn7c80Z+/Mab+md/r2kLemAlEsv71CABECsICKzxO89+xwkvcE4+wxRdfPAl5LPPkUQocHHkhXBA08wqiMs68wlCOX8BkSTnEywU92+nTfcVSdS7zLJ38BvLPHWF52TilqfSrlh6n+HL9xanmL1ctfe6X+5eObfwVLy+jXPal7YujsL7wufdd+4rTtuL35xDO5THC9aXr6Cidtjs7+XRpe5EGsSs/4jMALNOWeWrf+tzc9c73dW7Xt6+VaXNH3MrjXp5jfU5p5y2j0ikN8efOo8+/obh2EORLLLFEEu080Vp++eVj6tQp6foiDqKd/PLrkXWuu+7euqToxpgJBNf+/NIwc+bMmuku6PCMMSMDAuLFF1+Mk046Kc1/32effWLHHXdMHQcv42GBx3KIe/bZZ5Njes2KK66YptrgmCKAKGEJCA+sh/Q9Zf+DlbGcFoAwKXzTdtk55etl2Jw5bYXoaYmmYhBB/fgxncamxmhsaIzOYhvR1dzcUv6MfVnAPFAOabUu8nUgveIB4YguQDwRxjZlQUqP6ylX5fNNcGDfVa/KulUrO4ftVH5P+mrw40A9a0WcntWeNiyXtH0p+JRHWW4ZxlL1mEvcJp8ybgov0qo+7FNPYLkoXIrfkz8CnXZK+97IUx22y/yhN88iJYO0adMWKYR7e5GONJyDZVkIWdIrXVmKSlO7yB/w64tThhGnOGapvL6wMm6xSNtlnLJ9lE5xS5Reu54o/JRbT6KUB2Kd+Gon2kJtnyjCmor94jx+6aWX0suu7CtTbNraZsWVV14Rl112WWy//XaxxhprFO0zLSUrWrEQ/ovHWmutFYsUbZbq14DlvpwGJyfyMnN/Y8zwwf1ytJmrPxkiFvLGTBAQHYjzk08+OW677bbYdNNNY/PNN0/WQ6zvOCyIgAhhWg0v682YMSOJBcKxkLNdWuZ7hGLxHz2GSCv+Fq4UFlj4Jb7onNRB9XVUTP/oSEK+obG08hNGOpZsy3KZYvemmxvqIIGei5rBBA7hikPeuShTGIINv9wpXGIOP5Uv8rxB6QTbpCfOPGKwoDf/7qLtiu0UnKLwh3yLJb8CWixTUI9ABopFJLNM+fckZrtPOJdhuMr6y19O9SObMivVHSFPGF5l2aB0HL+pU6f1zg/P82puJm1jUbei3JSe8sv2Sun5BdS0VZSQCkhrhZNvWQYB5XmHK7b5n8pPMdJ6WfcsTu8SyvXUisRJ6ctBmtL27T9x+8JwlWHQ3RnpOuJ6IZx4MHPmG3HXXXfGPffcE7vuukusuuqqMWXKlJ7w7lhiuoW8MbXEaAv5/LqeHyzkjZkgICromM4444y46KKLeoTW1LQERDNxENcSKIjqUpCXooWwUnQVwrDQmRIRCMkyTY/YKv63trSmOEkj8S8JHjqrUrxBUyHoKBexx9x74mD5RyyRH/XL61MN1U3roj+Bo3wIT2K5gPR5GQrDlfXuE3SE5WnzMEFYXn4eBmwrjsrOUdlA3JQ8ZcEf8i2WFUIeUUzTYihvauQpB0KU/Dm+KXFvPbQP1crHT3XLwyv3j6cm5EvS4m/yL1IUaVgrwpuwTrfEm2/NTMW38v30Ykk9W9Jgrci7UL3l6VDUsdhm18rym4r8C6+B4jCQKAaKnR09+0d79IT1uuIfLcQTlxSnTMzftFUUwN8yTs+62p70+FW2j8Khsl2gMZrSOcx1Q3hHcf4yAG5vnxNvv/1W+tzroYd+IFZbbbXe+fLF/5i+5BKx5pprpqls5FIcxeTy/RF5mbm/MWb4GE0hX9mPzA8W8sZMEOgosKTzg0/33ntvEs8SKrKCM73m6aefTtuy1CNEENuyjr/99psxaXJrsY24KMWT5isjiYSswvRPpJMjTloUkCflqFzEPNN5ll122SRQJKigTDsvhFcLqxQ41C8XXsofFIYfdVJYnncepzJcgyGhOKK/+il9tXopPQOfMqgyD9ITXsYp86BNCynZ1FzkQd599c7rqLJxCgfKlQPC8/r1xSNtKeRVfklZJ8KwuvPt9GeffSadT0suOSMda/JhmzK0b+VgQ/WSkM73jXL6yqD8cmoObd/R65/vF+lVf4T03HGUd/Eng7Cy7DIe4Tjtv+LIyT/Pp6ujHKRxHtHmXD8sqfO0aVPTdJrVV18tnedlGxRpi/pMn7544b/6XEK+oaEcRMuJvLzc3xgzfFjILwAW8saMHHQUiHdu/AgbCQCEBu6NN95I34xH7EOvyOihXO8RVA1MlSjjsCSoFDUI3VLgNTaWU2uUBenLdQRZKRQROJMnT0ki/uabb05z9TfccMPYZpttkrVS8/Y1iKgG+1EZVilu2Kassg5lXPyoP1B3nPxYyil+nhaIpzbqT+jl8SHfJhzwq4zXlwfhfXkXW4UjHcuy7YHyFYZfOSUjBRWUgpN56oK8K/cd8n0Hlqpf6RQPh8WYfS/rCEpbiuyueOaZZ+Oee+6KqVMXibXWWjP9TgHHshxk4Mp05bKvzNKxlYt9BLvCVH+EPGnVHmoDpS/L0L5r4El43z6loB768p87Tl8k/PO2qwybNmWR3uuMcMXnGps0qSWtM1+e+x3nJI5dR8hjpWe6DfvS3DypSGshb8xYMVpCPr+eFwQLeWMmCBIk3Ph7BUSBRALWd+bQP//880noEy7rtNIiTJqbG6O9o63wL196REfQD5VTlXsEWfG/qUfIiyIH/qQ1hArwWULyveuuu+OKKy5PgwlewN1jjz0KQTO12H69EPRY/wcT8qVQK2F/yqUo61im15J0uSCTmMW/L48+ymR9oo60OLb75mmDhJfSQLmiPERZd9b6/EpUPv60XLHsjUdAsUSUlp6pfMZPRare4JSmgCkolNFXl7J+iGnWy30vBzlqjzKT4m+xyOtXtnMRr9DwaWpLsU6zFX9TOOXLWt5WiNnbb7s9rr76qlh88SVi2223jjXXXLsYuPEpRvJSW/ZUuHdJucV6ce40RDkgIFoqoxD/REv1Lxsoa3ulL9uuDC7P3d72Kf6Qrmz3wp+8ybZIVg5ARZlHql5PnUTZdn3nTbkPJeTR3NiSniwRp7xeyqcPTKnhKRbXFU8rsMxrEE1ZzJHHIm8hb0xtMBpCPr+WF5S85zLGjHPUaSAwEACldbQQ5oVwxxLPVzYIy4WKRL/ENMID/+J/4RBjpeBBTpSCo1zO/dnBIj6uiF+mK4UzVne+Tf/000+lb9jPnPlm8P1x6oEYIpypIn1iimXuqlOtb8SvLL901bbL+rMnpcjMHX6EsU7d8zDtc+lYT0UWlOkUr9zuQ359aSvLT9Eqk5X0BLIgSWltRtzT9kUdO4v0SaSWeZVtrnzLvPvCyIuyyYNl3z6U631hOnaDudmz29Kg8KGH+YXgR9PTFvzSudDT3kL7jYNUt966J6+0XwSnGKnupUt+KW3fEv+iCqmc0hVl9p6Dmcu2e9uvJw/oy7MM681rAMc5T5ry3O0bCLNkahFPmKgf7VB+srMcqBTDg+R4ksUgGB9jjBkMC3ljJhCICUCoS2DgAAEiKyJOcRUuMQJYXHGIG7qRPhGEX+FS10JcLcv1vnil01OARx5+NF588aU0mJj5xpvFwKKjKLAUpCyJm/Io1pPA6yrzlPgpy5HrKa+IK9cbv8gHSzKur459/uU2lP7zuuIvcdO+l9uVcfr8oc9vIJfHqYxfbquufcvSr2+Z9rPH4Sen+Gmf8evJo2zHYhUfjif7n9qLvKq5Mp8kTotlWRbpC1K6crujEKZvvvl2Id4fj/vuuz+ef+7lYqD2XDz00CPx8suvpGOKgCWPhmguHO2eL8t1lmmeeK9TmOLKEW9u15emdCleNwPR4vzubCzO9eLcKpbdhR/+ZXi5D/3te2pX2q7Y5nxK5xRhqT17XBGHU7axiXoUsVlyDArX1NxSLPuuGz7lSXsRn7TdRR3aO7jGeB+ltOL3nQPGmPGG7q0Li6fWGDNBqOw0Onos6wgGwrCMMyf9ySef7BXyuYggTplHITbQJtm0mQWlbVZbXH/DDXHuOefGffffn/qArbbcKg4++P2x2mqrF4J+dvAdeb7vTp3KzyyiPhFJpbCijknwD4HBRBFfSEn7V0SrjKv9r2yXBUV59LVrH3kZavOKKEV4+lu4ecPmIQnOMr++qs+btm//ejyyOKkexTEvdHxaz+tVrpdLjhPnEVNqzjvv/HjiiaeL4zot1ltvnfTbBdtss236qgsCG3GsdCIvP/NeCEqrfN6mLPM6Vy9/7n3HycLeH2W8no1+4ZorXx6nrXgaxvQbfnSNl7z55CvbiPmByjLGjCwjObUm73MWFgt5YyYIEiOlUCnn6uZCnqksiPnnnnsubeMvq6DSkoZl+cWaItOF1Bmvv/Z6XHDBhXHWWWelH6lC4G2wwQbxwQ9+MM2V11dOcEnIF0uh/cAVQUOCuANRfgGlGMQ0FjKTfe9pm+JP+oEqtRduYUl1L5Z8Jz3tW89OpB+lwvXUlfB8v3PIo7+wXpI1mZWyrVR3pVW7yhGOyMzjlMe9qF8h5JvTZy37bkTlkrRpK/hFV6ZKcUwvuOCCePXV19O87xVWWD723PNdsd9++6VBWkd7KbBJTx0gtUnhVL78Fwbyx2nfcaxrv1lqXWWrHpXh+lxkfyj+YJAP9SCuXjxnzjwinq/WEDZYWcaYkWWkhDz9xHBiIW/MBEEio1LIANsICr62wUt5bCNoJGqUFis+66WQX3iRcf/998d5550XF110cTzxxJNJuK+99ppx2GGHxb777pt+5p5yVVfVF1R+Wb/hETylkO8TsyxVbv4EA7ew5MdBgyr5q2zQvldDx2YwSsHclzfpVLbKVz7EwSKcxynrx9zv4tg3l/VS/Mol7zfwo0cc1yuuuCJeeeW15L/00kvF7rvvFvvvv39svPEmMal1cpFveV6RP1CezjuQ/8JA/hLLynvu/SrbV/56OZV1/ImDYx2/wVDagSBc+VM3lpz7DHiYQ684xpixw0J+AbCQN2bkoPNAtEhosC4Rgx/kwok4uaBR3BJETc/qQpBehnzooSToWccKySf4+MVZvuBRTjEoRR1l95XfJ3TK+g2P6NFXWYB9x6lc9l+o7IWBPHBzt2sJ/jomlfudU+579bBK1EY6pio73y9RPU55zHlaUcjjucrN1xGmvNj6xBNPpM+K3nfffSm/FVZYIT1tWXfddWPGkksVaXqmS1Wpv8qvVrf5hfy1L7nDXy4vhzCVrzCWIP/+UH6DoUED6JpTuTkDlWWMGVlGQsgPpX+YXyzkjZkgSGQgDnAIFImU3E9xB2bhBRZIGL3wwgtJ+FEuAn7ppZdOFnDVC9dfnQgr/va4/hl8n4A4NdMlJgbf96Gx8IMdDd6KulS8H5HXT+cVdUPUX3vttWmdXy1FzDNY40stjQ0tPSlGnlwg53VV++E32PlB3MHae7A8cnTu65pjHT/VReHGmLFhuIX8/PQP84OFvDEThLwTkYDAyV+iQQJCgkLg1ycshkfIM5UHqztfrmE6Bl+x2WKLLdKvXlK25hIPDvUaDtHTN5DJ9x3m3v+FR21fTbDhLzEscVeN+atPn0jMqdyvgePgTxtVr49Q+s6uzjj//PPTMd5oo42SkG9soB7sf58Fulr5OD2NWRiUF+TnO1Cu2l91yOODwvAj/UAQJ7e2V4M4muojB/k6caqdF8aY0cNCfgGwkDdm5KEzyTuUfF1iojKOyIXG8FCKVSzyDz74YMp3s802S30BUw4Ik9gbGOo9cLyh1Hnu/auM39c2w0FfGWW+edmVYf2VmacbiKHWebCyqFM5/aiPyvIJL+eU81Jnc3rhtbV1Umy44QYxY8aM0hpfHFO+ly60H337XlKZ94Kic6javqkMhfUXR/UbDsgn37f+9rM/f2PMyDOcQn64+o5qDOUOaYwZR1Ra4UtR1fc1D8F6pRPVwhbEUSbWSV6wBSzwAsumBJjI0+bk/gvjRLlNe+SuDM/jL4wr27y69bYML/c/T7OgDiQeq7n8JlMtHCeqhc3tyv0qLdP8VkB7etJSfgKyPM90bJUmh+2ybYZn33Hsn/ZfeSt/hYk8nRzkcQajWh65q9w3UD1UjvyNMfXN/PQdC4KFvDETjFxAVDrBei545PK41cLn1+VlMsBgXnxuiR+qk9AeyFVLV+kGizs/ec2vW9C8lW4gl8fN0+Z+lXErXX/h8s/DJdS5geEngYofgzWF505ph9vldatGHo4bLI/hcpUMFGaMqU9GWsSDhbwxE4xcnFQymJgYLHxBQNjx6T3qpE6vsn7VypRf6Xo8F5Jq5eQMFr4gKM9Kl1MtHDdUiDvQMR/onBCEDRTeHxzb/HOWeR65X+6Gk4HyrgyrDBfV4g3khkK1dLkzxpihYCFvjDHGGGPMMDIa1niwkDfGGDNEsBRz2xgOZ4wx45PREvHg3tQYM4bQBXkagTHGGLMgWMgbY4wxxhgzDIymNR4s5I0xxhhjjFlIRlvEg4W8MWbBoL9aWFeLVKtnvTtjjDEjyliIeLCQN8YYY4wxpg6pGSE/ViMZY8wCMl7fUa33/fK7w8YYM6qMpYYdFSHPDg7mjDF1CKJxYVyCFbqihXG9mQ0PeR3rzUE1P2OMMcPOWGtY7oDzTaUIH8wZY4wxxhgznqgFjdtYKbqH4owxxhhjjDFjywJZ5I0xxhhjjJmo1Iph20LeGGOMMcaYIVJLs1Ms5I0xxhhjjBkCtTbF3ELeGGOMMcaYOsRC3hhjjDHGmEGoxQ++WMgbY4wxxhgzALX61UYLeWOMMcYYY/qhVkU8WMgbY4wxxhhTh1jIG2OMMcYYU4VatsaDhbwxxhhjjDEV1LqIBwt5Y4wxxhhjMupBxIOFvDHGGGOMMXWIhbwxxhhjjDF1iIW8McYYY4wxdYiFvDHGGGOMMXWIhbwxxhhjjDF1iIW8McYYY4wxdYiFvDHGGGOMMXWIhbwxxhhjjDF1iIW8McYYY4wxdYiFvDHGGGOMMXWIhbwxxhhjjDF1iIW8McYYY4wxdYiFvDHGGGOMMXWIhbwx5v9v7z5jtKnKP47fYO+9ogIKClgApYkgiIZmLyhojNGgiVHjCzUaTcg/MSa+0HdqfEHUWBIlKLGgQQHBithQQAEr9oZg7/r3cx4umedm99ndZ+/de+49v29yMjNnzpxyzezs71xzzdwhhBBCWEAi5EMIIYQQQlhAIuRDCCGEEEJYQCLkQwghhBBCWEAi5EMIIYQQQlgw/vOf/0TIhxBCCCGEsEgQ8YiQDyGEEEIIYUEoEY8I+RBCCCGEEBaQCPkQQgghhBAWgKE3Hpsm5DW8UgohhBBCCCHcmKW08k4L+WkRvlIKIYQQQgghrJ3ltPSu04J7tSmEEEIIIYSwsexIdydGPoQQQgghhAUkQj6EEEIIIYQRslIUTIR8CCGEEEIII2M1oewR8iGEEEIIIYyI1b6PGiEfQgghhBDCAhIhH0IIIYQQwkhYy9chI+RDCCGEEEIYAWsR8YiQDyGEEEIIYc6sVcQjQj6EEEIIIYQ5sjMiHhHyIYQQQgghLCAR8iGEEEIIIcyJnfXGI0I+hBBCCCGEObAeEY8I+RBCCCGEEDaZ9Yp4RMiHEEIIIYSwgETIhxBCCCGEsInMwhuPCPkQQgghhBA2iVmJeETIhxBCCCGEsAnMUsQjQj6EEEIIIYQNZtYiHhHyIYQQQgghbCAbIeIRIR9CCCGEEMICEiEfQgghhBDCBrFR3nhEyIcQQgghhLABbKSIR4R8CCGEEEIIM2ajRTwi5EMIo2dHN0P7NuNmGUIIIayWzfq/FCEfQgghhBDCAhIhH0IIIYQQwozYzKfEEfIhhBBCCCHMgM0O9YyQDyEsBBULP52wyy67tGUIIYQwL+p/0mYSIR9CWAimBXylEEIIYd7M6/9RhHwIYWGIgA8hhDA25vk/KUI+hLAQDEV8pRBCCKFnIuRDCCGEEELYCebtVIqQDyGMgmlve90ch9v/+Mc/Jn/5y18mf/7zn9v6UmWGqVhq33rTauudLje9vVzejvKXS0uxo30hhBB2njHcWyPkQwijoUTnUHz++9//bss//elPk4suumjy5je/efL6179+8sUvfnG7MtI///nPyd/+9re2rH3417/+td025P3hD3+4fuuGMjVZsIS8yrdUrvoE63//+99vVL98ZQv9KuxTfrpM1a1s5WvXxEX56pfx2S9vqT4NUVYKIYQwO6bv+fMiQj6EMFdW+nQkkUq8/upXv5pceeWVk+9973uTn/70p5OvfOUrk2uuuaaJ2xLSu+666+RmN7vZ5CY3uUkTtr/73e8mv//979vxtglaZW1r96Y3vWk7XoJ83OIWt2h1lFh2jDImEyWwq76qS77turnb/utf/9qOcXyVqX7atu74Eu7yJevyHYdb3epWrfwtb3nLNj777VO/cvqind/+9reTP/7xj22fJN8YpRBCCLOh7vNjIEI+hDBXhjdEYnU6Ea4E8o9//OMm4glVAvVb3/rW5Cc/+UnbV8KYqCVoCVz1ErwEuTpsK2NJ5DrOvpvf/OYtv/Ksq08bJbAdU2LYtn2WPOX6Y5+61MHLX30s4V1t6599+qhu+fbbV+FC6oA+2K8e/br22mvbpEQeqp/6IRH7t73tbVubJd7VV0I/hBDC+ql78FjY5brrrhtNj+5whztcvxZC6AUi8+c///nkO9/5Ttt+6EMfOrnLXe7S1uGmaf/5558/ueSSS5q3/Ha3u93kqquumpxwwgmTI488cnLnO9+5CeQf/vCHTdwTyTzo3/jGN5qw3W233SaHHXbY5IEPfGATtt///vcnP/vZzyZ3u9vdJgceeGAT4b/4xS+al5+QVu4BD3hAE8jf/OY3JxdccEGrk1BWfo899mii+vLLL59ceumlTTQrq6/6R1Tf//73nzzoQQ9q+SYd3/3ud5tYv/vd7z7ZZ599Wj33uMc9mhf9iiuuaE8cHG/CYizaevCDHzzZd999Wx1f//rXJ7/+9a8nj3rUo1r/jI/NjJc99t9//zYeot/koJ4ogOCXNgvjqH92n/zkJ1vbD3nIQyb3ute92gQkhBDGzi9/+cvr17an7m1j4Savec1r/u/69bnjH24IoR/qhki48jgTecQtIYzazxN/2WWXNYF68MEHN5EtrIaY3muvvSa3v/3tmxeeqD7vvPOagCfYy2P+7W9/u21zFmiDAP7yl7/cBDixrJ6LL754cuaZZ7bJwH3uc5/WD+XOPvvsJtiJUd524TraIpLVTUi74SujT/pIhN/61rdu5dRByNeTAsKdaFfOhEXb5557buv3dddd18poh6BnExMDZW1feOGFzR73ve99J7/5zW/aewImJSYye+65Z7ObfpW3vpabKeKnce70wwTGhMN6CCGMHffsacYm4hEhH0KYOwQxgesmSfCVkOetJ2p5ygli4vqRj3zk5K53vWvz0hPsRDdPNA80r7eyvOfHHnvs5JhjjmlecYKeeCaKb3Ob2zQRTLDz1PN4E+HENO+7UJv99tuviX5CWbvaPPHEE5tHWXy+PvHK84KrXz3GYIJx/PHHT4466qjJ/e53v+bdJ9Tt9/Tg4Q9/ePOYE//Gpj4i+wtf+EKL/7f/sY99bPPW3/GOd2yTBp535diFaDc2wl7/f/SjHzWbHHrooU3cswGIZYk9a31eRMiHEBaRaSE/RhGPxMiHEEaFmyWRW4lgF0ZDiBPGBDPPN88zLzUxz3Ntm4edYCSwDz/88Mnee+89OeCAAybHHXdcy3ccEc87T0AT7baF7BDoPOS8+8S3MBZLAvnoo49u4loSInLPe96zTTZMIIS58IbzwJtgmBgQ+fbtvvvuzeMvqbf6r32J910ecSsUR9iMvmuHoFc3L72xmxgII9KOcBXin/ND3fe+973b+CWUoA8hhLB+xiriMTchzyjTKYQQ3AsI+BKmvN/ELBEudEb4yxlnnNHCVYhx+3lOHFfx8wQ1LzbRS3ATvPYT7eoBrzZRLfackBcO4zgee/XwnPOIq6M850JYTAqe9KQntTh34lxZwln9QwGtXV51gv3zn//85O1vf3v7dObHPvax5uXXZ33Q3zvd6U6tbeJfX00wtKvuCrUh1j1hUOZrX/taGwsRb6KirP6yV728q7+W+iWFEEJYO2O/f85MyNc/i9WmEELA9P2gti0JUyKb8OW5JlZ56HniiXuCX+y8/eLUS9DzzNsnDMVxxDGBTjhLBDchTBAT2eo96aSTWggNQS+cheBXH/Feglq9RHOJfW2of9iu7ZpgeEn29NNPn5x11lkt7+STT5684AUvmBxyyCFNwBufek0YHF99rPFL+qZO2C+UxsRCSA9RX2LdcfpkXb9QE4vangc1jqK2d5Q3vY1h3vS+9bJU3ZVCCP2yCPeA/wn56ZvXWlMIIewMhCp4kkF8gzAl1olq4S3Pf/7zJ2984xsnp5122uTVr3715E1velMTxWLkiWaiVR084OoQc0/A84zbJpitE9Ri5t23TACEzwidIdhB9BLkvOSEM6+9PugP0SyO/uMf/3jz5BPYyhLlxmG9xiHcx+RCrL1+vuIVr5gcccQRLQxHv/RDH/RXv7RhHPLUI1+dyppcaEvbH/jAB9rEwVd2vvrVr7YxmBA4xrHK6ee80YelnghYZ+Ph5EL/pSpnWXnFcP/08bNA3cMUQuibRbkP7JqbVghhXpTgJMoINeK2RC5h6+VOglzcuVAWoSpi3cWei2d/xCMe0V4k5aG/+uqrm8D1WUlfd/GiKq+7ly2ti4Enzh2rfl+ykQj4hz3sYa1ulHgWykKgi0WXiGwvmPLi/+AHP2jlhh5v91HtG4d8QpyYl8eLT+B7yVVMP0FuXCYH8k00vKT74Q9/uH2KkkjXJqHOyy5+3hMCZcTfP+MZz2g2qfrE0GuXPdWpb9UnY5U2kxLxdX5Xgr0k/a2+V7482zUeVN22Z5FCCGFRyVdrQghzhSAjdolu4le4CPEqhIbX2z6hKF78JHp5niUij8ecwCbiHct7Xl9zIZS9FErUE8GEr09X8pArT+ALUXn605/eYs0JSAKd+DY5MHEggJU1EfjsZz/bxDXUJbTFxIAH3JMD7RL+vlxDuBPWBLqJBQGuL8bjyYBx6IenCbztBLsJgnErKyRHfeLmfVdfvvbls4UnCOzmKz3sZr94/fq8Jkq8lyd7s8V84YmBPgkJYp8hzllNQAr9tK3PbFVPQiqhRP0wb70M26g6Z1V3CGHx8P9kEYiQDyHMDeIZQl0IbwKNx51AJ5DdSHnMCeeKBwcRX+tEsfKELOFM2PPW+yQjUWj9oIMOavHvvNnyiEf18ej75CNBDv0hnonxEp7EPkFJOAqLcUx9uUZdNQb9UNbXZfRHuAxhXU8YbKtXe8ZT36rXFy/uqt+XarTpeGVNPHwK07EmNOozLm3IU5Z9JHWZFKgPJUjVC32YB8sJeXls51zWOSmBbmmfpUnKcBy1LjnO9ixQz3QKIfTLogj5Xa699trRPFesR9shhD6oeG6fehRGQ7wRucS0deKewCNgidsSeSXkiVtL9fCk+5Ennm0i+5RTTmk3Yt57Ip/wdRwvsIkD0c/bK7/EojpAcDpOvfbz8GurJgw87urSlxKf1Rdl7JNnDPpgIgDCs8SsfignPOZDH/pQG+upp57a7oOO1TfC3ERA2Yqfl1fx8OoVgmSbjYyj6i2Rq3+W8xLy3ifQtvAlEx39lqD/7FvrypXtnHf9NiYYl/01DmWsKxNCCLNGiOMiMJ87ewgh/BeijRArcVfrRBt4zcWqE7NDQVrlrfOEE8fEdYk66wQ37z7Pt+OVVweBTCwT++q3z3FShaeoE9WWOoTf8Hzbp+xQaKqT598ERJ4JQAlPbTlesq68/lknyh1boULy9bmSSYE6lNEvbeivspbKe5ogXx36ZF/Zdd4ifjnYlI2ETwkNMhmRp98mP77iI1+qF5NhLJWMyXIWqH+5FEIIYyZCPoQwNwg3gozgJOAIJ+KMCOYxl2ffULQN13lzS6yqizAmmH3lhuAmgKsN2yV2iUh1w36pPNmSMigPN2+xPBMGAlp96lanPld9Jfy0o5yknP0SYS5v2Ad1mVDot/4bD/Fqf9WnDuWqH8arXE0Aqq6yleOsV97YMAYi3ac/PUHxtIGt9deTmfPPP3/yiU98or07UC/ysrWxWVfO0jhnldhpmIb7QghhrETIhxDmxrRIIkqJXYKWaCbuqgzxOlxHiVrwhvtlVD/W5AVRZYlmqLfEfnnECUOCkDi2lF8Czj5lbcvXpxKOVYaotO5YQltetWlb+XqyoD3JMTABUaelWPjnPOc57Rvz2pJ42LWvjjpGnY6xv+qHbXUP2x22PbTbWDBJE67kJWIx9MZqnF5APuecc9qPZnkxmKeefVG2t23iYoyVN4tUdpNsj81mIYSwFBHyIYS5QTSBkAOBJ4GQkuwrsW6biCvE1oPwIsiJWS+C8m7zVqNir5UhAkugqZPwJYKVlW9bWSJY36rtah/yqr/KEZuOI/71vY4jsMuLPMR+/bDUprb1wUREuE0JS3VUv7SjD/K1Z6l++9VVoh3KDduH8mOCTfTPewV1vr2fUN/1P/LII9t394899tj26U3jqacUZS9L42KfWaYQQlgk8rJrCGFulHgSK03EWfdSpFj02k+Y1pL4Jd5KrBLpIAyHqfIcRygStI4pIW/fUCSXKFSmUjEUi9q0r4RxrctHCU3bQ6FelIjX/rAdeVC28qpvlkSv/Dq2xiZPGfWaxMgzXuWHfVS+qPpBHOuriQgcb9tSnaj2yg5QR9UzrG+4v1jqZVeTEZ/OfMtb3tI+4+kToM6l7+j77KYnK0984hObYNeu8l5kvvzyy1sYjsnaAQcc8L/3Duz36VDf5/cjXPVisCcekvcb/BiXfvH0+0qQiUOdD2U9GTGBEOakv9NjHI4phLD1ycuuIYSwAkNxtJRwqm3ilPe2PNOwTuQRoYSY/BLU8kuIlpBWxn7bJUwJb3l1bOVrj8glLu2TLxF9JbqhrHoLfZGnTPVBXYSmttSlTLUJ9cqTrMuvNmtsvlPv6zfVxxL46q+y+mrbpKX6ZJ++1D5YSsqUV7/yUGNUpyTf9nCc60W/ys7GpA0/zkWEE/t+M0AYEYz7jDPOmLz3ve9tP34l/Eb8/Dve8Y4WY+88GYPv9Yupv+yyy1o9bGaycO6557YJgH/K55133uSss85q3+Qn5sXjK3PRRRe1HxXzkq0+1fkrG1sPIYQxku/IhxDmCrFErPn8InxvnCe24K0n2Pyg0qc//ekmwvzIkx9nuuqqq5pgE1Murr4oMVwit9YLedol0CrfssRsiVgiU1K26qjkWIKvvOgl+iVYVj1Vl7wS9JJ6JdR6CciqB44toa+PVTeqHn0hzJUl9KvdKlvtO14f6tgqU6n6o7x9tV3lUGVrfZph3lLfkdcHopmw5oH3CU4/hOV/wOGHH97ecbBOVBPczr+v8/Cq+w4/ke96sd/XfTzBMRHglfeVI78ZoJz2/KKvLxTttddek8985jNN8JsoqOvAAw9sEwd9cR733nvv1k5N9mocw/UQQh/4v7QIxCMfQhg1vKtCJoRE1C+vEu/i4335xDqxKRGIBG15662jtiVlSixLBJpllR0KWzjWMaiyknKS9dpf9cl3HHEvjzAc9qfarzYgr9qtdmDd8RXvro46viihL6/agD5UO8PxlaiXiPrap2wJeGOSlLEN7c6C6qcxOY/EOjFdnwsl1LWr/7zlILyF3Ah/OfHEEyf7779/87K7JvRL2Xp52I92+eEsP9zlk6LGKNzGtSIUh8hXz2GHHdbKeD/B8TD+oZC3rPGHEMLYyN0phDBqSmTynBJyz3zmMyfPfvazW1z1cccd17yqPK+EWJUl7IhQYRclekuYWkflLSVS7avjUPuUt64d+0o8SxWHb73aGqYq55iqq/rsuBKNJaRRx1SbUu1zfPVRkj9cV9+wjKVt+dXG8JhK1R/Ytl7Hzgr18aYTzLzvftH26KOPbt5w4py41zd9EfriCY1PitZLrjzsu+22W3sxljiv8Vo6D2ysnKTfkqcVXpzlvTc5FKZz6aWXtvp9QUefqo7pc1A2lEIIYUwktCaEMFeIox2F1viOuNALeV5w5G3ltRVCUS87EnTKEHUSL61tgpCoc28hCrXBi89DW7HkRBohJ594I/q0KX5aPUIzHEfcVR3En5ARYT/ag9Ae4lQ98vVJUk49RLs6JG1ec801TbTK5zUuSlDqm30mI+oUOiI+XF71XX95mvWHV1tfxXqr2xgJWeO3zhaeZshznHqUU7cYftu84iWiHacf3k0gfO2TXy/eSqjlkGHeUqE17KhtoS7O55Of/OT2AqtzZizOAe+8pXAqP4YlHIYIr/FcffXVzSYEPe882wibUUae82FsnuQIveKBNxk0Hk94xNNry7mx7RiTCt55NiqG4n047hDC1mZRQmsi5EMIc2UlIU+ciaMmIsU5E3xwnEToVgw9QSYU4/3vf38TgIQtMcjT63hfPvFjQwTt7rvv3kIxCPb3vOc9Leae4CNo1XX66ae3eohNQp94JkA/9alPTd73vve1L6zUi5TEN2+vpTwvYxKQF198cXtR03fR9UUfiHb99kNIxCTRuMcee7R+yrdUTl0mCer35ZcPfvCDLaacYAVxS1RfccUVk3e/+92Tt771rW1s+q5dkxHCWTn912/C18THJMhkQ18do28mBFdeeeXkkksuafdi5fSH0GUb+9jAsUNBu5SwHeYtJeSNzSTnc5/7XPtKzL777tuWNUki8pWVx0ZClBxPiLs2HOuaMAaCn8jXjgmHY9jTOVePc87GyihrIuB414B6Tb6Ie15+X9Yh5NkfNU7bNabh2EIIW5fEyIcQwgwgvAhKApuQriSPsCT4CENi04uwBOhzn/vcFoJD5BO2vLe8szzgRBtvLUFN7J555plNlBOB1YZ699lnn8nznve8yRve8IbJy172siZgTRgIS0LxRS96UfshJx7gCy64oOUTfEQi8ejlTfte+tKXtuN5uk0uTEwIVp5zYpSgBIFIcBLn6iEy1WkyYYJyzDHHTF71qlc1bzRR78eUiO/qr/36+trXvraFGxG2+qB+tipvu3X2MgEg5NVD8Mpjo5pwEMwS++sv0cyes8BkxfiIZm14SmGp35666CNBr10C3D599I/VeDx9MFHSZ5+WZANPFfTV9cCG2tBfx7CZ8+f8muiZvGnrla98ZTs3YuYdy/7Og/YlRLiHEMZMhHwIYdQQawSYJVFV4SkFEUeACY0QQy9Mw6+7PutZz2qCnheXECZk66kfsU24E9I8slAP1E0I8mTz/hP0e+65Z3sB0yRA+IVJwlOf+tQWp0/ME4kEMXHOy887/7jHPa6Vs5T0hUeYCCWY9UWd2iMaic0SkNoRZsIbzhP9whe+cHLKKae0OPKXv/zlLZSEUCdIiVXHlEf5MY95THuHgMBltxL70B5bEeVsQhzrh4lAiXc2rokEcQx5yhnbLNAHbZlIOS9ENHjRPXUxyfIUgZA3ZrZ517veNXnd6143Oe200yZve9vbmh19g56tPKnw1MKY2FZ5Ql47nrJYOueeVHiioW1PZJwP43IOjLlgT9ebZWE7hBDGRoR8CGFuDIXSEPnT+4gxgo+olKwTqAQW0Ub8EWcEPcEpEbZEOcGoLGErOZ7nmfgjhH25hJeemJPUV0JQvQQwka4s0V5t2EfkE/3264ukvHJEuHL6oJx2CdfyFH/pS19qHvRHP/rR7QeQiP13vvOdbYLh6YE+ErRezBQCIzyGGPWEgQgXemMiIgl98fShQn9489lI+/qkbTYgcj/60Y+2763ziJvo8GJLxuEYk4QaP2HsKQIhvFrq/El1vqbPKZt4ikCMFyYUbGsSUi+l6s+pp546efGLX9zOpwmLl2Nf8pKXTJ7whCe0UBp28pTk8Y9//OSggw5qT2W06Zya9PC4E/wmJ8rvt99+rTwRL9lWhqCv60Nit+rzUOiHEMJYSIx8CGGuEEwVMgFeUuIT9hHhFWdNDBPHBBbRJU8ifIlbIo8oL88yjzKxTOgSboSc8BL5BDXxrTxRSeD6jrhjiWiebB55eeriAS4PuQkD4UvoEn6Etnrrk4gEtr4SiIQoMWhJhBPxxKoxE8fq53X22URljEPfeKNrXOpkg/LCswmx6mmBvmlfqIy6lfF9fUKfUFe/9uslUv3luWYrNiFQCV5fhTExYRNfcxGqJBRIKIr6jJetvGBcdq9ztCN4wLXhvKqjjiXajYGdiPZ6MiHftv6xk6VxyDPp4LEn9C15202aHMPWwmVMoJzDmviZnKjDedO+/Y6V57wro2/aqGvPsUX1V99qPYSw9XGPHjvuS3ExhBBGDVFFCLphDcUUMQ/rxKl9IMgrEewl6nmjiTY3Z0KVOCXI/QARcUdIludaUp+2JQKY6Kv61VVlCH77tWOiYF2+PikL/SeybVvXD+KTeDzkkEMmT3va0yYnn3zy5KSTTmr18DDrO+FpMuEHjipk6ClPeUqL3RfaQ6SrxzEmAjzcvNLq8Y10bfLoVx+F1AgB0n/t8oYT7/rLkULgCk8SPkTQ6iuxTQQTzGXj9cLW+mxSUIKa7fXRPnYxHpMLttIu0S5enmB3nOP1ryYY+uw81hMISZ/ZTxsmK/YbswmCek3wtCdfHlvIr+PhPGNWYw8hhFlQ96QI+RDCqCHuJMLKjauENjEqz1I+L7VwER5rglkoBc8zEVvhI8Q1McvLTaAffPDB//OEawMl6Im8EuIgJMVw87yLXyeS66syniYQnUSvunjQy4OvfeVMHojzEsXGQMA6Rr1CPnidjUW71olL7aqbwCbiLQlTAr5sQYASsscee2wT/CeccELbVpfwFLbQtj7xuPPk288mIIjVpw9CU/zgkvh/7R111FFNQBPCZaP1ol9STY6Gtjee2q7zbNv5Ur7OT10Pkr7VOZTkwbgqfAbqU05dUEcdU/XWNsq+qDpDCGHeDO9HEfIhhFFDfBNkhNYQoquWhBmBzdvs04/nnHNOixf3VRZCUGw1kcpjziNPzBHwPLnqJdoJNu0Ml+qWlOEFJmiFvVx44YWTj3zkIy0JQSGCqw11E8/6cvbZZ7cy+uSLOgSnsBACWl+EvxD4Pk+pnK/nmGgo54VZHnfi1YSk9ovrV5eQFXW4oZtUEOji6LVp3CYR+mKSwEutrMkOb7enEPpqwsA+ZUeYZJhAsI0xmUToL5vMSsxWPSWoCWf122Zr++VZ1rm3XufDep2nEt3y6smMeuxDCfFieE6dN0vbNTGUHFNJfZVCCGHeTN+LEiMfQpg7xLWYcEzHyMsnnonb+tKIGxkBR6ha96Kn2HDwPtd3z3m7xZ+LnXZ/IbC1pR6eZjHiBJzwEwKOeBZTXcKeiJVA4BKIPOzq1obvsvOY+ypNTQr0Q2y7epX1vXjbxsSbfuihh7Z+E+K8+b7b7lv1xDrxLWb8iCOOaJ9h5L1XZ4XE+DoLb7+2qv+eBqjHhEA8u09k2mYfdWizYt/l+TVcoTr6YPLDHoQ68e4pADsQwfYbL3s6ByYU7ObpRolc1HI5jFOZYYw8tFEifSieoV3t21+ivMrIJ8ArT1JGsl9+1QPrw2OH+6u8fOv6Uu1VueE/zem6QwhbF/fGRWCX//4TGI2bwT/dEEI/lEgiVL2MaZtIJShBNBHxhDZvq1hm4pYwI5QJOuLUt+AJa8cSqcJI7KsXGNVLpPkCi7bsI5iJe20Qx/a5B5kwEOBeRLVN4PJmO6a+fMIDrow+idUWh03o2sdzLoRF+AohrRxxyAPOO668iQJxTEgLuzEGQl+bJhPGqW+Eo7I86coblzx9Mi5j0if9J9TZxUTEUn+E4NTEhPdfX/z4Uol0/6jUbZ2tKg6ep17dxqd+ZWzrV4UFlaAdCtuh6C08HdFnTyJqEqB/kjqhnek6JXZhdygDdUl1DShXIl75Otb+Ou+2nRs2caxy1QfIH/bd+nC7+hlC6Af31bGx1D02Qj6EMDfqprQjIS+PYJOIMMKuRBgBJ59Y9KNM4r7FdxNe9ilPOKtHucKxJe4Id9vEbgncEoIEnzyCVz36MuwTyptLZBPKwmh4xMWaH3/88a0soViThhKb8mtdHbZrwqDfJW71w8RBHs86tG2M8uy3rbw87ahHfdU3lBhVnjB3v3W8cpZVzvgL+1AiWh3KVUItUeWHLCXkq5y+YNi+fTUmGA8qH8M2Yd/QJsO6YNv5qcnRsH2p7A/nBFWHpWNCCH0xNiFf96hpcncKIYwa3mFiisB0I6vtEqZ1cyPEiTmiWQgHzzGBRgQTtgSb40qYqY+wI1KJN8fZpw7b6i0xWThOXok/5fUH6hqK42rHBEDdPNvV9xKLNWlQp34qpz9VvySPV92Y5Fd7tV6CXznl61jb1muyYJ0dJN73asu+qq9sWpTdKr/6vV60KZWdqn/sIE97JjSSNp3bGgebTh/vWLa0D3UOq1xNRFD11bmQalzqg3oq1X511P4QQthMdnTviUc+hDA3CDCCStiI0A/bQkYIzRLu8ogpDIVWIc9XaISpCF0R/kGkOt6xRJgy6hgeV1SdwzZq3fGOqSWG5auspIyxeLogRIb4Npbqy1BYouqBdccTsMO2lmJ4XFF11rIY9hXqljcU5sO2poX8cuMeMtxWRlKvunjBfd+esK5woDov9is7fbztyqs2h+Wm92FH9VivVGPRfu1fjtrnuFqudEwIYeswFo983YOWI0I+hDA33KCIPh5Soo/A4tnmTSe6poXmcpTnmEiUHDMtxEq8zRptaUPitS2vsnyecYK1xqAP82I1Y1+NrVeibAG28DKu8yiEydOJEvCzaCuEEDaKMQj5upfuiAj5EMLcKHHtZmW9BF55hnm4CfOVRGjd7JRbruxqbog7w7A9grXEunFIw/01Ruyor2thteNaTVuz6A/0SVJfhbU4p1V/RHwIYezMW8iv+t4eIR9CmBc8tiV4S/xJJfTKI79a4Vc3vloOhemsRWox3cZw3zTTx82iTztqb8isxr8a9Mm506ZzZ2kSUxO3mqiFEMJYWRQhH7dICGHuuGFJJfbqBlZhMmuh6hqmjaT6O2xruD1MROxQ3M6CqnOlNA+GY2enEEIIK+OeuVrikQ8hzJ0S8BKRS8CjbmY7K0TXcjNcC/pTAnXYRonm6X3V/6GAHx63XqrOMTA9rhLwZZtiTH0OIYRp5uWRX+v/hnjkQwhzh6gTbuHl0BLxmIXYVQcxOUvhDH0mzEucD4WpPOOpNCzXA+xdNplOdT5CCCFsz878nxqVR36rMWvhEMJK5JobFzkfsyO2XJkebNT7ddDj+HsZ886OMx75GeEETKcQNotcc+Mj52N2xJYr04ONer8Oehx/L2Nezzgj5NcAQy+XQthscv2Nk5yT2RFbro4ebNT7ddDj+HsZ83rHGSE/BYMul0IYA7kex0nOy2yJLVemh2suf1d9/i30MuZZjLNLIV83hqVSCGMk1+h4yXmZLbHn6ujBRrkO+rRBzvva2JJC3kWwoxTCopBrdrzk3Mye2HN19GCnXAt92qCnMc9qrAsn5A18pRTCIpNredzk3Mye2HT19GCnXAt92qCnMc9yrKMR8ga1mhTCViTX+PjJ+Zk9senq6cVWvV8Pvf5N9DTmWY91Q4V8XZCrSSH0SK7/xSDnaPbEpqunB1vlXtjv30RP496Ise7wB6F6/6MKYSPI39XikHM1e2LTtdGDvXJN9GuDnsa9UWPdVcXLpRDCbMjf1WKRc7UxxKarp5drMNdEvzboadwbOdYuPz8ZwmbgD7dSWAxyvjaG2HVt9GKrXBP92qCncW/0WCPkQ5gh/mArhcUh52zjiF3XRi/2ynXRrw16GvdmjDVCPoQZ4I81/5gWj5y3jSO2XRs92SvXRb826GncmzXWCPkQdhJ/pJXCYpHztrHEtmujF3vl724bvdog535jiJAPYQ3UP6LckBaTnLuNJfZdO73YK9fFNnq1Q2/j3szxRsiHsAL+ICuFxSTnb2OJfddOTzbLtbGNXu3Q27g3e7wR8iEsgT/ESmFxyTnceGLftdOTzXJ9bKNXO/Q27nmMN0I+hOvxB1gpLDY5jxtPbLxz9GKzXB830Ksdehv3vMYbIR+6pv7Z9Hqj3WrkXG4OsfHa6enazPWxjZ7O+TS9jXue442QD11RN9ZKYWuQ87k5xM47R082y/WxjZ7t0NvY5z3eCPmw5fFHVilsLXJeN4fYeefozW65RrbRsx16G/sYxhshH7Yk/rgqha1Hzu3mETvvHD3ZLX+PN9CzHXob+1jGGyEftgz1z6TnG+lWJud3c4mtd56e7JZr5AZ6tkVvYx/TeCPkw8LiD2mYwtYk53dzib13nt5sl+vkBnq2RW9jH9t4I+TDQuEPqFLY2uQ8bz6x987Tm+1yrdxAz7bIdT9/IuTDqPFHM0xh65NzvfnE5jtPb7bLtbI9Pduit7GPdbwR8mF01D+Knm+QPZJzvvnE5uujN9vlWtmenu2Ra2E8RMiHueOGMEyhL3Le50Nsvj56s1+ulxvo/Z7V49jHPOYI+bDp1E2wUuiPnP/5Ebuvjx7tl+vlBnq3RY/jH/uYI+TDhuOPYJhCv+QamB+x/frpzX65Zrand1v0OP5FGHOEfJg5dfOvFEKuhfkR26+fHm2Ya2Z7erdHj+NflDFHyId142IfphCKXBPzJbZfPz3aMNfN9vRuj/wNjJsI+bBmXODDFMKQXBvzJ/ZfP73aMNfN9vRuj/wNjJ8I+bAiLuphCmEpcn3Mn5yD2dCjDXPt3Jje7dHr38GiESEfbkTd0CuFsCNyncyfnIPZ0Ksdc+1sT/6e+rwmFnXMEfKdUzesYQphJXK9jIecg9nQqx1z/WxP7NGnDRZ5zBHyneFiHaYQ1kKum/GQczEberVjrp8bE3v0aYNFH3OE/BambtTDFMJayfUzLnIuZkevdsz1c2Nikz5tsBXGHCG/RXAxTqcQ1kOuo3GR8zE7erZlrqEb07tNev172CpjjpBfQOqPbphCmBW5psZFzsds6dWWuY6Wpneb9Pz3sFWIkB85dfMdphBmTa6v8ZHzMVt6tmeuoxuTv69+r4utNu4I+ZFQN5XpFMJGkutsnOSczJae7Zlr6cbEJv3aYCuOO0J+k3ERLZVC2Cxy3Y2XnJfZ0rM9cy0tTWzSrw226rgj5DeIuolOpxDmQa7BcZNzM3t6tmeupaWJXfq1wVYed4T8OnFxLJVCGAO5HsdNzs/s6d2muZ6WJnbp1wZbfdwR8qvARbBcCmFs5PocPzk/G0PPNs01tTSxyzZ6tUEP446Q/y/1h75cCmERyPU6fnKONobe7Zpramlil230aodext2FkHcyd5RCWFRyHS8GOUcbR892zXW1PLHLNnq1Q0/j3hJCvm5my6UQthK5theHnKeNo3fb5rpanthmG73aobdxj1rIOxmrSSH0QK73xSHnauOIbfsTKmshttlGr3bobdzGu6lCXoNrSSH0Tv4eFoucq42ld9vm+lqe2GYbPduht3FvG+9k8v/WS9OLv8rhXQAAAABJRU5ErkJggg==;" vertex="1" parent="1">
          <mxGeometry x="160" y="140" width="372.83" height="268.99" as="geometry" />
        </mxCell>
      </root>
    </mxGraphModel>
  </diagram>
  <diagram name="IDEF 0" id="eGWwfRPOToFMKj34qreq">
    <mxGraphModel dx="2564" dy="962" grid="1" gridSize="10" guides="1" tooltips="1" connect="1" arrows="1" fold="1" page="1" pageScale="1" pageWidth="827" pageHeight="1169" math="0" shadow="0">
      <root>
        <mxCell id="0" />
        <mxCell id="1" parent="0" />
        <mxCell id="xtT4wF8nNLN6KiaJ76v7-1" value="Загрузка данных&lt;br style=&quot;font-size: 17px;&quot;&gt;&lt;br style=&quot;font-size: 17px;&quot;&gt;&lt;div style=&quot;text-align: right; font-size: 17px;&quot;&gt;А1-1&lt;/div&gt;" style="rounded=0;whiteSpace=wrap;html=1;fontSize=17;fontStyle=1" vertex="1" parent="1">
          <mxGeometry x="-174.67000000000007" y="280" width="164.67" height="60" as="geometry" />
        </mxCell>
        <mxCell id="xtT4wF8nNLN6KiaJ76v7-2" value="Принятие и обработка данных на сервере&lt;br style=&quot;font-size: 17px;&quot;&gt;&lt;div style=&quot;text-align: right; font-size: 17px;&quot;&gt;А1-2&lt;/div&gt;" style="rounded=0;whiteSpace=wrap;html=1;fontSize=17;fontStyle=1" vertex="1" parent="1">
          <mxGeometry x="80" y="390" width="246.36" height="60" as="geometry" />
        </mxCell>
        <mxCell id="xtT4wF8nNLN6KiaJ76v7-5" value="" style="endArrow=classic;html=1;rounded=0;exitX=1;exitY=0.5;exitDx=0;exitDy=0;entryX=0;entryY=0.5;entryDx=0;entryDy=0;fontSize=17;fontStyle=1" edge="1" parent="1" source="xtT4wF8nNLN6KiaJ76v7-1" target="xtT4wF8nNLN6KiaJ76v7-2">
          <mxGeometry width="50" height="50" relative="1" as="geometry">
            <mxPoint x="-160" y="370" as="sourcePoint" />
            <mxPoint x="-110" y="320" as="targetPoint" />
            <Array as="points">
              <mxPoint x="40" y="310" />
              <mxPoint x="40" y="420" />
            </Array>
          </mxGeometry>
        </mxCell>
        <mxCell id="xtT4wF8nNLN6KiaJ76v7-19" value="Данные в формате json" style="edgeLabel;html=1;align=center;verticalAlign=middle;resizable=0;points=[];fontSize=17;fontStyle=1" vertex="1" connectable="0" parent="xtT4wF8nNLN6KiaJ76v7-5">
          <mxGeometry x="-0.041" y="-2" relative="1" as="geometry">
            <mxPoint as="offset" />
          </mxGeometry>
        </mxCell>
        <mxCell id="xtT4wF8nNLN6KiaJ76v7-7" value="" style="endArrow=classic;html=1;rounded=0;entryX=0;entryY=0.5;entryDx=0;entryDy=0;fontSize=17;fontStyle=1" edge="1" parent="1" target="xtT4wF8nNLN6KiaJ76v7-1">
          <mxGeometry width="50" height="50" relative="1" as="geometry">
            <mxPoint x="-410" y="310" as="sourcePoint" />
            <mxPoint x="-170" y="300" as="targetPoint" />
          </mxGeometry>
        </mxCell>
        <mxCell id="xtT4wF8nNLN6KiaJ76v7-8" value="Text" style="edgeLabel;html=1;align=center;verticalAlign=middle;resizable=0;points=[];fontSize=17;fontStyle=1" vertex="1" connectable="0" parent="xtT4wF8nNLN6KiaJ76v7-7">
          <mxGeometry x="0.1549" y="1" relative="1" as="geometry">
            <mxPoint as="offset" />
          </mxGeometry>
        </mxCell>
        <mxCell id="xtT4wF8nNLN6KiaJ76v7-18" value="Вводные данные" style="edgeLabel;html=1;align=center;verticalAlign=middle;resizable=0;points=[];fontSize=17;fontStyle=1" vertex="1" connectable="0" parent="xtT4wF8nNLN6KiaJ76v7-7">
          <mxGeometry x="0.1672" y="1" relative="1" as="geometry">
            <mxPoint as="offset" />
          </mxGeometry>
        </mxCell>
        <mxCell id="xtT4wF8nNLN6KiaJ76v7-10" value="" style="endArrow=classic;html=1;rounded=0;exitX=1;exitY=0.5;exitDx=0;exitDy=0;entryX=0;entryY=0.5;entryDx=0;entryDy=0;fontSize=17;fontStyle=1" edge="1" parent="1" target="xtT4wF8nNLN6KiaJ76v7-12" source="xtT4wF8nNLN6KiaJ76v7-2">
          <mxGeometry width="50" height="50" relative="1" as="geometry">
            <mxPoint x="480" y="368" as="sourcePoint" />
            <mxPoint x="420.00000000000045" y="428.0000000000002" as="targetPoint" />
            <Array as="points">
              <mxPoint x="360" y="420" />
              <mxPoint x="360" y="520" />
            </Array>
          </mxGeometry>
        </mxCell>
        <mxCell id="xtT4wF8nNLN6KiaJ76v7-20" value="о" style="edgeLabel;html=1;align=center;verticalAlign=middle;resizable=0;points=[];fontSize=17;fontStyle=1" vertex="1" connectable="0" parent="xtT4wF8nNLN6KiaJ76v7-10">
          <mxGeometry x="0.0924" y="3" relative="1" as="geometry">
            <mxPoint as="offset" />
          </mxGeometry>
        </mxCell>
        <mxCell id="xtT4wF8nNLN6KiaJ76v7-21" value="Данные в формате json" style="edgeLabel;html=1;align=center;verticalAlign=middle;resizable=0;points=[];fontSize=17;fontStyle=1" vertex="1" connectable="0" parent="xtT4wF8nNLN6KiaJ76v7-10">
          <mxGeometry x="0.1381" y="2" relative="1" as="geometry">
            <mxPoint x="-32" as="offset" />
          </mxGeometry>
        </mxCell>
        <mxCell id="xtT4wF8nNLN6KiaJ76v7-12" value="Сбор сервером статистики через VK API&lt;br style=&quot;font-size: 17px;&quot;&gt;&lt;br style=&quot;font-size: 17px;&quot;&gt;&lt;div style=&quot;text-align: right; font-size: 17px;&quot;&gt;А1-3&lt;/div&gt;" style="rounded=0;whiteSpace=wrap;html=1;fontSize=17;fontStyle=1" vertex="1" parent="1">
          <mxGeometry x="440" y="490" width="360" height="60" as="geometry" />
        </mxCell>
        <mxCell id="xtT4wF8nNLN6KiaJ76v7-14" value="Обработка статистики сервером&lt;br style=&quot;font-size: 17px;&quot;&gt;&lt;br style=&quot;font-size: 17px;&quot;&gt;&lt;div style=&quot;text-align: right; font-size: 17px;&quot;&gt;А1-4&lt;/div&gt;" style="rounded=0;whiteSpace=wrap;html=1;fontSize=17;fontStyle=1" vertex="1" parent="1">
          <mxGeometry x="1060" y="610" width="300" height="60" as="geometry" />
        </mxCell>
        <mxCell id="xtT4wF8nNLN6KiaJ76v7-15" value="" style="endArrow=classic;html=1;rounded=0;entryX=0;entryY=0.5;entryDx=0;entryDy=0;fontSize=17;fontStyle=1;exitX=1;exitY=0.5;exitDx=0;exitDy=0;" edge="1" parent="1" target="xtT4wF8nNLN6KiaJ76v7-14" source="xtT4wF8nNLN6KiaJ76v7-12">
          <mxGeometry width="50" height="50" relative="1" as="geometry">
            <mxPoint x="830" y="430" as="sourcePoint" />
            <mxPoint x="650" y="445" as="targetPoint" />
            <Array as="points">
              <mxPoint x="880" y="520" />
              <mxPoint x="880" y="640" />
            </Array>
          </mxGeometry>
        </mxCell>
        <mxCell id="xtT4wF8nNLN6KiaJ76v7-24" value="Преобразованный json" style="edgeLabel;html=1;align=center;verticalAlign=middle;resizable=0;points=[];fontSize=17;fontStyle=1" vertex="1" connectable="0" parent="xtT4wF8nNLN6KiaJ76v7-15">
          <mxGeometry x="0.0657" y="2" relative="1" as="geometry">
            <mxPoint as="offset" />
          </mxGeometry>
        </mxCell>
        <mxCell id="xtT4wF8nNLN6KiaJ76v7-16" value="Ответ на запрос пользователя&lt;br style=&quot;font-size: 17px;&quot;&gt;&lt;br style=&quot;font-size: 17px;&quot;&gt;&lt;div style=&quot;text-align: right; font-size: 17px;&quot;&gt;А1-5&lt;/div&gt;" style="rounded=0;whiteSpace=wrap;html=1;fontSize=17;fontStyle=1" vertex="1" parent="1">
          <mxGeometry x="1540" y="760" width="320" height="60" as="geometry" />
        </mxCell>
        <mxCell id="xtT4wF8nNLN6KiaJ76v7-17" value="" style="endArrow=classic;html=1;rounded=0;entryX=0;entryY=0.5;entryDx=0;entryDy=0;exitX=1;exitY=0.5;exitDx=0;exitDy=0;fontSize=17;fontStyle=1" edge="1" parent="1" target="xtT4wF8nNLN6KiaJ76v7-16" source="xtT4wF8nNLN6KiaJ76v7-14">
          <mxGeometry width="50" height="50" relative="1" as="geometry">
            <mxPoint x="1338" y="545" as="sourcePoint" />
            <mxPoint x="1098" y="505" as="targetPoint" />
            <Array as="points">
              <mxPoint x="1420" y="640" />
              <mxPoint x="1420" y="790" />
            </Array>
          </mxGeometry>
        </mxCell>
        <mxCell id="xtT4wF8nNLN6KiaJ76v7-27" value="" style="endArrow=classic;html=1;rounded=0;exitX=1;exitY=0.5;exitDx=0;exitDy=0;fontSize=17;fontStyle=1" edge="1" parent="1" source="xtT4wF8nNLN6KiaJ76v7-16">
          <mxGeometry width="50" height="50" relative="1" as="geometry">
            <mxPoint x="1610" y="445" as="sourcePoint" />
            <mxPoint x="2210" y="790" as="targetPoint" />
          </mxGeometry>
        </mxCell>
        <mxCell id="xtT4wF8nNLN6KiaJ76v7-28" value="Данные в смешанном формате" style="edgeLabel;html=1;align=center;verticalAlign=middle;resizable=0;points=[];fontSize=17;fontStyle=1" vertex="1" connectable="0" parent="xtT4wF8nNLN6KiaJ76v7-27">
          <mxGeometry x="-0.0819" y="-5" relative="1" as="geometry">
            <mxPoint as="offset" />
          </mxGeometry>
        </mxCell>
        <mxCell id="2WnajdsAL7O2xxX158E8-1" value="" style="endArrow=classic;html=1;rounded=0;entryX=0.25;entryY=1;entryDx=0;entryDy=0;" edge="1" parent="1" source="gqLiIXm-dhSfrL8Xjwt8-1" target="xtT4wF8nNLN6KiaJ76v7-1">
          <mxGeometry width="50" height="50" relative="1" as="geometry">
            <mxPoint x="-134" y="920" as="sourcePoint" />
            <mxPoint x="-70" y="870" as="targetPoint" />
          </mxGeometry>
        </mxCell>
        <mxCell id="2WnajdsAL7O2xxX158E8-2" value="" style="endArrow=classic;html=1;rounded=0;" edge="1" parent="1">
          <mxGeometry width="50" height="50" relative="1" as="geometry">
            <mxPoint x="200" y="1040" as="sourcePoint" />
            <mxPoint x="200" y="450" as="targetPoint" />
          </mxGeometry>
        </mxCell>
        <mxCell id="2WnajdsAL7O2xxX158E8-3" value="" style="endArrow=classic;html=1;rounded=0;entryX=0.5;entryY=1;entryDx=0;entryDy=0;" edge="1" parent="1" target="xtT4wF8nNLN6KiaJ76v7-12">
          <mxGeometry width="50" height="50" relative="1" as="geometry">
            <mxPoint x="620" y="920" as="sourcePoint" />
            <mxPoint x="660" y="580" as="targetPoint" />
          </mxGeometry>
        </mxCell>
        <mxCell id="2WnajdsAL7O2xxX158E8-4" value="" style="endArrow=classic;html=1;rounded=0;entryX=0.5;entryY=1;entryDx=0;entryDy=0;" edge="1" parent="1" target="xtT4wF8nNLN6KiaJ76v7-14">
          <mxGeometry width="50" height="50" relative="1" as="geometry">
            <mxPoint x="1210" y="920" as="sourcePoint" />
            <mxPoint x="1130" y="460" as="targetPoint" />
          </mxGeometry>
        </mxCell>
        <mxCell id="2WnajdsAL7O2xxX158E8-5" value="" style="endArrow=classic;html=1;rounded=0;entryX=0.5;entryY=1;entryDx=0;entryDy=0;" edge="1" parent="1" target="xtT4wF8nNLN6KiaJ76v7-16">
          <mxGeometry width="50" height="50" relative="1" as="geometry">
            <mxPoint x="1700" y="920" as="sourcePoint" />
            <mxPoint x="1660" y="790" as="targetPoint" />
          </mxGeometry>
        </mxCell>
        <mxCell id="gqLiIXm-dhSfrL8Xjwt8-1" value="&lt;font style=&quot;font-size: 17px;&quot;&gt;Пользователь&lt;/font&gt;" style="text;html=1;align=center;verticalAlign=middle;whiteSpace=wrap;rounded=0;fontSize=17;" vertex="1" parent="1">
          <mxGeometry x="-160" y="1040" width="60" height="30" as="geometry" />
        </mxCell>
        <mxCell id="gqLiIXm-dhSfrL8Xjwt8-2" value="Web - приложение" style="text;html=1;align=center;verticalAlign=middle;whiteSpace=wrap;rounded=0;fontSize=17;" vertex="1" parent="1">
          <mxGeometry x="173.18" y="1040" width="60" height="30" as="geometry" />
        </mxCell>
        <mxCell id="gqLiIXm-dhSfrL8Xjwt8-5" value="" style="endArrow=none;html=1;rounded=0;" edge="1" parent="1">
          <mxGeometry width="50" height="50" relative="1" as="geometry">
            <mxPoint x="200" y="920" as="sourcePoint" />
            <mxPoint x="1700" y="920" as="targetPoint" />
          </mxGeometry>
        </mxCell>
        <mxCell id="gqLiIXm-dhSfrL8Xjwt8-6" value="HTTP/1.1" style="text;html=1;align=center;verticalAlign=middle;whiteSpace=wrap;rounded=0;fontSize=17;" vertex="1" parent="1">
          <mxGeometry x="173" y="230" width="60" height="30" as="geometry" />
        </mxCell>
        <mxCell id="gqLiIXm-dhSfrL8Xjwt8-7" value="" style="endArrow=classic;html=1;rounded=0;exitX=0.5;exitY=1;exitDx=0;exitDy=0;entryX=0.5;entryY=0;entryDx=0;entryDy=0;" edge="1" parent="1" source="gqLiIXm-dhSfrL8Xjwt8-6" target="xtT4wF8nNLN6KiaJ76v7-2">
          <mxGeometry width="50" height="50" relative="1" as="geometry">
            <mxPoint x="380" y="260" as="sourcePoint" />
            <mxPoint x="430" y="210" as="targetPoint" />
          </mxGeometry>
        </mxCell>
        <mxCell id="gqLiIXm-dhSfrL8Xjwt8-8" value="HTTP/1.1, MVC, бизнес-логика, мат модель работы с данными" style="text;html=1;align=center;verticalAlign=middle;whiteSpace=wrap;rounded=0;fontSize=17;" vertex="1" parent="1">
          <mxGeometry x="440" y="230" width="360" height="30" as="geometry" />
        </mxCell>
        <mxCell id="gqLiIXm-dhSfrL8Xjwt8-9" value="" style="endArrow=classic;html=1;rounded=0;exitX=0.5;exitY=1;exitDx=0;exitDy=0;entryX=0.5;entryY=0;entryDx=0;entryDy=0;" edge="1" parent="1" source="gqLiIXm-dhSfrL8Xjwt8-8" target="xtT4wF8nNLN6KiaJ76v7-12">
          <mxGeometry width="50" height="50" relative="1" as="geometry">
            <mxPoint x="797" y="260" as="sourcePoint" />
            <mxPoint x="620" y="390" as="targetPoint" />
          </mxGeometry>
        </mxCell>
        <mxCell id="XQNLjjIEIJqJTgnnDvhb-2" value="MVC, бизнес-логика, мат модель работы с данными" style="text;html=1;align=center;verticalAlign=middle;whiteSpace=wrap;rounded=0;fontSize=17;" vertex="1" parent="1">
          <mxGeometry x="1080.5" y="230" width="259" height="30" as="geometry" />
        </mxCell>
        <mxCell id="XQNLjjIEIJqJTgnnDvhb-3" value="" style="endArrow=classic;html=1;rounded=0;exitX=0.5;exitY=1;exitDx=0;exitDy=0;entryX=0.5;entryY=0;entryDx=0;entryDy=0;" edge="1" parent="1" source="XQNLjjIEIJqJTgnnDvhb-2" target="xtT4wF8nNLN6KiaJ76v7-14">
          <mxGeometry width="50" height="50" relative="1" as="geometry">
            <mxPoint x="1377" y="250" as="sourcePoint" />
            <mxPoint x="1210" y="600" as="targetPoint" />
          </mxGeometry>
        </mxCell>
        <mxCell id="5Lr4Z4OXdN2FS8o0gslr-1" value="Преобразованный json" style="edgeLabel;html=1;align=center;verticalAlign=middle;resizable=0;points=[];fontSize=17;fontStyle=1" vertex="1" connectable="0" parent="1">
          <mxGeometry x="1400.0022222222226" y="790" as="geometry" />
        </mxCell>
      </root>
    </mxGraphModel>
  </diagram>
  <diagram id="9wkJcxL4Q-__7KkLmGr2" name="А1-2">
    <mxGraphModel dx="1042" dy="577" grid="1" gridSize="10" guides="1" tooltips="1" connect="1" arrows="1" fold="1" page="1" pageScale="1" pageWidth="827" pageHeight="1169" math="0" shadow="0">
      <root>
        <mxCell id="0" />
        <mxCell id="1" parent="0" />
      </root>
    </mxGraphModel>
  </diagram>
  <diagram id="kvW4iqczfdjjiJEHhbcN" name="А1-3">
    <mxGraphModel dx="3738" dy="1154" grid="1" gridSize="10" guides="1" tooltips="1" connect="1" arrows="1" fold="1" page="1" pageScale="1" pageWidth="827" pageHeight="1169" math="0" shadow="0">
      <root>
        <mxCell id="0" />
        <mxCell id="1" parent="0" />
        <mxCell id="o6BTCcdGtYg4L66Kj4F7-2" value="Установление связи сервера с приложением ВК по Api&amp;nbsp;&lt;br&gt;&lt;br&gt;&lt;div style=&quot;text-align: right;&quot;&gt;А1-3-1&lt;/div&gt;" style="rounded=0;whiteSpace=wrap;html=1;" vertex="1" parent="1">
          <mxGeometry x="-725" y="240" width="190" height="60" as="geometry" />
        </mxCell>
        <mxCell id="o6BTCcdGtYg4L66Kj4F7-3" value="Обработка нейросетью ссылок на файлы графического формата&lt;br&gt;&lt;br&gt;&lt;div style=&quot;text-align: right;&quot;&gt;А1-3-3&lt;br&gt;&lt;/div&gt;" style="rounded=0;whiteSpace=wrap;html=1;" vertex="1" parent="1">
          <mxGeometry x="-120" y="390" width="210" height="60" as="geometry" />
        </mxCell>
        <mxCell id="fAlp_7gVAoCPKYg_-pdc-2" value="Получение данных о постах по id в сообществах&lt;br&gt;&lt;br&gt;&lt;div style=&quot;text-align: right;&quot;&gt;&lt;span style=&quot;background-color: initial;&quot;&gt;А1-3-2&lt;/span&gt;&lt;/div&gt;" style="rounded=0;whiteSpace=wrap;html=1;" vertex="1" parent="1">
          <mxGeometry x="-380" y="310" width="180" height="60" as="geometry" />
        </mxCell>
        <mxCell id="7Ej8LFDHqciiN-fm2tg_-1" value="Сужение выборки относительно критерия максимального количества лайков&lt;br&gt;&lt;br&gt;&lt;div style=&quot;text-align: right;&quot;&gt;А1-3-4&lt;br&gt;&lt;/div&gt;" style="rounded=0;whiteSpace=wrap;html=1;" vertex="1" parent="1">
          <mxGeometry x="130" y="460" width="270" height="60" as="geometry" />
        </mxCell>
        <mxCell id="7Ej8LFDHqciiN-fm2tg_-5" value="Добавление словарей с данными о цветах в json&lt;br&gt;&lt;div&gt;&lt;br&gt;&lt;/div&gt;&lt;div style=&quot;text-align: right;&quot;&gt;А1-3-5&lt;br&gt;&lt;/div&gt;" style="rounded=0;whiteSpace=wrap;html=1;" vertex="1" parent="1">
          <mxGeometry x="520" y="540" width="250" height="60" as="geometry" />
        </mxCell>
        <mxCell id="kJia272SOVai100eX0_0-1" value="" style="endArrow=classic;html=1;rounded=0;exitX=1;exitY=0.5;exitDx=0;exitDy=0;entryX=0;entryY=0.5;entryDx=0;entryDy=0;" edge="1" parent="1" source="o6BTCcdGtYg4L66Kj4F7-2" target="fAlp_7gVAoCPKYg_-pdc-2">
          <mxGeometry width="50" height="50" relative="1" as="geometry">
            <mxPoint x="-330" y="270" as="sourcePoint" />
            <mxPoint x="-280" y="220" as="targetPoint" />
            <Array as="points">
              <mxPoint x="-430" y="270" />
              <mxPoint x="-430" y="340" />
            </Array>
          </mxGeometry>
        </mxCell>
        <mxCell id="XnTclEVS1rjdFWJ7cT9r-3" value="Вводные данные в формате json" style="edgeLabel;html=1;align=center;verticalAlign=middle;resizable=0;points=[];" vertex="1" connectable="0" parent="kJia272SOVai100eX0_0-1">
          <mxGeometry x="0.0353" relative="1" as="geometry">
            <mxPoint x="10" y="-26" as="offset" />
          </mxGeometry>
        </mxCell>
        <mxCell id="kJia272SOVai100eX0_0-2" value="" style="endArrow=classic;html=1;rounded=0;exitX=1;exitY=0.5;exitDx=0;exitDy=0;entryX=0;entryY=0.5;entryDx=0;entryDy=0;" edge="1" parent="1" source="fAlp_7gVAoCPKYg_-pdc-2" target="o6BTCcdGtYg4L66Kj4F7-3">
          <mxGeometry width="50" height="50" relative="1" as="geometry">
            <mxPoint x="-170" y="345" as="sourcePoint" />
            <mxPoint x="-70" y="415" as="targetPoint" />
            <Array as="points">
              <mxPoint x="-140" y="340" />
              <mxPoint x="-140" y="420" />
            </Array>
          </mxGeometry>
        </mxCell>
        <mxCell id="Dn0HROr3ncCGI2kQ8Ibk-1" value="Вводные данные и &lt;br&gt;данные о постах в формате json" style="edgeLabel;html=1;align=center;verticalAlign=middle;resizable=0;points=[];" vertex="1" connectable="0" parent="kJia272SOVai100eX0_0-2">
          <mxGeometry x="0.2542" y="2" relative="1" as="geometry">
            <mxPoint x="38" y="-11" as="offset" />
          </mxGeometry>
        </mxCell>
        <mxCell id="QjBQo30VL9peDu7-M6kQ-6" value="" style="endArrow=classic;html=1;rounded=0;exitX=1;exitY=0.5;exitDx=0;exitDy=0;entryX=0;entryY=0.5;entryDx=0;entryDy=0;" edge="1" parent="1" source="o6BTCcdGtYg4L66Kj4F7-3" target="7Ej8LFDHqciiN-fm2tg_-1">
          <mxGeometry width="50" height="50" relative="1" as="geometry">
            <mxPoint x="-15" y="550" as="sourcePoint" />
            <mxPoint x="75" y="630" as="targetPoint" />
            <Array as="points">
              <mxPoint x="110" y="420" />
              <mxPoint x="110" y="490" />
            </Array>
          </mxGeometry>
        </mxCell>
        <mxCell id="QjBQo30VL9peDu7-M6kQ-7" value="" style="endArrow=classic;html=1;rounded=0;entryX=0;entryY=0.5;entryDx=0;entryDy=0;exitX=1;exitY=0.5;exitDx=0;exitDy=0;" edge="1" parent="1" source="7Ej8LFDHqciiN-fm2tg_-1" target="7Ej8LFDHqciiN-fm2tg_-5">
          <mxGeometry width="50" height="50" relative="1" as="geometry">
            <mxPoint x="450" y="490" as="sourcePoint" />
            <mxPoint x="500" y="570" as="targetPoint" />
            <Array as="points">
              <mxPoint x="470" y="490" />
              <mxPoint x="470" y="570" />
            </Array>
          </mxGeometry>
        </mxCell>
        <mxCell id="XnTclEVS1rjdFWJ7cT9r-1" value="" style="endArrow=classic;html=1;rounded=0;entryX=0;entryY=0.5;entryDx=0;entryDy=0;" edge="1" parent="1" target="o6BTCcdGtYg4L66Kj4F7-2">
          <mxGeometry width="50" height="50" relative="1" as="geometry">
            <mxPoint x="-910" y="270" as="sourcePoint" />
            <mxPoint x="-780" y="220" as="targetPoint" />
          </mxGeometry>
        </mxCell>
        <mxCell id="XnTclEVS1rjdFWJ7cT9r-2" value="Вводные данные в формате json" style="edgeLabel;html=1;align=center;verticalAlign=middle;resizable=0;points=[];" vertex="1" connectable="0" parent="XnTclEVS1rjdFWJ7cT9r-1">
          <mxGeometry x="-0.3943" y="-1" relative="1" as="geometry">
            <mxPoint x="34" y="9" as="offset" />
          </mxGeometry>
        </mxCell>
        <mxCell id="XnTclEVS1rjdFWJ7cT9r-5" value="" style="endArrow=classic;html=1;rounded=0;entryX=0.5;entryY=1;entryDx=0;entryDy=0;exitX=0.5;exitY=0;exitDx=0;exitDy=0;" edge="1" parent="1" source="XnTclEVS1rjdFWJ7cT9r-6" target="fAlp_7gVAoCPKYg_-pdc-2">
          <mxGeometry width="50" height="50" relative="1" as="geometry">
            <mxPoint x="-230" y="730" as="sourcePoint" />
            <mxPoint x="-190" y="710" as="targetPoint" />
          </mxGeometry>
        </mxCell>
        <mxCell id="XnTclEVS1rjdFWJ7cT9r-6" value="БД" style="text;html=1;align=center;verticalAlign=middle;whiteSpace=wrap;rounded=0;" vertex="1" parent="1">
          <mxGeometry x="-320" y="585" width="60" height="30" as="geometry" />
        </mxCell>
        <mxCell id="XnTclEVS1rjdFWJ7cT9r-7" value="" style="endArrow=classic;html=1;rounded=0;entryX=0.5;entryY=1;entryDx=0;entryDy=0;exitX=0.5;exitY=0;exitDx=0;exitDy=0;" edge="1" parent="1" source="XnTclEVS1rjdFWJ7cT9r-9" target="o6BTCcdGtYg4L66Kj4F7-2">
          <mxGeometry width="50" height="50" relative="1" as="geometry">
            <mxPoint x="-480" y="740" as="sourcePoint" />
            <mxPoint x="-480" y="380" as="targetPoint" />
          </mxGeometry>
        </mxCell>
        <mxCell id="XnTclEVS1rjdFWJ7cT9r-9" value="Web - приложение" style="text;html=1;align=center;verticalAlign=middle;whiteSpace=wrap;rounded=0;" vertex="1" parent="1">
          <mxGeometry x="-660" y="720" width="60" height="30" as="geometry" />
        </mxCell>
        <mxCell id="XnTclEVS1rjdFWJ7cT9r-10" value="" style="endArrow=classic;html=1;rounded=0;entryX=0.5;entryY=1;entryDx=0;entryDy=0;" edge="1" parent="1" target="o6BTCcdGtYg4L66Kj4F7-3">
          <mxGeometry width="50" height="50" relative="1" as="geometry">
            <mxPoint x="-15" y="640" as="sourcePoint" />
            <mxPoint x="50" y="590" as="targetPoint" />
          </mxGeometry>
        </mxCell>
        <mxCell id="XnTclEVS1rjdFWJ7cT9r-11" value="" style="endArrow=classic;html=1;rounded=0;entryX=0.5;entryY=1;entryDx=0;entryDy=0;" edge="1" parent="1" target="7Ej8LFDHqciiN-fm2tg_-1">
          <mxGeometry width="50" height="50" relative="1" as="geometry">
            <mxPoint x="265" y="640" as="sourcePoint" />
            <mxPoint x="270" y="580" as="targetPoint" />
          </mxGeometry>
        </mxCell>
        <mxCell id="XnTclEVS1rjdFWJ7cT9r-12" value="" style="endArrow=classic;html=1;rounded=0;entryX=0.48;entryY=1;entryDx=0;entryDy=0;entryPerimeter=0;" edge="1" parent="1" target="7Ej8LFDHqciiN-fm2tg_-5">
          <mxGeometry width="50" height="50" relative="1" as="geometry">
            <mxPoint x="640" y="640" as="sourcePoint" />
            <mxPoint x="559.29" y="630" as="targetPoint" />
          </mxGeometry>
        </mxCell>
        <mxCell id="XnTclEVS1rjdFWJ7cT9r-13" value="" style="endArrow=none;html=1;rounded=0;" edge="1" parent="1">
          <mxGeometry width="50" height="50" relative="1" as="geometry">
            <mxPoint x="-630" y="640" as="sourcePoint" />
            <mxPoint x="640" y="640" as="targetPoint" />
          </mxGeometry>
        </mxCell>
        <mxCell id="dV3APGkxV4mNNgsVZcnO-1" value="" style="endArrow=classic;html=1;rounded=0;exitX=1;exitY=0.5;exitDx=0;exitDy=0;" edge="1" parent="1" source="7Ej8LFDHqciiN-fm2tg_-5">
          <mxGeometry width="50" height="50" relative="1" as="geometry">
            <mxPoint x="820" y="560" as="sourcePoint" />
            <mxPoint x="960" y="570" as="targetPoint" />
          </mxGeometry>
        </mxCell>
        <mxCell id="dV3APGkxV4mNNgsVZcnO-2" value="преобразованный json" style="edgeLabel;html=1;align=center;verticalAlign=middle;resizable=0;points=[];" vertex="1" connectable="0" parent="dV3APGkxV4mNNgsVZcnO-1">
          <mxGeometry x="-0.3943" y="-1" relative="1" as="geometry">
            <mxPoint x="34" y="9" as="offset" />
          </mxGeometry>
        </mxCell>
        <mxCell id="9zx4aHfQk9TMf5IDz_m7-2" value="" style="endArrow=classic;html=1;rounded=0;exitX=0.5;exitY=1;exitDx=0;exitDy=0;entryX=0.5;entryY=0;entryDx=0;entryDy=0;" edge="1" parent="1" target="o6BTCcdGtYg4L66Kj4F7-2">
          <mxGeometry width="50" height="50" relative="1" as="geometry">
            <mxPoint x="-630" y="95" as="sourcePoint" />
            <mxPoint x="-630" y="225" as="targetPoint" />
          </mxGeometry>
        </mxCell>
        <mxCell id="9zx4aHfQk9TMf5IDz_m7-4" value="" style="endArrow=classic;html=1;rounded=0;exitX=0.5;exitY=1;exitDx=0;exitDy=0;entryX=0.5;entryY=0;entryDx=0;entryDy=0;" edge="1" parent="1" target="fAlp_7gVAoCPKYg_-pdc-2">
          <mxGeometry width="50" height="50" relative="1" as="geometry">
            <mxPoint x="-290" y="150" as="sourcePoint" />
            <mxPoint x="-290" y="280" as="targetPoint" />
          </mxGeometry>
        </mxCell>
        <mxCell id="E3I9-gyeQbxdaKpFMqB6-2" value="" style="endArrow=classic;html=1;rounded=0;exitX=0.5;exitY=1;exitDx=0;exitDy=0;entryX=0.5;entryY=0;entryDx=0;entryDy=0;" edge="1" parent="1" target="o6BTCcdGtYg4L66Kj4F7-3">
          <mxGeometry width="50" height="50" relative="1" as="geometry">
            <mxPoint x="-15" y="190" as="sourcePoint" />
            <mxPoint x="20" y="330" as="targetPoint" />
          </mxGeometry>
        </mxCell>
        <mxCell id="P1oSd_fjzDIi_eOh7EDU-1" value="HTTP/1.1" style="text;html=1;align=center;verticalAlign=middle;whiteSpace=wrap;rounded=0;" vertex="1" parent="1">
          <mxGeometry x="-660" y="70" width="60" height="30" as="geometry" />
        </mxCell>
        <mxCell id="P1oSd_fjzDIi_eOh7EDU-2" value="HTTP/1.1" style="text;html=1;align=center;verticalAlign=middle;whiteSpace=wrap;rounded=0;" vertex="1" parent="1">
          <mxGeometry x="-320" y="120" width="60" height="30" as="geometry" />
        </mxCell>
        <mxCell id="P1oSd_fjzDIi_eOh7EDU-4" value="MVC, бизнес-логика, мат модель работы с данными" style="text;html=1;align=center;verticalAlign=middle;whiteSpace=wrap;rounded=0;" vertex="1" parent="1">
          <mxGeometry x="-97.5" y="160" width="165" height="30" as="geometry" />
        </mxCell>
        <mxCell id="P1oSd_fjzDIi_eOh7EDU-6" value="" style="endArrow=classic;html=1;rounded=0;exitX=0.5;exitY=1;exitDx=0;exitDy=0;entryX=0.5;entryY=0;entryDx=0;entryDy=0;" edge="1" parent="1" target="7Ej8LFDHqciiN-fm2tg_-1">
          <mxGeometry width="50" height="50" relative="1" as="geometry">
            <mxPoint x="266.25" y="255" as="sourcePoint" />
            <mxPoint x="266.25" y="455" as="targetPoint" />
          </mxGeometry>
        </mxCell>
        <mxCell id="P1oSd_fjzDIi_eOh7EDU-7" value="MVC, бизнес-логика, мат модель работы с данными" style="text;html=1;align=center;verticalAlign=middle;whiteSpace=wrap;rounded=0;" vertex="1" parent="1">
          <mxGeometry x="183.75" y="225" width="165" height="30" as="geometry" />
        </mxCell>
        <mxCell id="P1oSd_fjzDIi_eOh7EDU-9" value="" style="endArrow=classic;html=1;rounded=0;exitX=0.5;exitY=1;exitDx=0;exitDy=0;entryX=0.5;entryY=0;entryDx=0;entryDy=0;" edge="1" parent="1" source="P1oSd_fjzDIi_eOh7EDU-10" target="7Ej8LFDHqciiN-fm2tg_-5">
          <mxGeometry width="50" height="50" relative="1" as="geometry">
            <mxPoint x="635" y="330" as="sourcePoint" />
            <mxPoint x="635" y="530" as="targetPoint" />
          </mxGeometry>
        </mxCell>
        <mxCell id="P1oSd_fjzDIi_eOh7EDU-10" value="MVC, бизнес-логика, мат модель работы с данными" style="text;html=1;align=center;verticalAlign=middle;whiteSpace=wrap;rounded=0;" vertex="1" parent="1">
          <mxGeometry x="562.5" y="325" width="165" height="30" as="geometry" />
        </mxCell>
        <mxCell id="8P1mZKOoXc5sDCs-tCXC-1" value="Здесь же не надо прописывать в таком случае веб-приложение?&amp;nbsp;" style="text;html=1;align=center;verticalAlign=middle;whiteSpace=wrap;rounded=0;fillColor=#f8cecc;strokeColor=#b85450;" vertex="1" parent="1">
          <mxGeometry x="-440" y="700" width="290" height="30" as="geometry" />
        </mxCell>
        <mxCell id="Yl_58boCMNiGrSB8BnF--1" value="преобразованные данные&lt;br&gt;о постах в формате json" style="edgeLabel;html=1;align=center;verticalAlign=middle;resizable=0;points=[];" vertex="1" connectable="0" parent="1">
          <mxGeometry x="180" y="430" as="geometry" />
        </mxCell>
        <mxCell id="Yl_58boCMNiGrSB8BnF--2" value="преобразованные данные&lt;br&gt;о постах в формате json" style="edgeLabel;html=1;align=center;verticalAlign=middle;resizable=0;points=[];" vertex="1" connectable="0" parent="1">
          <mxGeometry x="490" y="500" as="geometry" />
        </mxCell>
      </root>
    </mxGraphModel>
  </diagram>
  <diagram id="gzIOpaav8YQtnSuk8QjL" name="А1-3-3">
    <mxGraphModel dx="2430" dy="2057" grid="1" gridSize="10" guides="1" tooltips="1" connect="1" arrows="1" fold="1" page="1" pageScale="1" pageWidth="827" pageHeight="1169" math="0" shadow="0">
      <root>
        <mxCell id="0" />
        <mxCell id="1" parent="0" />
        <mxCell id="SMWI_XObdtobfyOD9I4q-1" value="Обработка графических файлов нейросетью по идентификации лиц&lt;br&gt;&lt;br&gt;&lt;div style=&quot;text-align: right;&quot;&gt;А1-3-3-1&lt;/div&gt;" style="rounded=0;whiteSpace=wrap;html=1;" vertex="1" parent="1">
          <mxGeometry x="-220" y="160" width="240" height="60" as="geometry" />
        </mxCell>
        <mxCell id="SMWI_XObdtobfyOD9I4q-2" value="Обработка графических файлов нейросетью по разделению лиц на зоны&lt;br&gt;&lt;br&gt;&lt;div style=&quot;text-align: right;&quot;&gt;А1-3-3-2&lt;br&gt;&lt;/div&gt;" style="rounded=0;whiteSpace=wrap;html=1;" vertex="1" parent="1">
          <mxGeometry x="160" y="220" width="210" height="70" as="geometry" />
        </mxCell>
        <mxCell id="SMWI_XObdtobfyOD9I4q-3" value="Определение среднего цвета каждой из зон&lt;br&gt;&lt;br&gt;&lt;div style=&quot;text-align: right;&quot;&gt;А1-3-3-3&lt;br&gt;&lt;/div&gt;" style="rounded=0;whiteSpace=wrap;html=1;" vertex="1" parent="1">
          <mxGeometry x="410" y="300" width="170" height="60" as="geometry" />
        </mxCell>
        <mxCell id="SMWI_XObdtobfyOD9I4q-4" value="Фильтрация данных по критериям вводных данных&lt;br&gt;&lt;br&gt;&lt;div style=&quot;text-align: right;&quot;&gt;А1-3-3-4&lt;/div&gt;" style="rounded=0;whiteSpace=wrap;html=1;" vertex="1" parent="1">
          <mxGeometry x="650" y="370" width="160" height="60" as="geometry" />
        </mxCell>
        <mxCell id="SMWI_XObdtobfyOD9I4q-5" value="" style="endArrow=classic;html=1;rounded=0;exitX=1;exitY=0.5;exitDx=0;exitDy=0;entryX=0;entryY=0.5;entryDx=0;entryDy=0;" edge="1" parent="1" source="SMWI_XObdtobfyOD9I4q-1" target="SMWI_XObdtobfyOD9I4q-2">
          <mxGeometry width="50" height="50" relative="1" as="geometry">
            <mxPoint x="130" y="340" as="sourcePoint" />
            <mxPoint x="180" y="290" as="targetPoint" />
            <Array as="points">
              <mxPoint x="140" y="190" />
              <mxPoint x="140" y="255" />
            </Array>
          </mxGeometry>
        </mxCell>
        <mxCell id="SMWI_XObdtobfyOD9I4q-6" value="" style="endArrow=classic;html=1;rounded=0;entryX=0;entryY=0.5;entryDx=0;entryDy=0;exitX=1;exitY=0.5;exitDx=0;exitDy=0;" edge="1" parent="1" source="SMWI_XObdtobfyOD9I4q-2" target="SMWI_XObdtobfyOD9I4q-3">
          <mxGeometry width="50" height="50" relative="1" as="geometry">
            <mxPoint x="320" y="260" as="sourcePoint" />
            <mxPoint x="460" y="325" as="targetPoint" />
            <Array as="points">
              <mxPoint x="390" y="255" />
              <mxPoint x="390" y="330" />
            </Array>
          </mxGeometry>
        </mxCell>
        <mxCell id="SMWI_XObdtobfyOD9I4q-7" value="" style="endArrow=classic;html=1;rounded=0;entryX=0;entryY=0.5;entryDx=0;entryDy=0;exitX=1;exitY=0.5;exitDx=0;exitDy=0;" edge="1" parent="1" source="SMWI_XObdtobfyOD9I4q-3" target="SMWI_XObdtobfyOD9I4q-4">
          <mxGeometry width="50" height="50" relative="1" as="geometry">
            <mxPoint x="560" y="350" as="sourcePoint" />
            <mxPoint x="670" y="395" as="targetPoint" />
            <Array as="points">
              <mxPoint x="600" y="330" />
              <mxPoint x="600" y="400" />
            </Array>
          </mxGeometry>
        </mxCell>
        <mxCell id="jgkhnrftDQHpq-Ki1gDN-1" value="" style="endArrow=classic;html=1;rounded=0;entryX=0;entryY=0.5;entryDx=0;entryDy=0;" edge="1" parent="1" target="SMWI_XObdtobfyOD9I4q-1">
          <mxGeometry width="50" height="50" relative="1" as="geometry">
            <mxPoint x="-380" y="190" as="sourcePoint" />
            <mxPoint x="-220" y="189.33" as="targetPoint" />
            <Array as="points" />
          </mxGeometry>
        </mxCell>
        <mxCell id="jgkhnrftDQHpq-Ki1gDN-2" value="Вводные данные и &lt;br&gt;данные о постах в формате json" style="edgeLabel;html=1;align=center;verticalAlign=middle;resizable=0;points=[];" vertex="1" connectable="0" parent="jgkhnrftDQHpq-Ki1gDN-1">
          <mxGeometry x="0.2542" y="2" relative="1" as="geometry">
            <mxPoint x="-26" y="-18" as="offset" />
          </mxGeometry>
        </mxCell>
        <mxCell id="zuDaaO6na-U8-g4AJpNU-1" value="" style="endArrow=classic;html=1;rounded=0;entryX=0.5;entryY=1;entryDx=0;entryDy=0;exitX=0.5;exitY=0;exitDx=0;exitDy=0;" edge="1" parent="1" source="zuDaaO6na-U8-g4AJpNU-2" target="SMWI_XObdtobfyOD9I4q-1">
          <mxGeometry width="50" height="50" relative="1" as="geometry">
            <mxPoint x="50" y="680" as="sourcePoint" />
            <mxPoint x="-100" y="240" as="targetPoint" />
          </mxGeometry>
        </mxCell>
        <mxCell id="zuDaaO6na-U8-g4AJpNU-2" value="Web - приложение" style="text;html=1;align=center;verticalAlign=middle;whiteSpace=wrap;rounded=0;" vertex="1" parent="1">
          <mxGeometry x="-130" y="660" width="60" height="30" as="geometry" />
        </mxCell>
        <mxCell id="zuDaaO6na-U8-g4AJpNU-3" value="" style="endArrow=none;html=1;rounded=0;" edge="1" parent="1">
          <mxGeometry width="50" height="50" relative="1" as="geometry">
            <mxPoint x="-100" y="520" as="sourcePoint" />
            <mxPoint x="730" y="520" as="targetPoint" />
          </mxGeometry>
        </mxCell>
        <mxCell id="zuDaaO6na-U8-g4AJpNU-4" value="" style="endArrow=classic;html=1;rounded=0;entryX=0.5;entryY=1;entryDx=0;entryDy=0;" edge="1" parent="1" target="SMWI_XObdtobfyOD9I4q-2">
          <mxGeometry width="50" height="50" relative="1" as="geometry">
            <mxPoint x="265" y="520" as="sourcePoint" />
            <mxPoint x="180" y="430" as="targetPoint" />
          </mxGeometry>
        </mxCell>
        <mxCell id="zuDaaO6na-U8-g4AJpNU-5" value="" style="endArrow=classic;html=1;rounded=0;entryX=0.5;entryY=1;entryDx=0;entryDy=0;" edge="1" parent="1" target="SMWI_XObdtobfyOD9I4q-3">
          <mxGeometry width="50" height="50" relative="1" as="geometry">
            <mxPoint x="495" y="520" as="sourcePoint" />
            <mxPoint x="500" y="440" as="targetPoint" />
          </mxGeometry>
        </mxCell>
        <mxCell id="zuDaaO6na-U8-g4AJpNU-6" value="" style="endArrow=classic;html=1;rounded=0;entryX=0.5;entryY=1;entryDx=0;entryDy=0;" edge="1" parent="1" target="SMWI_XObdtobfyOD9I4q-4">
          <mxGeometry width="50" height="50" relative="1" as="geometry">
            <mxPoint x="730" y="520" as="sourcePoint" />
            <mxPoint x="620" y="570" as="targetPoint" />
          </mxGeometry>
        </mxCell>
        <mxCell id="X55CtS9NhVCe6vRI-bTM-1" value="" style="endArrow=classic;html=1;rounded=0;exitX=1;exitY=0.5;exitDx=0;exitDy=0;entryX=0;entryY=0.5;entryDx=0;entryDy=0;" edge="1" parent="1" source="SMWI_XObdtobfyOD9I4q-4">
          <mxGeometry width="50" height="50" relative="1" as="geometry">
            <mxPoint x="850" y="400" as="sourcePoint" />
            <mxPoint x="970" y="400" as="targetPoint" />
          </mxGeometry>
        </mxCell>
        <mxCell id="RC1reDM8MI--IECTinvX-1" value="Здесь же не надо прописывать в таком случае веб-приложение? (протоколов это тоже касается)" style="text;html=1;align=center;verticalAlign=middle;whiteSpace=wrap;rounded=0;fillColor=#f8cecc;strokeColor=#b85450;" vertex="1" parent="1">
          <mxGeometry x="70" y="600" width="290" height="30" as="geometry" />
        </mxCell>
        <mxCell id="r9G06eh9zX9cC4qHtflV-1" value="" style="endArrow=classic;html=1;rounded=0;exitX=0.5;exitY=1;exitDx=0;exitDy=0;entryX=0.5;entryY=0;entryDx=0;entryDy=0;" edge="1" parent="1" target="SMWI_XObdtobfyOD9I4q-1">
          <mxGeometry width="50" height="50" relative="1" as="geometry">
            <mxPoint x="-100" y="5" as="sourcePoint" />
            <mxPoint x="-100" y="150" as="targetPoint" />
          </mxGeometry>
        </mxCell>
        <mxCell id="r9G06eh9zX9cC4qHtflV-3" value="" style="endArrow=classic;html=1;rounded=0;exitX=0.5;exitY=1;exitDx=0;exitDy=0;entryX=0.5;entryY=0;entryDx=0;entryDy=0;" edge="1" parent="1" target="SMWI_XObdtobfyOD9I4q-2">
          <mxGeometry width="50" height="50" relative="1" as="geometry">
            <mxPoint x="265" y="45" as="sourcePoint" />
            <mxPoint x="265" y="200" as="targetPoint" />
          </mxGeometry>
        </mxCell>
        <mxCell id="EcIQWEcmMVlSw9Glnq3A-1" value="MVC, бизнес-логика, мат модель работы с данными" style="text;html=1;align=center;verticalAlign=middle;whiteSpace=wrap;rounded=0;" vertex="1" parent="1">
          <mxGeometry x="-182.5" y="-30" width="165" height="30" as="geometry" />
        </mxCell>
        <mxCell id="EcIQWEcmMVlSw9Glnq3A-2" value="MVC, бизнес-логика, мат модель работы с данными" style="text;html=1;align=center;verticalAlign=middle;whiteSpace=wrap;rounded=0;" vertex="1" parent="1">
          <mxGeometry x="182.5" y="10" width="165" height="30" as="geometry" />
        </mxCell>
        <mxCell id="EcIQWEcmMVlSw9Glnq3A-3" value="" style="endArrow=classic;html=1;rounded=0;exitX=0.5;exitY=1;exitDx=0;exitDy=0;entryX=0.5;entryY=0;entryDx=0;entryDy=0;" edge="1" parent="1" target="SMWI_XObdtobfyOD9I4q-3">
          <mxGeometry width="50" height="50" relative="1" as="geometry">
            <mxPoint x="495.5" y="115" as="sourcePoint" />
            <mxPoint x="495.5" y="290" as="targetPoint" />
          </mxGeometry>
        </mxCell>
        <mxCell id="EcIQWEcmMVlSw9Glnq3A-4" value="MVC, бизнес-логика, мат модель работы с данными" style="text;html=1;align=center;verticalAlign=middle;whiteSpace=wrap;rounded=0;" vertex="1" parent="1">
          <mxGeometry x="413" y="80" width="165" height="30" as="geometry" />
        </mxCell>
        <mxCell id="himAzEDVPUClSRrI7YkC-4" value="Преобразованный json&amp;nbsp;" style="edgeLabel;html=1;align=center;verticalAlign=middle;resizable=0;points=[];" vertex="1" connectable="0" parent="1">
          <mxGeometry x="650" y="220" as="geometry">
            <mxPoint x="15" y="2" as="offset" />
          </mxGeometry>
        </mxCell>
        <mxCell id="x3OVea9as9k4Qs3Uvbd0-1" value="Вводные данные и &lt;br&gt;данные о постах в формате json" style="edgeLabel;html=1;align=center;verticalAlign=middle;resizable=0;points=[];" vertex="1" connectable="0" parent="1">
          <mxGeometry x="120" y="170" as="geometry" />
        </mxCell>
        <mxCell id="x3OVea9as9k4Qs3Uvbd0-2" value="Вводные данные и &lt;br&gt;данные о постах в формате json" style="edgeLabel;html=1;align=center;verticalAlign=middle;resizable=0;points=[];" vertex="1" connectable="0" parent="1">
          <mxGeometry x="380" y="380" as="geometry" />
        </mxCell>
        <mxCell id="x3OVea9as9k4Qs3Uvbd0-3" value="Вводные данные и &lt;br&gt;данные о постах в формате json" style="edgeLabel;html=1;align=center;verticalAlign=middle;resizable=0;points=[];" vertex="1" connectable="0" parent="1">
          <mxGeometry x="690" y="340" as="geometry" />
        </mxCell>
        <mxCell id="Z_YZNqGCZ-tPR7n0Ezsy-1" value="преобразованные данные&lt;br&gt;о постах в формате json" style="edgeLabel;html=1;align=center;verticalAlign=middle;resizable=0;points=[];" vertex="1" connectable="0" parent="1">
          <mxGeometry x="890" y="380" as="geometry" />
        </mxCell>
      </root>
    </mxGraphModel>
  </diagram>
  <diagram id="1KKVFmSojc_k1J7GXisD" name="А1-4">
    <mxGraphModel dx="2316" dy="824" grid="1" gridSize="10" guides="1" tooltips="1" connect="1" arrows="1" fold="1" page="1" pageScale="1" pageWidth="827" pageHeight="1169" math="0" shadow="0">
      <root>
        <mxCell id="0" />
        <mxCell id="1" parent="0" />
        <mxCell id="TKUsNl7A8iNkuNy-oLYU-1" value="Замена текстового формата описания цвета на графический" style="rounded=0;whiteSpace=wrap;html=1;" vertex="1" parent="1">
          <mxGeometry x="40" y="280" width="120" height="60" as="geometry" />
        </mxCell>
        <mxCell id="TKUsNl7A8iNkuNy-oLYU-2" value="Формирование палитры для каждого элемента выборки" style="rounded=0;whiteSpace=wrap;html=1;" vertex="1" parent="1">
          <mxGeometry x="280" y="340" width="120" height="70" as="geometry" />
        </mxCell>
        <mxCell id="TKUsNl7A8iNkuNy-oLYU-3" value="Формирование представления изначальных графических объектов и сформированных палитр" style="rounded=0;whiteSpace=wrap;html=1;" vertex="1" parent="1">
          <mxGeometry x="510" y="420" width="270" height="60" as="geometry" />
        </mxCell>
        <mxCell id="TKUsNl7A8iNkuNy-oLYU-4" value="" style="endArrow=classic;html=1;rounded=0;exitX=1;exitY=0.5;exitDx=0;exitDy=0;entryX=0;entryY=0.5;entryDx=0;entryDy=0;" edge="1" parent="1" source="TKUsNl7A8iNkuNy-oLYU-1" target="TKUsNl7A8iNkuNy-oLYU-2">
          <mxGeometry width="50" height="50" relative="1" as="geometry">
            <mxPoint x="200" y="460" as="sourcePoint" />
            <mxPoint x="250" y="410" as="targetPoint" />
            <Array as="points">
              <mxPoint x="210" y="310" />
              <mxPoint x="210" y="375" />
            </Array>
          </mxGeometry>
        </mxCell>
        <mxCell id="TKUsNl7A8iNkuNy-oLYU-5" value="" style="endArrow=classic;html=1;rounded=0;entryX=0;entryY=0.5;entryDx=0;entryDy=0;exitX=1;exitY=0.5;exitDx=0;exitDy=0;" edge="1" parent="1" source="TKUsNl7A8iNkuNy-oLYU-2" target="TKUsNl7A8iNkuNy-oLYU-3">
          <mxGeometry width="50" height="50" relative="1" as="geometry">
            <mxPoint x="390" y="380" as="sourcePoint" />
            <mxPoint x="530" y="445" as="targetPoint" />
            <Array as="points">
              <mxPoint x="460" y="375" />
              <mxPoint x="460" y="450" />
            </Array>
          </mxGeometry>
        </mxCell>
        <mxCell id="JEEnkisZqyNkrESMyf58-1" value="" style="endArrow=classic;html=1;rounded=0;entryX=0;entryY=0.5;entryDx=0;entryDy=0;" edge="1" parent="1" target="TKUsNl7A8iNkuNy-oLYU-1">
          <mxGeometry width="50" height="50" relative="1" as="geometry">
            <mxPoint x="-160" y="310" as="sourcePoint" />
            <mxPoint x="30" y="300" as="targetPoint" />
          </mxGeometry>
        </mxCell>
        <mxCell id="JEEnkisZqyNkrESMyf58-2" value="преобразованный json" style="edgeLabel;html=1;align=center;verticalAlign=middle;resizable=0;points=[];" vertex="1" connectable="0" parent="JEEnkisZqyNkrESMyf58-1">
          <mxGeometry x="-0.3943" y="-1" relative="1" as="geometry">
            <mxPoint x="34" y="9" as="offset" />
          </mxGeometry>
        </mxCell>
        <mxCell id="hPDEXK513GjUkRX7csUz-1" value="Web - приложение" style="text;html=1;align=center;verticalAlign=middle;whiteSpace=wrap;rounded=0;" vertex="1" parent="1">
          <mxGeometry x="70" y="620" width="60" height="30" as="geometry" />
        </mxCell>
        <mxCell id="hPDEXK513GjUkRX7csUz-2" value="" style="endArrow=none;html=1;rounded=0;" edge="1" parent="1">
          <mxGeometry width="50" height="50" relative="1" as="geometry">
            <mxPoint x="100" y="560" as="sourcePoint" />
            <mxPoint x="650" y="560" as="targetPoint" />
          </mxGeometry>
        </mxCell>
        <mxCell id="hPDEXK513GjUkRX7csUz-3" value="" style="endArrow=classic;html=1;rounded=0;entryX=0.513;entryY=0.997;entryDx=0;entryDy=0;entryPerimeter=0;" edge="1" parent="1" target="TKUsNl7A8iNkuNy-oLYU-3">
          <mxGeometry width="50" height="50" relative="1" as="geometry">
            <mxPoint x="650" y="560" as="sourcePoint" />
            <mxPoint x="690" y="410" as="targetPoint" />
          </mxGeometry>
        </mxCell>
        <mxCell id="ydilctSDJS-4YC9NDmYJ-2" value="" style="endArrow=classic;html=1;rounded=0;exitX=0.5;exitY=0;exitDx=0;exitDy=0;entryX=0.5;entryY=1;entryDx=0;entryDy=0;" edge="1" parent="1" source="hPDEXK513GjUkRX7csUz-1" target="TKUsNl7A8iNkuNy-oLYU-1">
          <mxGeometry width="50" height="50" relative="1" as="geometry">
            <mxPoint x="-30" y="520" as="sourcePoint" />
            <mxPoint x="20" y="470" as="targetPoint" />
          </mxGeometry>
        </mxCell>
        <mxCell id="ydilctSDJS-4YC9NDmYJ-3" value="" style="endArrow=classic;html=1;rounded=0;entryX=0.5;entryY=1;entryDx=0;entryDy=0;" edge="1" parent="1" target="TKUsNl7A8iNkuNy-oLYU-2">
          <mxGeometry width="50" height="50" relative="1" as="geometry">
            <mxPoint x="340" y="560" as="sourcePoint" />
            <mxPoint x="370" y="440" as="targetPoint" />
          </mxGeometry>
        </mxCell>
        <mxCell id="gXn4qMS5CHkzTfBMvTmd-1" value="" style="endArrow=classic;html=1;rounded=0;exitX=0.5;exitY=1;exitDx=0;exitDy=0;entryX=0.5;entryY=0;entryDx=0;entryDy=0;" edge="1" parent="1" target="TKUsNl7A8iNkuNy-oLYU-1">
          <mxGeometry width="50" height="50" relative="1" as="geometry">
            <mxPoint x="100" y="115" as="sourcePoint" />
            <mxPoint x="100" y="270" as="targetPoint" />
          </mxGeometry>
        </mxCell>
        <mxCell id="gXn4qMS5CHkzTfBMvTmd-2" value="MVC, бизнес-логика, мат модель работы с данными" style="text;html=1;align=center;verticalAlign=middle;whiteSpace=wrap;rounded=0;" vertex="1" parent="1">
          <mxGeometry x="17.5" y="80" width="165" height="30" as="geometry" />
        </mxCell>
        <mxCell id="gXn4qMS5CHkzTfBMvTmd-3" value="преобразованный json" style="edgeLabel;html=1;align=center;verticalAlign=middle;resizable=0;points=[];" vertex="1" connectable="0" parent="1">
          <mxGeometry x="210.00111111111084" y="400" as="geometry" />
        </mxCell>
        <mxCell id="gXn4qMS5CHkzTfBMvTmd-4" value="преобразованный json" style="edgeLabel;html=1;align=center;verticalAlign=middle;resizable=0;points=[];" vertex="1" connectable="0" parent="1">
          <mxGeometry x="480.00111111111084" y="360" as="geometry" />
        </mxCell>
        <mxCell id="gXn4qMS5CHkzTfBMvTmd-5" value="" style="endArrow=classic;html=1;rounded=0;exitX=0.5;exitY=1;exitDx=0;exitDy=0;entryX=0.5;entryY=0;entryDx=0;entryDy=0;" edge="1" parent="1">
          <mxGeometry width="50" height="50" relative="1" as="geometry">
            <mxPoint x="340" y="175" as="sourcePoint" />
            <mxPoint x="340" y="340" as="targetPoint" />
          </mxGeometry>
        </mxCell>
        <mxCell id="gXn4qMS5CHkzTfBMvTmd-6" value="MVC, бизнес-логика, мат модель работы с данными" style="text;html=1;align=center;verticalAlign=middle;whiteSpace=wrap;rounded=0;" vertex="1" parent="1">
          <mxGeometry x="257.5" y="140" width="165" height="30" as="geometry" />
        </mxCell>
        <mxCell id="eHk4nw2JGhZfZJ1tr0mi-1" value="" style="endArrow=classic;html=1;rounded=0;entryX=0.095;entryY=1.031;entryDx=0;entryDy=0;entryPerimeter=0;" edge="1" parent="1" target="TKUsNl7A8iNkuNy-oLYU-1">
          <mxGeometry width="50" height="50" relative="1" as="geometry">
            <mxPoint x="51" y="620" as="sourcePoint" />
            <mxPoint x="50" y="340" as="targetPoint" />
          </mxGeometry>
        </mxCell>
        <mxCell id="eHk4nw2JGhZfZJ1tr0mi-2" value="БД" style="text;html=1;align=center;verticalAlign=middle;whiteSpace=wrap;rounded=0;" vertex="1" parent="1">
          <mxGeometry x="17.5" y="615" width="60" height="30" as="geometry" />
        </mxCell>
        <mxCell id="exVmv8h5cYpQIXJ4Wr1T-1" value="" style="endArrow=classic;html=1;rounded=0;exitX=1;exitY=0.5;exitDx=0;exitDy=0;" edge="1" parent="1" source="TKUsNl7A8iNkuNy-oLYU-3">
          <mxGeometry width="50" height="50" relative="1" as="geometry">
            <mxPoint x="820" y="470" as="sourcePoint" />
            <mxPoint x="890" y="450" as="targetPoint" />
          </mxGeometry>
        </mxCell>
        <mxCell id="exVmv8h5cYpQIXJ4Wr1T-2" value="преобразованный json" style="edgeLabel;html=1;align=center;verticalAlign=middle;resizable=0;points=[];" vertex="1" connectable="0" parent="1">
          <mxGeometry x="850.0011111111108" y="440" as="geometry" />
        </mxCell>
        <mxCell id="mHtaTmHHyj0idhOLfo6v-1" value="" style="endArrow=classic;html=1;rounded=0;exitX=0.5;exitY=1;exitDx=0;exitDy=0;entryX=0.5;entryY=0;entryDx=0;entryDy=0;" edge="1" parent="1" target="TKUsNl7A8iNkuNy-oLYU-3">
          <mxGeometry width="50" height="50" relative="1" as="geometry">
            <mxPoint x="645" y="245" as="sourcePoint" />
            <mxPoint x="645" y="410" as="targetPoint" />
          </mxGeometry>
        </mxCell>
        <mxCell id="mHtaTmHHyj0idhOLfo6v-2" value="MVC, бизнес-логика, мат модель работы с данными" style="text;html=1;align=center;verticalAlign=middle;whiteSpace=wrap;rounded=0;" vertex="1" parent="1">
          <mxGeometry x="562.5" y="210" width="165" height="30" as="geometry" />
        </mxCell>
        <mxCell id="2NW_nGytrdskrjFGFIvb-1" value="Здесь же не надо прописывать в таком случае веб-приложение? (протоколов это тоже касается)" style="text;html=1;align=center;verticalAlign=middle;whiteSpace=wrap;rounded=0;fillColor=#f8cecc;strokeColor=#b85450;" vertex="1" parent="1">
          <mxGeometry x="470" y="120" width="290" height="30" as="geometry" />
        </mxCell>
      </root>
    </mxGraphModel>
  </diagram>
</mxfile>
